<mxfile host="Electron" modified="2024-01-20T02:21:51.197Z" agent="Mozilla/5.0 (Windows NT 10.0; Win64; x64) AppleWebKit/537.36 (KHTML, like Gecko) draw.io/22.0.2 Chrome/114.0.5735.289 Electron/25.8.4 Safari/537.36" etag="2dj2-Bs_VQRjMAzv2dgx" version="22.0.2" type="device">
  <diagram name="第 1 页" id="RB8LvpVfG58uMNeTtT9j">
    <mxGraphModel dx="1418" dy="-341" grid="1" gridSize="10" guides="1" tooltips="1" connect="1" arrows="1" fold="1" page="1" pageScale="1" pageWidth="827" pageHeight="1169" math="0" shadow="0">
      <root>
        <mxCell id="0" />
        <mxCell id="1" parent="0" />
        <mxCell id="YqBTJiR8Vr2jeuTM6Ofv-168" style="edgeStyle=none;shape=connector;rounded=0;orthogonalLoop=1;jettySize=auto;html=1;exitX=0;exitY=1;exitDx=0;exitDy=0;entryX=0;entryY=0;entryDx=0;entryDy=0;labelBackgroundColor=default;strokeColor=#d79b00;align=center;verticalAlign=middle;fontFamily=Helvetica;fontSize=11;fontColor=default;endArrow=classic;fillColor=#ffe6cc;" edge="1" parent="1" source="YqBTJiR8Vr2jeuTM6Ofv-6" target="YqBTJiR8Vr2jeuTM6Ofv-17">
          <mxGeometry relative="1" as="geometry" />
        </mxCell>
        <mxCell id="YqBTJiR8Vr2jeuTM6Ofv-169" style="edgeStyle=none;shape=connector;rounded=0;orthogonalLoop=1;jettySize=auto;html=1;exitX=1;exitY=1;exitDx=0;exitDy=0;entryX=1;entryY=0;entryDx=0;entryDy=0;labelBackgroundColor=default;strokeColor=#d79b00;align=center;verticalAlign=middle;fontFamily=Helvetica;fontSize=11;fontColor=default;endArrow=classic;fillColor=#ffe6cc;" edge="1" parent="1" source="YqBTJiR8Vr2jeuTM6Ofv-6" target="YqBTJiR8Vr2jeuTM6Ofv-27">
          <mxGeometry relative="1" as="geometry" />
        </mxCell>
        <mxCell id="YqBTJiR8Vr2jeuTM6Ofv-6" value="Assets" style="childLayout=tableLayout;recursiveResize=0;strokeColor=#98bf21;fillColor=#A7C942;shadow=1;" vertex="1" parent="1">
          <mxGeometry x="320" y="1200" width="40" height="40" as="geometry" />
        </mxCell>
        <mxCell id="YqBTJiR8Vr2jeuTM6Ofv-7" style="shape=tableRow;horizontal=0;startSize=0;swimlaneHead=0;swimlaneBody=0;top=0;left=0;bottom=0;right=0;dropTarget=0;collapsible=0;recursiveResize=0;expand=0;fontStyle=0;strokeColor=inherit;fillColor=#ffffff;" vertex="1" parent="YqBTJiR8Vr2jeuTM6Ofv-6">
          <mxGeometry width="40" height="20" as="geometry" />
        </mxCell>
        <mxCell id="YqBTJiR8Vr2jeuTM6Ofv-8" value="150" style="connectable=0;recursiveResize=0;strokeColor=inherit;fillColor=#A7C942;align=center;fontStyle=1;fontColor=#FFFFFF;html=1;" vertex="1" parent="YqBTJiR8Vr2jeuTM6Ofv-7">
          <mxGeometry width="40" height="20" as="geometry">
            <mxRectangle width="40" height="20" as="alternateBounds" />
          </mxGeometry>
        </mxCell>
        <mxCell id="YqBTJiR8Vr2jeuTM6Ofv-9" value="" style="shape=tableRow;horizontal=0;startSize=0;swimlaneHead=0;swimlaneBody=0;top=0;left=0;bottom=0;right=0;dropTarget=0;collapsible=0;recursiveResize=0;expand=0;fontStyle=1;strokeColor=inherit;fillColor=#EAF2D3;" vertex="1" parent="YqBTJiR8Vr2jeuTM6Ofv-6">
          <mxGeometry y="20" width="40" height="20" as="geometry" />
        </mxCell>
        <mxCell id="YqBTJiR8Vr2jeuTM6Ofv-10" value="data" style="connectable=0;recursiveResize=0;strokeColor=inherit;fillColor=inherit;whiteSpace=wrap;html=1;" vertex="1" parent="YqBTJiR8Vr2jeuTM6Ofv-9">
          <mxGeometry width="40" height="20" as="geometry">
            <mxRectangle width="40" height="20" as="alternateBounds" />
          </mxGeometry>
        </mxCell>
        <mxCell id="YqBTJiR8Vr2jeuTM6Ofv-163" style="edgeStyle=none;shape=connector;rounded=0;orthogonalLoop=1;jettySize=auto;html=1;exitX=1;exitY=1;exitDx=0;exitDy=0;entryX=1;entryY=0;entryDx=0;entryDy=0;labelBackgroundColor=default;strokeColor=#d79b00;align=center;verticalAlign=middle;fontFamily=Helvetica;fontSize=11;fontColor=default;endArrow=classic;fillColor=#ffe6cc;" edge="1" parent="1" source="YqBTJiR8Vr2jeuTM6Ofv-16" target="YqBTJiR8Vr2jeuTM6Ofv-147">
          <mxGeometry relative="1" as="geometry" />
        </mxCell>
        <mxCell id="YqBTJiR8Vr2jeuTM6Ofv-16" value="Assets" style="childLayout=tableLayout;recursiveResize=0;strokeColor=#98bf21;fillColor=#A7C942;shadow=1;" vertex="1" parent="1">
          <mxGeometry x="280" y="1280" width="40" height="40" as="geometry" />
        </mxCell>
        <mxCell id="YqBTJiR8Vr2jeuTM6Ofv-17" style="shape=tableRow;horizontal=0;startSize=0;swimlaneHead=0;swimlaneBody=0;top=0;left=0;bottom=0;right=0;dropTarget=0;collapsible=0;recursiveResize=0;expand=0;fontStyle=0;strokeColor=inherit;fillColor=#ffffff;" vertex="1" parent="YqBTJiR8Vr2jeuTM6Ofv-16">
          <mxGeometry width="40" height="20" as="geometry" />
        </mxCell>
        <mxCell id="YqBTJiR8Vr2jeuTM6Ofv-18" value="90" style="connectable=0;recursiveResize=0;strokeColor=inherit;fillColor=#A7C942;align=center;fontStyle=1;fontColor=#FFFFFF;html=1;" vertex="1" parent="YqBTJiR8Vr2jeuTM6Ofv-17">
          <mxGeometry width="40" height="20" as="geometry">
            <mxRectangle width="40" height="20" as="alternateBounds" />
          </mxGeometry>
        </mxCell>
        <mxCell id="YqBTJiR8Vr2jeuTM6Ofv-19" value="" style="shape=tableRow;horizontal=0;startSize=0;swimlaneHead=0;swimlaneBody=0;top=0;left=0;bottom=0;right=0;dropTarget=0;collapsible=0;recursiveResize=0;expand=0;fontStyle=1;strokeColor=inherit;fillColor=#EAF2D3;" vertex="1" parent="YqBTJiR8Vr2jeuTM6Ofv-16">
          <mxGeometry y="20" width="40" height="20" as="geometry" />
        </mxCell>
        <mxCell id="YqBTJiR8Vr2jeuTM6Ofv-20" value="data" style="connectable=0;recursiveResize=0;strokeColor=inherit;fillColor=inherit;whiteSpace=wrap;html=1;" vertex="1" parent="YqBTJiR8Vr2jeuTM6Ofv-19">
          <mxGeometry width="40" height="20" as="geometry">
            <mxRectangle width="40" height="20" as="alternateBounds" />
          </mxGeometry>
        </mxCell>
        <mxCell id="YqBTJiR8Vr2jeuTM6Ofv-162" style="edgeStyle=none;shape=connector;rounded=0;orthogonalLoop=1;jettySize=auto;html=1;exitX=1;exitY=1;exitDx=0;exitDy=0;entryX=0.5;entryY=0;entryDx=0;entryDy=0;labelBackgroundColor=default;strokeColor=#d79b00;align=center;verticalAlign=middle;fontFamily=Helvetica;fontSize=11;fontColor=default;endArrow=classic;fillColor=#ffe6cc;" edge="1" parent="1" source="YqBTJiR8Vr2jeuTM6Ofv-11" target="YqBTJiR8Vr2jeuTM6Ofv-137">
          <mxGeometry relative="1" as="geometry" />
        </mxCell>
        <mxCell id="YqBTJiR8Vr2jeuTM6Ofv-11" value="Assets" style="childLayout=tableLayout;recursiveResize=0;strokeColor=#98bf21;fillColor=#A7C942;shadow=1;" vertex="1" parent="1">
          <mxGeometry x="240" y="1280" width="40" height="40" as="geometry" />
        </mxCell>
        <mxCell id="YqBTJiR8Vr2jeuTM6Ofv-12" style="shape=tableRow;horizontal=0;startSize=0;swimlaneHead=0;swimlaneBody=0;top=0;left=0;bottom=0;right=0;dropTarget=0;collapsible=0;recursiveResize=0;expand=0;fontStyle=0;strokeColor=inherit;fillColor=#ffffff;" vertex="1" parent="YqBTJiR8Vr2jeuTM6Ofv-11">
          <mxGeometry width="40" height="20" as="geometry" />
        </mxCell>
        <mxCell id="YqBTJiR8Vr2jeuTM6Ofv-13" value="46" style="connectable=0;recursiveResize=0;strokeColor=inherit;fillColor=#A7C942;align=center;fontStyle=1;fontColor=#FFFFFF;html=1;" vertex="1" parent="YqBTJiR8Vr2jeuTM6Ofv-12">
          <mxGeometry width="40" height="20" as="geometry">
            <mxRectangle width="40" height="20" as="alternateBounds" />
          </mxGeometry>
        </mxCell>
        <mxCell id="YqBTJiR8Vr2jeuTM6Ofv-14" value="" style="shape=tableRow;horizontal=0;startSize=0;swimlaneHead=0;swimlaneBody=0;top=0;left=0;bottom=0;right=0;dropTarget=0;collapsible=0;recursiveResize=0;expand=0;fontStyle=1;strokeColor=inherit;fillColor=#EAF2D3;" vertex="1" parent="YqBTJiR8Vr2jeuTM6Ofv-11">
          <mxGeometry y="20" width="40" height="20" as="geometry" />
        </mxCell>
        <mxCell id="YqBTJiR8Vr2jeuTM6Ofv-15" value="data" style="connectable=0;recursiveResize=0;strokeColor=inherit;fillColor=inherit;whiteSpace=wrap;html=1;" vertex="1" parent="YqBTJiR8Vr2jeuTM6Ofv-14">
          <mxGeometry width="40" height="20" as="geometry">
            <mxRectangle width="40" height="20" as="alternateBounds" />
          </mxGeometry>
        </mxCell>
        <mxCell id="YqBTJiR8Vr2jeuTM6Ofv-165" style="edgeStyle=none;shape=connector;rounded=0;orthogonalLoop=1;jettySize=auto;html=1;exitX=0;exitY=1;exitDx=0;exitDy=0;entryX=1;entryY=0;entryDx=0;entryDy=0;labelBackgroundColor=default;strokeColor=#d79b00;align=center;verticalAlign=middle;fontFamily=Helvetica;fontSize=11;fontColor=default;endArrow=classic;fillColor=#ffe6cc;" edge="1" parent="1" source="YqBTJiR8Vr2jeuTM6Ofv-21" target="YqBTJiR8Vr2jeuTM6Ofv-87">
          <mxGeometry relative="1" as="geometry" />
        </mxCell>
        <mxCell id="YqBTJiR8Vr2jeuTM6Ofv-166" style="edgeStyle=none;shape=connector;rounded=0;orthogonalLoop=1;jettySize=auto;html=1;exitX=1;exitY=1;exitDx=0;exitDy=0;entryX=1;entryY=0;entryDx=0;entryDy=0;labelBackgroundColor=default;strokeColor=#d79b00;align=center;verticalAlign=middle;fontFamily=Helvetica;fontSize=11;fontColor=default;endArrow=classic;fillColor=#ffe6cc;" edge="1" parent="1" source="YqBTJiR8Vr2jeuTM6Ofv-21" target="YqBTJiR8Vr2jeuTM6Ofv-97">
          <mxGeometry relative="1" as="geometry" />
        </mxCell>
        <mxCell id="YqBTJiR8Vr2jeuTM6Ofv-21" value="Assets" style="childLayout=tableLayout;recursiveResize=0;strokeColor=#98bf21;fillColor=#A7C942;shadow=1;" vertex="1" parent="1">
          <mxGeometry x="400" y="1280" width="40" height="40" as="geometry" />
        </mxCell>
        <mxCell id="YqBTJiR8Vr2jeuTM6Ofv-22" style="shape=tableRow;horizontal=0;startSize=0;swimlaneHead=0;swimlaneBody=0;top=0;left=0;bottom=0;right=0;dropTarget=0;collapsible=0;recursiveResize=0;expand=0;fontStyle=0;strokeColor=inherit;fillColor=#ffffff;" vertex="1" parent="YqBTJiR8Vr2jeuTM6Ofv-21">
          <mxGeometry width="40" height="20" as="geometry" />
        </mxCell>
        <mxCell id="YqBTJiR8Vr2jeuTM6Ofv-23" value="350" style="connectable=0;recursiveResize=0;strokeColor=inherit;fillColor=#A7C942;align=center;fontStyle=1;fontColor=#FFFFFF;html=1;" vertex="1" parent="YqBTJiR8Vr2jeuTM6Ofv-22">
          <mxGeometry width="40" height="20" as="geometry">
            <mxRectangle width="40" height="20" as="alternateBounds" />
          </mxGeometry>
        </mxCell>
        <mxCell id="YqBTJiR8Vr2jeuTM6Ofv-24" value="" style="shape=tableRow;horizontal=0;startSize=0;swimlaneHead=0;swimlaneBody=0;top=0;left=0;bottom=0;right=0;dropTarget=0;collapsible=0;recursiveResize=0;expand=0;fontStyle=1;strokeColor=inherit;fillColor=#EAF2D3;" vertex="1" parent="YqBTJiR8Vr2jeuTM6Ofv-21">
          <mxGeometry y="20" width="40" height="20" as="geometry" />
        </mxCell>
        <mxCell id="YqBTJiR8Vr2jeuTM6Ofv-25" value="data" style="connectable=0;recursiveResize=0;strokeColor=inherit;fillColor=inherit;whiteSpace=wrap;html=1;" vertex="1" parent="YqBTJiR8Vr2jeuTM6Ofv-24">
          <mxGeometry width="40" height="20" as="geometry">
            <mxRectangle width="40" height="20" as="alternateBounds" />
          </mxGeometry>
        </mxCell>
        <mxCell id="YqBTJiR8Vr2jeuTM6Ofv-164" style="edgeStyle=none;shape=connector;rounded=0;orthogonalLoop=1;jettySize=auto;html=1;exitX=0;exitY=1;exitDx=0;exitDy=0;entryX=1;entryY=0;entryDx=0;entryDy=0;labelBackgroundColor=default;strokeColor=#d79b00;align=center;verticalAlign=middle;fontFamily=Helvetica;fontSize=11;fontColor=default;endArrow=classic;fillColor=#ffe6cc;" edge="1" parent="1" source="YqBTJiR8Vr2jeuTM6Ofv-26" target="YqBTJiR8Vr2jeuTM6Ofv-157">
          <mxGeometry relative="1" as="geometry" />
        </mxCell>
        <mxCell id="YqBTJiR8Vr2jeuTM6Ofv-26" value="Assets" style="childLayout=tableLayout;recursiveResize=0;strokeColor=#98bf21;fillColor=#A7C942;shadow=1;" vertex="1" parent="1">
          <mxGeometry x="360" y="1280" width="40" height="40" as="geometry" />
        </mxCell>
        <mxCell id="YqBTJiR8Vr2jeuTM6Ofv-27" style="shape=tableRow;horizontal=0;startSize=0;swimlaneHead=0;swimlaneBody=0;top=0;left=0;bottom=0;right=0;dropTarget=0;collapsible=0;recursiveResize=0;expand=0;fontStyle=0;strokeColor=inherit;fillColor=#ffffff;" vertex="1" parent="YqBTJiR8Vr2jeuTM6Ofv-26">
          <mxGeometry width="40" height="20" as="geometry" />
        </mxCell>
        <mxCell id="YqBTJiR8Vr2jeuTM6Ofv-28" value="320" style="connectable=0;recursiveResize=0;strokeColor=inherit;fillColor=#A7C942;align=center;fontStyle=1;fontColor=#FFFFFF;html=1;" vertex="1" parent="YqBTJiR8Vr2jeuTM6Ofv-27">
          <mxGeometry width="40" height="20" as="geometry">
            <mxRectangle width="40" height="20" as="alternateBounds" />
          </mxGeometry>
        </mxCell>
        <mxCell id="YqBTJiR8Vr2jeuTM6Ofv-29" value="" style="shape=tableRow;horizontal=0;startSize=0;swimlaneHead=0;swimlaneBody=0;top=0;left=0;bottom=0;right=0;dropTarget=0;collapsible=0;recursiveResize=0;expand=0;fontStyle=1;strokeColor=inherit;fillColor=#EAF2D3;" vertex="1" parent="YqBTJiR8Vr2jeuTM6Ofv-26">
          <mxGeometry y="20" width="40" height="20" as="geometry" />
        </mxCell>
        <mxCell id="YqBTJiR8Vr2jeuTM6Ofv-30" value="data" style="connectable=0;recursiveResize=0;strokeColor=inherit;fillColor=inherit;whiteSpace=wrap;html=1;" vertex="1" parent="YqBTJiR8Vr2jeuTM6Ofv-29">
          <mxGeometry width="40" height="20" as="geometry">
            <mxRectangle width="40" height="20" as="alternateBounds" />
          </mxGeometry>
        </mxCell>
        <mxCell id="YqBTJiR8Vr2jeuTM6Ofv-81" value="Assets" style="childLayout=tableLayout;recursiveResize=0;strokeColor=#98bf21;fillColor=#A7C942;shadow=1;" vertex="1" parent="1">
          <mxGeometry x="560" y="1360" width="40" height="40" as="geometry" />
        </mxCell>
        <mxCell id="YqBTJiR8Vr2jeuTM6Ofv-82" style="shape=tableRow;horizontal=0;startSize=0;swimlaneHead=0;swimlaneBody=0;top=0;left=0;bottom=0;right=0;dropTarget=0;collapsible=0;recursiveResize=0;expand=0;fontStyle=0;strokeColor=inherit;fillColor=#ffffff;" vertex="1" parent="YqBTJiR8Vr2jeuTM6Ofv-81">
          <mxGeometry width="40" height="20" as="geometry" />
        </mxCell>
        <mxCell id="YqBTJiR8Vr2jeuTM6Ofv-83" value="330" style="connectable=0;recursiveResize=0;strokeColor=inherit;fillColor=#A7C942;align=center;fontStyle=1;fontColor=#FFFFFF;html=1;" vertex="1" parent="YqBTJiR8Vr2jeuTM6Ofv-82">
          <mxGeometry width="40" height="20" as="geometry">
            <mxRectangle width="40" height="20" as="alternateBounds" />
          </mxGeometry>
        </mxCell>
        <mxCell id="YqBTJiR8Vr2jeuTM6Ofv-84" value="" style="shape=tableRow;horizontal=0;startSize=0;swimlaneHead=0;swimlaneBody=0;top=0;left=0;bottom=0;right=0;dropTarget=0;collapsible=0;recursiveResize=0;expand=0;fontStyle=1;strokeColor=inherit;fillColor=#EAF2D3;" vertex="1" parent="YqBTJiR8Vr2jeuTM6Ofv-81">
          <mxGeometry y="20" width="40" height="20" as="geometry" />
        </mxCell>
        <mxCell id="YqBTJiR8Vr2jeuTM6Ofv-85" value="data" style="connectable=0;recursiveResize=0;strokeColor=inherit;fillColor=inherit;whiteSpace=wrap;html=1;" vertex="1" parent="YqBTJiR8Vr2jeuTM6Ofv-84">
          <mxGeometry width="40" height="20" as="geometry">
            <mxRectangle width="40" height="20" as="alternateBounds" />
          </mxGeometry>
        </mxCell>
        <mxCell id="YqBTJiR8Vr2jeuTM6Ofv-86" value="Assets" style="childLayout=tableLayout;recursiveResize=0;strokeColor=#98bf21;fillColor=#A7C942;shadow=1;" vertex="1" parent="1">
          <mxGeometry x="520" y="1360" width="40" height="40" as="geometry" />
        </mxCell>
        <mxCell id="YqBTJiR8Vr2jeuTM6Ofv-87" style="shape=tableRow;horizontal=0;startSize=0;swimlaneHead=0;swimlaneBody=0;top=0;left=0;bottom=0;right=0;dropTarget=0;collapsible=0;recursiveResize=0;expand=0;fontStyle=0;strokeColor=inherit;fillColor=#ffffff;" vertex="1" parent="YqBTJiR8Vr2jeuTM6Ofv-86">
          <mxGeometry width="40" height="20" as="geometry" />
        </mxCell>
        <mxCell id="YqBTJiR8Vr2jeuTM6Ofv-88" value="325" style="connectable=0;recursiveResize=0;strokeColor=inherit;fillColor=#A7C942;align=center;fontStyle=1;fontColor=#FFFFFF;html=1;" vertex="1" parent="YqBTJiR8Vr2jeuTM6Ofv-87">
          <mxGeometry width="40" height="20" as="geometry">
            <mxRectangle width="40" height="20" as="alternateBounds" />
          </mxGeometry>
        </mxCell>
        <mxCell id="YqBTJiR8Vr2jeuTM6Ofv-89" value="" style="shape=tableRow;horizontal=0;startSize=0;swimlaneHead=0;swimlaneBody=0;top=0;left=0;bottom=0;right=0;dropTarget=0;collapsible=0;recursiveResize=0;expand=0;fontStyle=1;strokeColor=inherit;fillColor=#EAF2D3;" vertex="1" parent="YqBTJiR8Vr2jeuTM6Ofv-86">
          <mxGeometry y="20" width="40" height="20" as="geometry" />
        </mxCell>
        <mxCell id="YqBTJiR8Vr2jeuTM6Ofv-90" value="data" style="connectable=0;recursiveResize=0;strokeColor=inherit;fillColor=inherit;whiteSpace=wrap;html=1;" vertex="1" parent="YqBTJiR8Vr2jeuTM6Ofv-89">
          <mxGeometry width="40" height="20" as="geometry">
            <mxRectangle width="40" height="20" as="alternateBounds" />
          </mxGeometry>
        </mxCell>
        <mxCell id="YqBTJiR8Vr2jeuTM6Ofv-91" value="Assets" style="childLayout=tableLayout;recursiveResize=0;strokeColor=#98bf21;fillColor=#A7C942;shadow=1;" vertex="1" parent="1">
          <mxGeometry x="680" y="1360" width="40" height="40" as="geometry" />
        </mxCell>
        <mxCell id="YqBTJiR8Vr2jeuTM6Ofv-92" style="shape=tableRow;horizontal=0;startSize=0;swimlaneHead=0;swimlaneBody=0;top=0;left=0;bottom=0;right=0;dropTarget=0;collapsible=0;recursiveResize=0;expand=0;fontStyle=0;strokeColor=inherit;fillColor=#ffffff;" vertex="1" parent="YqBTJiR8Vr2jeuTM6Ofv-91">
          <mxGeometry width="40" height="20" as="geometry" />
        </mxCell>
        <mxCell id="YqBTJiR8Vr2jeuTM6Ofv-93" value="450" style="connectable=0;recursiveResize=0;strokeColor=inherit;fillColor=#A7C942;align=center;fontStyle=1;fontColor=#FFFFFF;html=1;" vertex="1" parent="YqBTJiR8Vr2jeuTM6Ofv-92">
          <mxGeometry width="40" height="20" as="geometry">
            <mxRectangle width="40" height="20" as="alternateBounds" />
          </mxGeometry>
        </mxCell>
        <mxCell id="YqBTJiR8Vr2jeuTM6Ofv-94" value="" style="shape=tableRow;horizontal=0;startSize=0;swimlaneHead=0;swimlaneBody=0;top=0;left=0;bottom=0;right=0;dropTarget=0;collapsible=0;recursiveResize=0;expand=0;fontStyle=1;strokeColor=inherit;fillColor=#EAF2D3;" vertex="1" parent="YqBTJiR8Vr2jeuTM6Ofv-91">
          <mxGeometry y="20" width="40" height="20" as="geometry" />
        </mxCell>
        <mxCell id="YqBTJiR8Vr2jeuTM6Ofv-95" value="data" style="connectable=0;recursiveResize=0;strokeColor=inherit;fillColor=inherit;whiteSpace=wrap;html=1;" vertex="1" parent="YqBTJiR8Vr2jeuTM6Ofv-94">
          <mxGeometry width="40" height="20" as="geometry">
            <mxRectangle width="40" height="20" as="alternateBounds" />
          </mxGeometry>
        </mxCell>
        <mxCell id="YqBTJiR8Vr2jeuTM6Ofv-96" value="Assets" style="childLayout=tableLayout;recursiveResize=0;strokeColor=#98bf21;fillColor=#A7C942;shadow=1;" vertex="1" parent="1">
          <mxGeometry x="640" y="1360" width="40" height="40" as="geometry" />
        </mxCell>
        <mxCell id="YqBTJiR8Vr2jeuTM6Ofv-97" style="shape=tableRow;horizontal=0;startSize=0;swimlaneHead=0;swimlaneBody=0;top=0;left=0;bottom=0;right=0;dropTarget=0;collapsible=0;recursiveResize=0;expand=0;fontStyle=0;strokeColor=inherit;fillColor=#ffffff;" vertex="1" parent="YqBTJiR8Vr2jeuTM6Ofv-96">
          <mxGeometry width="40" height="20" as="geometry" />
        </mxCell>
        <mxCell id="YqBTJiR8Vr2jeuTM6Ofv-98" value="400" style="connectable=0;recursiveResize=0;strokeColor=inherit;fillColor=#A7C942;align=center;fontStyle=1;fontColor=#FFFFFF;html=1;" vertex="1" parent="YqBTJiR8Vr2jeuTM6Ofv-97">
          <mxGeometry width="40" height="20" as="geometry">
            <mxRectangle width="40" height="20" as="alternateBounds" />
          </mxGeometry>
        </mxCell>
        <mxCell id="YqBTJiR8Vr2jeuTM6Ofv-99" value="" style="shape=tableRow;horizontal=0;startSize=0;swimlaneHead=0;swimlaneBody=0;top=0;left=0;bottom=0;right=0;dropTarget=0;collapsible=0;recursiveResize=0;expand=0;fontStyle=1;strokeColor=inherit;fillColor=#EAF2D3;" vertex="1" parent="YqBTJiR8Vr2jeuTM6Ofv-96">
          <mxGeometry y="20" width="40" height="20" as="geometry" />
        </mxCell>
        <mxCell id="YqBTJiR8Vr2jeuTM6Ofv-100" value="data" style="connectable=0;recursiveResize=0;strokeColor=inherit;fillColor=inherit;whiteSpace=wrap;html=1;" vertex="1" parent="YqBTJiR8Vr2jeuTM6Ofv-99">
          <mxGeometry width="40" height="20" as="geometry">
            <mxRectangle width="40" height="20" as="alternateBounds" />
          </mxGeometry>
        </mxCell>
        <mxCell id="YqBTJiR8Vr2jeuTM6Ofv-121" value="Assets" style="childLayout=tableLayout;recursiveResize=0;strokeColor=#98bf21;fillColor=#A7C942;shadow=1;" vertex="1" parent="1">
          <mxGeometry x="40" y="1360" width="40" height="40" as="geometry" />
        </mxCell>
        <mxCell id="YqBTJiR8Vr2jeuTM6Ofv-122" style="shape=tableRow;horizontal=0;startSize=0;swimlaneHead=0;swimlaneBody=0;top=0;left=0;bottom=0;right=0;dropTarget=0;collapsible=0;recursiveResize=0;expand=0;fontStyle=0;strokeColor=inherit;fillColor=#ffffff;" vertex="1" parent="YqBTJiR8Vr2jeuTM6Ofv-121">
          <mxGeometry width="40" height="20" as="geometry" />
        </mxCell>
        <mxCell id="YqBTJiR8Vr2jeuTM6Ofv-123" value="40" style="connectable=0;recursiveResize=0;strokeColor=inherit;fillColor=#A7C942;align=center;fontStyle=1;fontColor=#FFFFFF;html=1;" vertex="1" parent="YqBTJiR8Vr2jeuTM6Ofv-122">
          <mxGeometry width="40" height="20" as="geometry">
            <mxRectangle width="40" height="20" as="alternateBounds" />
          </mxGeometry>
        </mxCell>
        <mxCell id="YqBTJiR8Vr2jeuTM6Ofv-124" value="" style="shape=tableRow;horizontal=0;startSize=0;swimlaneHead=0;swimlaneBody=0;top=0;left=0;bottom=0;right=0;dropTarget=0;collapsible=0;recursiveResize=0;expand=0;fontStyle=1;strokeColor=inherit;fillColor=#EAF2D3;" vertex="1" parent="YqBTJiR8Vr2jeuTM6Ofv-121">
          <mxGeometry y="20" width="40" height="20" as="geometry" />
        </mxCell>
        <mxCell id="YqBTJiR8Vr2jeuTM6Ofv-125" value="data" style="connectable=0;recursiveResize=0;strokeColor=inherit;fillColor=inherit;whiteSpace=wrap;html=1;" vertex="1" parent="YqBTJiR8Vr2jeuTM6Ofv-124">
          <mxGeometry width="40" height="20" as="geometry">
            <mxRectangle width="40" height="20" as="alternateBounds" />
          </mxGeometry>
        </mxCell>
        <mxCell id="YqBTJiR8Vr2jeuTM6Ofv-126" value="Assets" style="childLayout=tableLayout;recursiveResize=0;strokeColor=#98bf21;fillColor=#A7C942;shadow=1;" vertex="1" parent="1">
          <mxGeometry y="1360" width="40" height="40" as="geometry" />
        </mxCell>
        <mxCell id="YqBTJiR8Vr2jeuTM6Ofv-127" style="shape=tableRow;horizontal=0;startSize=0;swimlaneHead=0;swimlaneBody=0;top=0;left=0;bottom=0;right=0;dropTarget=0;collapsible=0;recursiveResize=0;expand=0;fontStyle=0;strokeColor=inherit;fillColor=#ffffff;" vertex="1" parent="YqBTJiR8Vr2jeuTM6Ofv-126">
          <mxGeometry width="40" height="20" as="geometry" />
        </mxCell>
        <mxCell id="YqBTJiR8Vr2jeuTM6Ofv-128" value="30" style="connectable=0;recursiveResize=0;strokeColor=inherit;fillColor=#A7C942;align=center;fontStyle=1;fontColor=#FFFFFF;html=1;" vertex="1" parent="YqBTJiR8Vr2jeuTM6Ofv-127">
          <mxGeometry width="40" height="20" as="geometry">
            <mxRectangle width="40" height="20" as="alternateBounds" />
          </mxGeometry>
        </mxCell>
        <mxCell id="YqBTJiR8Vr2jeuTM6Ofv-129" value="" style="shape=tableRow;horizontal=0;startSize=0;swimlaneHead=0;swimlaneBody=0;top=0;left=0;bottom=0;right=0;dropTarget=0;collapsible=0;recursiveResize=0;expand=0;fontStyle=1;strokeColor=inherit;fillColor=#EAF2D3;" vertex="1" parent="YqBTJiR8Vr2jeuTM6Ofv-126">
          <mxGeometry y="20" width="40" height="20" as="geometry" />
        </mxCell>
        <mxCell id="YqBTJiR8Vr2jeuTM6Ofv-130" value="data" style="connectable=0;recursiveResize=0;strokeColor=inherit;fillColor=inherit;whiteSpace=wrap;html=1;" vertex="1" parent="YqBTJiR8Vr2jeuTM6Ofv-129">
          <mxGeometry width="40" height="20" as="geometry">
            <mxRectangle width="40" height="20" as="alternateBounds" />
          </mxGeometry>
        </mxCell>
        <mxCell id="YqBTJiR8Vr2jeuTM6Ofv-131" value="Assets" style="childLayout=tableLayout;recursiveResize=0;strokeColor=#98bf21;fillColor=#A7C942;shadow=1;" vertex="1" parent="1">
          <mxGeometry x="200" y="1360" width="40" height="40" as="geometry" />
        </mxCell>
        <mxCell id="YqBTJiR8Vr2jeuTM6Ofv-132" style="shape=tableRow;horizontal=0;startSize=0;swimlaneHead=0;swimlaneBody=0;top=0;left=0;bottom=0;right=0;dropTarget=0;collapsible=0;recursiveResize=0;expand=0;fontStyle=0;strokeColor=inherit;fillColor=#ffffff;" vertex="1" parent="YqBTJiR8Vr2jeuTM6Ofv-131">
          <mxGeometry width="40" height="20" as="geometry" />
        </mxCell>
        <mxCell id="YqBTJiR8Vr2jeuTM6Ofv-133" value="80" style="connectable=0;recursiveResize=0;strokeColor=inherit;fillColor=#A7C942;align=center;fontStyle=1;fontColor=#FFFFFF;html=1;" vertex="1" parent="YqBTJiR8Vr2jeuTM6Ofv-132">
          <mxGeometry width="40" height="20" as="geometry">
            <mxRectangle width="40" height="20" as="alternateBounds" />
          </mxGeometry>
        </mxCell>
        <mxCell id="YqBTJiR8Vr2jeuTM6Ofv-134" value="" style="shape=tableRow;horizontal=0;startSize=0;swimlaneHead=0;swimlaneBody=0;top=0;left=0;bottom=0;right=0;dropTarget=0;collapsible=0;recursiveResize=0;expand=0;fontStyle=1;strokeColor=inherit;fillColor=#EAF2D3;" vertex="1" parent="YqBTJiR8Vr2jeuTM6Ofv-131">
          <mxGeometry y="20" width="40" height="20" as="geometry" />
        </mxCell>
        <mxCell id="YqBTJiR8Vr2jeuTM6Ofv-135" value="data" style="connectable=0;recursiveResize=0;strokeColor=inherit;fillColor=inherit;whiteSpace=wrap;html=1;" vertex="1" parent="YqBTJiR8Vr2jeuTM6Ofv-134">
          <mxGeometry width="40" height="20" as="geometry">
            <mxRectangle width="40" height="20" as="alternateBounds" />
          </mxGeometry>
        </mxCell>
        <mxCell id="YqBTJiR8Vr2jeuTM6Ofv-136" value="Assets" style="childLayout=tableLayout;recursiveResize=0;strokeColor=#98bf21;fillColor=#A7C942;shadow=1;" vertex="1" parent="1">
          <mxGeometry x="160" y="1360" width="40" height="40" as="geometry" />
        </mxCell>
        <mxCell id="YqBTJiR8Vr2jeuTM6Ofv-137" style="shape=tableRow;horizontal=0;startSize=0;swimlaneHead=0;swimlaneBody=0;top=0;left=0;bottom=0;right=0;dropTarget=0;collapsible=0;recursiveResize=0;expand=0;fontStyle=0;strokeColor=inherit;fillColor=#ffffff;" vertex="1" parent="YqBTJiR8Vr2jeuTM6Ofv-136">
          <mxGeometry width="40" height="20" as="geometry" />
        </mxCell>
        <mxCell id="YqBTJiR8Vr2jeuTM6Ofv-138" value="70" style="connectable=0;recursiveResize=0;strokeColor=inherit;fillColor=#A7C942;align=center;fontStyle=1;fontColor=#FFFFFF;html=1;" vertex="1" parent="YqBTJiR8Vr2jeuTM6Ofv-137">
          <mxGeometry width="40" height="20" as="geometry">
            <mxRectangle width="40" height="20" as="alternateBounds" />
          </mxGeometry>
        </mxCell>
        <mxCell id="YqBTJiR8Vr2jeuTM6Ofv-139" value="" style="shape=tableRow;horizontal=0;startSize=0;swimlaneHead=0;swimlaneBody=0;top=0;left=0;bottom=0;right=0;dropTarget=0;collapsible=0;recursiveResize=0;expand=0;fontStyle=1;strokeColor=inherit;fillColor=#EAF2D3;" vertex="1" parent="YqBTJiR8Vr2jeuTM6Ofv-136">
          <mxGeometry y="20" width="40" height="20" as="geometry" />
        </mxCell>
        <mxCell id="YqBTJiR8Vr2jeuTM6Ofv-140" value="data" style="connectable=0;recursiveResize=0;strokeColor=inherit;fillColor=inherit;whiteSpace=wrap;html=1;" vertex="1" parent="YqBTJiR8Vr2jeuTM6Ofv-139">
          <mxGeometry width="40" height="20" as="geometry">
            <mxRectangle width="40" height="20" as="alternateBounds" />
          </mxGeometry>
        </mxCell>
        <mxCell id="YqBTJiR8Vr2jeuTM6Ofv-141" value="Assets" style="childLayout=tableLayout;recursiveResize=0;strokeColor=#98bf21;fillColor=#A7C942;shadow=1;" vertex="1" parent="1">
          <mxGeometry x="320" y="1360" width="40" height="40" as="geometry" />
        </mxCell>
        <mxCell id="YqBTJiR8Vr2jeuTM6Ofv-142" style="shape=tableRow;horizontal=0;startSize=0;swimlaneHead=0;swimlaneBody=0;top=0;left=0;bottom=0;right=0;dropTarget=0;collapsible=0;recursiveResize=0;expand=0;fontStyle=0;strokeColor=inherit;fillColor=#ffffff;" vertex="1" parent="YqBTJiR8Vr2jeuTM6Ofv-141">
          <mxGeometry width="40" height="20" as="geometry" />
        </mxCell>
        <mxCell id="YqBTJiR8Vr2jeuTM6Ofv-143" value="120" style="connectable=0;recursiveResize=0;strokeColor=inherit;fillColor=#A7C942;align=center;fontStyle=1;fontColor=#FFFFFF;html=1;" vertex="1" parent="YqBTJiR8Vr2jeuTM6Ofv-142">
          <mxGeometry width="40" height="20" as="geometry">
            <mxRectangle width="40" height="20" as="alternateBounds" />
          </mxGeometry>
        </mxCell>
        <mxCell id="YqBTJiR8Vr2jeuTM6Ofv-144" value="" style="shape=tableRow;horizontal=0;startSize=0;swimlaneHead=0;swimlaneBody=0;top=0;left=0;bottom=0;right=0;dropTarget=0;collapsible=0;recursiveResize=0;expand=0;fontStyle=1;strokeColor=inherit;fillColor=#EAF2D3;" vertex="1" parent="YqBTJiR8Vr2jeuTM6Ofv-141">
          <mxGeometry y="20" width="40" height="20" as="geometry" />
        </mxCell>
        <mxCell id="YqBTJiR8Vr2jeuTM6Ofv-145" value="data" style="connectable=0;recursiveResize=0;strokeColor=inherit;fillColor=inherit;whiteSpace=wrap;html=1;" vertex="1" parent="YqBTJiR8Vr2jeuTM6Ofv-144">
          <mxGeometry width="40" height="20" as="geometry">
            <mxRectangle width="40" height="20" as="alternateBounds" />
          </mxGeometry>
        </mxCell>
        <mxCell id="YqBTJiR8Vr2jeuTM6Ofv-146" value="Assets" style="childLayout=tableLayout;recursiveResize=0;strokeColor=#98bf21;fillColor=#A7C942;shadow=1;" vertex="1" parent="1">
          <mxGeometry x="280" y="1360" width="40" height="40" as="geometry" />
        </mxCell>
        <mxCell id="YqBTJiR8Vr2jeuTM6Ofv-147" style="shape=tableRow;horizontal=0;startSize=0;swimlaneHead=0;swimlaneBody=0;top=0;left=0;bottom=0;right=0;dropTarget=0;collapsible=0;recursiveResize=0;expand=0;fontStyle=0;strokeColor=inherit;fillColor=#ffffff;" vertex="1" parent="YqBTJiR8Vr2jeuTM6Ofv-146">
          <mxGeometry width="40" height="20" as="geometry" />
        </mxCell>
        <mxCell id="YqBTJiR8Vr2jeuTM6Ofv-148" value="100" style="connectable=0;recursiveResize=0;strokeColor=inherit;fillColor=#A7C942;align=center;fontStyle=1;fontColor=#FFFFFF;html=1;" vertex="1" parent="YqBTJiR8Vr2jeuTM6Ofv-147">
          <mxGeometry width="40" height="20" as="geometry">
            <mxRectangle width="40" height="20" as="alternateBounds" />
          </mxGeometry>
        </mxCell>
        <mxCell id="YqBTJiR8Vr2jeuTM6Ofv-149" value="" style="shape=tableRow;horizontal=0;startSize=0;swimlaneHead=0;swimlaneBody=0;top=0;left=0;bottom=0;right=0;dropTarget=0;collapsible=0;recursiveResize=0;expand=0;fontStyle=1;strokeColor=inherit;fillColor=#EAF2D3;" vertex="1" parent="YqBTJiR8Vr2jeuTM6Ofv-146">
          <mxGeometry y="20" width="40" height="20" as="geometry" />
        </mxCell>
        <mxCell id="YqBTJiR8Vr2jeuTM6Ofv-150" value="data" style="connectable=0;recursiveResize=0;strokeColor=inherit;fillColor=inherit;whiteSpace=wrap;html=1;" vertex="1" parent="YqBTJiR8Vr2jeuTM6Ofv-149">
          <mxGeometry width="40" height="20" as="geometry">
            <mxRectangle width="40" height="20" as="alternateBounds" />
          </mxGeometry>
        </mxCell>
        <mxCell id="YqBTJiR8Vr2jeuTM6Ofv-151" value="Assets" style="childLayout=tableLayout;recursiveResize=0;strokeColor=#98bf21;fillColor=#A7C942;shadow=1;" vertex="1" parent="1">
          <mxGeometry x="440" y="1360" width="40" height="40" as="geometry" />
        </mxCell>
        <mxCell id="YqBTJiR8Vr2jeuTM6Ofv-152" style="shape=tableRow;horizontal=0;startSize=0;swimlaneHead=0;swimlaneBody=0;top=0;left=0;bottom=0;right=0;dropTarget=0;collapsible=0;recursiveResize=0;expand=0;fontStyle=0;strokeColor=inherit;fillColor=#ffffff;" vertex="1" parent="YqBTJiR8Vr2jeuTM6Ofv-151">
          <mxGeometry width="40" height="20" as="geometry" />
        </mxCell>
        <mxCell id="YqBTJiR8Vr2jeuTM6Ofv-153" value="300" style="connectable=0;recursiveResize=0;strokeColor=inherit;fillColor=#A7C942;align=center;fontStyle=1;fontColor=#FFFFFF;html=1;" vertex="1" parent="YqBTJiR8Vr2jeuTM6Ofv-152">
          <mxGeometry width="40" height="20" as="geometry">
            <mxRectangle width="40" height="20" as="alternateBounds" />
          </mxGeometry>
        </mxCell>
        <mxCell id="YqBTJiR8Vr2jeuTM6Ofv-154" value="" style="shape=tableRow;horizontal=0;startSize=0;swimlaneHead=0;swimlaneBody=0;top=0;left=0;bottom=0;right=0;dropTarget=0;collapsible=0;recursiveResize=0;expand=0;fontStyle=1;strokeColor=inherit;fillColor=#EAF2D3;" vertex="1" parent="YqBTJiR8Vr2jeuTM6Ofv-151">
          <mxGeometry y="20" width="40" height="20" as="geometry" />
        </mxCell>
        <mxCell id="YqBTJiR8Vr2jeuTM6Ofv-155" value="data" style="connectable=0;recursiveResize=0;strokeColor=inherit;fillColor=inherit;whiteSpace=wrap;html=1;" vertex="1" parent="YqBTJiR8Vr2jeuTM6Ofv-154">
          <mxGeometry width="40" height="20" as="geometry">
            <mxRectangle width="40" height="20" as="alternateBounds" />
          </mxGeometry>
        </mxCell>
        <mxCell id="YqBTJiR8Vr2jeuTM6Ofv-156" value="Assets" style="childLayout=tableLayout;recursiveResize=0;strokeColor=#98bf21;fillColor=#A7C942;shadow=1;" vertex="1" parent="1">
          <mxGeometry x="400" y="1360" width="40" height="40" as="geometry" />
        </mxCell>
        <mxCell id="YqBTJiR8Vr2jeuTM6Ofv-157" style="shape=tableRow;horizontal=0;startSize=0;swimlaneHead=0;swimlaneBody=0;top=0;left=0;bottom=0;right=0;dropTarget=0;collapsible=0;recursiveResize=0;expand=0;fontStyle=0;strokeColor=inherit;fillColor=#ffffff;" vertex="1" parent="YqBTJiR8Vr2jeuTM6Ofv-156">
          <mxGeometry width="40" height="20" as="geometry" />
        </mxCell>
        <mxCell id="YqBTJiR8Vr2jeuTM6Ofv-158" value="200" style="connectable=0;recursiveResize=0;strokeColor=inherit;fillColor=#A7C942;align=center;fontStyle=1;fontColor=#FFFFFF;html=1;" vertex="1" parent="YqBTJiR8Vr2jeuTM6Ofv-157">
          <mxGeometry width="40" height="20" as="geometry">
            <mxRectangle width="40" height="20" as="alternateBounds" />
          </mxGeometry>
        </mxCell>
        <mxCell id="YqBTJiR8Vr2jeuTM6Ofv-159" value="" style="shape=tableRow;horizontal=0;startSize=0;swimlaneHead=0;swimlaneBody=0;top=0;left=0;bottom=0;right=0;dropTarget=0;collapsible=0;recursiveResize=0;expand=0;fontStyle=1;strokeColor=inherit;fillColor=#EAF2D3;" vertex="1" parent="YqBTJiR8Vr2jeuTM6Ofv-156">
          <mxGeometry y="20" width="40" height="20" as="geometry" />
        </mxCell>
        <mxCell id="YqBTJiR8Vr2jeuTM6Ofv-160" value="data" style="connectable=0;recursiveResize=0;strokeColor=inherit;fillColor=inherit;whiteSpace=wrap;html=1;" vertex="1" parent="YqBTJiR8Vr2jeuTM6Ofv-159">
          <mxGeometry width="40" height="20" as="geometry">
            <mxRectangle width="40" height="20" as="alternateBounds" />
          </mxGeometry>
        </mxCell>
        <mxCell id="YqBTJiR8Vr2jeuTM6Ofv-1" value="Assets" style="childLayout=tableLayout;recursiveResize=0;strokeColor=#98bf21;fillColor=#A7C942;shadow=1;" vertex="1" parent="1">
          <mxGeometry x="120" y="1360" width="40" height="40" as="geometry" />
        </mxCell>
        <mxCell id="YqBTJiR8Vr2jeuTM6Ofv-2" style="shape=tableRow;horizontal=0;startSize=0;swimlaneHead=0;swimlaneBody=0;top=0;left=0;bottom=0;right=0;dropTarget=0;collapsible=0;recursiveResize=0;expand=0;fontStyle=0;strokeColor=inherit;fillColor=#ffffff;" vertex="1" parent="YqBTJiR8Vr2jeuTM6Ofv-1">
          <mxGeometry width="40" height="20" as="geometry" />
        </mxCell>
        <mxCell id="YqBTJiR8Vr2jeuTM6Ofv-3" value="50" style="connectable=0;recursiveResize=0;strokeColor=inherit;fillColor=#A7C942;align=center;fontStyle=1;fontColor=#FFFFFF;html=1;" vertex="1" parent="YqBTJiR8Vr2jeuTM6Ofv-2">
          <mxGeometry width="40" height="20" as="geometry">
            <mxRectangle width="40" height="20" as="alternateBounds" />
          </mxGeometry>
        </mxCell>
        <mxCell id="YqBTJiR8Vr2jeuTM6Ofv-4" value="" style="shape=tableRow;horizontal=0;startSize=0;swimlaneHead=0;swimlaneBody=0;top=0;left=0;bottom=0;right=0;dropTarget=0;collapsible=0;recursiveResize=0;expand=0;fontStyle=1;strokeColor=inherit;fillColor=#EAF2D3;" vertex="1" parent="YqBTJiR8Vr2jeuTM6Ofv-1">
          <mxGeometry y="20" width="40" height="20" as="geometry" />
        </mxCell>
        <mxCell id="YqBTJiR8Vr2jeuTM6Ofv-5" value="data" style="connectable=0;recursiveResize=0;strokeColor=inherit;fillColor=inherit;whiteSpace=wrap;html=1;" vertex="1" parent="YqBTJiR8Vr2jeuTM6Ofv-4">
          <mxGeometry width="40" height="20" as="geometry">
            <mxRectangle width="40" height="20" as="alternateBounds" />
          </mxGeometry>
        </mxCell>
        <mxCell id="YqBTJiR8Vr2jeuTM6Ofv-161" style="rounded=0;orthogonalLoop=1;jettySize=auto;html=1;exitX=0;exitY=1;exitDx=0;exitDy=0;entryX=0;entryY=0;entryDx=0;entryDy=0;fillColor=#ffe6cc;strokeColor=#d79b00;" edge="1" parent="1" source="YqBTJiR8Vr2jeuTM6Ofv-14" target="YqBTJiR8Vr2jeuTM6Ofv-122">
          <mxGeometry relative="1" as="geometry" />
        </mxCell>
        <mxCell id="YqBTJiR8Vr2jeuTM6Ofv-170" style="edgeStyle=none;shape=connector;rounded=0;orthogonalLoop=1;jettySize=auto;html=1;exitX=0;exitY=1;exitDx=0;exitDy=0;entryX=0;entryY=0;entryDx=0;entryDy=0;labelBackgroundColor=default;strokeColor=#d79b00;align=center;verticalAlign=middle;fontFamily=Helvetica;fontSize=11;fontColor=default;endArrow=classic;fillColor=#ffe6cc;" edge="1" source="YqBTJiR8Vr2jeuTM6Ofv-172" target="YqBTJiR8Vr2jeuTM6Ofv-179" parent="1">
          <mxGeometry relative="1" as="geometry" />
        </mxCell>
        <mxCell id="YqBTJiR8Vr2jeuTM6Ofv-171" style="edgeStyle=none;shape=connector;rounded=0;orthogonalLoop=1;jettySize=auto;html=1;exitX=1;exitY=1;exitDx=0;exitDy=0;entryX=1;entryY=0;entryDx=0;entryDy=0;labelBackgroundColor=default;strokeColor=#d79b00;align=center;verticalAlign=middle;fontFamily=Helvetica;fontSize=11;fontColor=default;endArrow=classic;fillColor=#ffe6cc;" edge="1" source="YqBTJiR8Vr2jeuTM6Ofv-172" target="YqBTJiR8Vr2jeuTM6Ofv-198" parent="1">
          <mxGeometry relative="1" as="geometry" />
        </mxCell>
        <mxCell id="YqBTJiR8Vr2jeuTM6Ofv-172" value="Assets" style="childLayout=tableLayout;recursiveResize=0;strokeColor=#98bf21;fillColor=#A7C942;shadow=1;" vertex="1" parent="1">
          <mxGeometry x="320" y="1440" width="40" height="40" as="geometry" />
        </mxCell>
        <mxCell id="YqBTJiR8Vr2jeuTM6Ofv-173" style="shape=tableRow;horizontal=0;startSize=0;swimlaneHead=0;swimlaneBody=0;top=0;left=0;bottom=0;right=0;dropTarget=0;collapsible=0;recursiveResize=0;expand=0;fontStyle=0;strokeColor=inherit;fillColor=#ffffff;" vertex="1" parent="YqBTJiR8Vr2jeuTM6Ofv-172">
          <mxGeometry width="40" height="20" as="geometry" />
        </mxCell>
        <mxCell id="YqBTJiR8Vr2jeuTM6Ofv-174" value="150" style="connectable=0;recursiveResize=0;strokeColor=inherit;fillColor=#A7C942;align=center;fontStyle=1;fontColor=#FFFFFF;html=1;" vertex="1" parent="YqBTJiR8Vr2jeuTM6Ofv-173">
          <mxGeometry width="40" height="20" as="geometry">
            <mxRectangle width="40" height="20" as="alternateBounds" />
          </mxGeometry>
        </mxCell>
        <mxCell id="YqBTJiR8Vr2jeuTM6Ofv-175" value="" style="shape=tableRow;horizontal=0;startSize=0;swimlaneHead=0;swimlaneBody=0;top=0;left=0;bottom=0;right=0;dropTarget=0;collapsible=0;recursiveResize=0;expand=0;fontStyle=1;strokeColor=inherit;fillColor=#EAF2D3;" vertex="1" parent="YqBTJiR8Vr2jeuTM6Ofv-172">
          <mxGeometry y="20" width="40" height="20" as="geometry" />
        </mxCell>
        <mxCell id="YqBTJiR8Vr2jeuTM6Ofv-176" value="data" style="connectable=0;recursiveResize=0;strokeColor=inherit;fillColor=inherit;whiteSpace=wrap;html=1;" vertex="1" parent="YqBTJiR8Vr2jeuTM6Ofv-175">
          <mxGeometry width="40" height="20" as="geometry">
            <mxRectangle width="40" height="20" as="alternateBounds" />
          </mxGeometry>
        </mxCell>
        <mxCell id="YqBTJiR8Vr2jeuTM6Ofv-177" style="edgeStyle=none;shape=connector;rounded=0;orthogonalLoop=1;jettySize=auto;html=1;exitX=1;exitY=1;exitDx=0;exitDy=0;entryX=1;entryY=0;entryDx=0;entryDy=0;labelBackgroundColor=default;strokeColor=#d79b00;align=center;verticalAlign=middle;fontFamily=Helvetica;fontSize=11;fontColor=default;endArrow=classic;fillColor=#ffe6cc;" edge="1" source="YqBTJiR8Vr2jeuTM6Ofv-178" target="YqBTJiR8Vr2jeuTM6Ofv-248" parent="1">
          <mxGeometry relative="1" as="geometry" />
        </mxCell>
        <mxCell id="YqBTJiR8Vr2jeuTM6Ofv-178" value="Assets" style="childLayout=tableLayout;recursiveResize=0;strokeColor=#98bf21;fillColor=#A7C942;shadow=1;" vertex="1" parent="1">
          <mxGeometry x="280" y="1520" width="40" height="40" as="geometry" />
        </mxCell>
        <mxCell id="YqBTJiR8Vr2jeuTM6Ofv-179" style="shape=tableRow;horizontal=0;startSize=0;swimlaneHead=0;swimlaneBody=0;top=0;left=0;bottom=0;right=0;dropTarget=0;collapsible=0;recursiveResize=0;expand=0;fontStyle=0;strokeColor=inherit;fillColor=#ffffff;" vertex="1" parent="YqBTJiR8Vr2jeuTM6Ofv-178">
          <mxGeometry width="40" height="20" as="geometry" />
        </mxCell>
        <mxCell id="YqBTJiR8Vr2jeuTM6Ofv-180" value="80" style="connectable=0;recursiveResize=0;strokeColor=inherit;fillColor=#A7C942;align=center;fontStyle=1;fontColor=#FFFFFF;html=1;" vertex="1" parent="YqBTJiR8Vr2jeuTM6Ofv-179">
          <mxGeometry width="40" height="20" as="geometry">
            <mxRectangle width="40" height="20" as="alternateBounds" />
          </mxGeometry>
        </mxCell>
        <mxCell id="YqBTJiR8Vr2jeuTM6Ofv-181" value="" style="shape=tableRow;horizontal=0;startSize=0;swimlaneHead=0;swimlaneBody=0;top=0;left=0;bottom=0;right=0;dropTarget=0;collapsible=0;recursiveResize=0;expand=0;fontStyle=1;strokeColor=inherit;fillColor=#EAF2D3;" vertex="1" parent="YqBTJiR8Vr2jeuTM6Ofv-178">
          <mxGeometry y="20" width="40" height="20" as="geometry" />
        </mxCell>
        <mxCell id="YqBTJiR8Vr2jeuTM6Ofv-182" value="data" style="connectable=0;recursiveResize=0;strokeColor=inherit;fillColor=inherit;whiteSpace=wrap;html=1;" vertex="1" parent="YqBTJiR8Vr2jeuTM6Ofv-181">
          <mxGeometry width="40" height="20" as="geometry">
            <mxRectangle width="40" height="20" as="alternateBounds" />
          </mxGeometry>
        </mxCell>
        <mxCell id="YqBTJiR8Vr2jeuTM6Ofv-183" style="edgeStyle=none;shape=connector;rounded=0;orthogonalLoop=1;jettySize=auto;html=1;exitX=1;exitY=1;exitDx=0;exitDy=0;entryX=0.5;entryY=0;entryDx=0;entryDy=0;labelBackgroundColor=default;strokeColor=#d79b00;align=center;verticalAlign=middle;fontFamily=Helvetica;fontSize=11;fontColor=default;endArrow=classic;fillColor=#ffe6cc;" edge="1" source="YqBTJiR8Vr2jeuTM6Ofv-184" target="YqBTJiR8Vr2jeuTM6Ofv-238" parent="1">
          <mxGeometry relative="1" as="geometry" />
        </mxCell>
        <mxCell id="YqBTJiR8Vr2jeuTM6Ofv-184" value="Assets" style="childLayout=tableLayout;recursiveResize=0;strokeColor=#98bf21;fillColor=#A7C942;shadow=1;" vertex="1" parent="1">
          <mxGeometry x="240" y="1520" width="40" height="40" as="geometry" />
        </mxCell>
        <mxCell id="YqBTJiR8Vr2jeuTM6Ofv-185" style="shape=tableRow;horizontal=0;startSize=0;swimlaneHead=0;swimlaneBody=0;top=0;left=0;bottom=0;right=0;dropTarget=0;collapsible=0;recursiveResize=0;expand=0;fontStyle=0;strokeColor=inherit;fillColor=#ffffff;" vertex="1" parent="YqBTJiR8Vr2jeuTM6Ofv-184">
          <mxGeometry width="40" height="20" as="geometry" />
        </mxCell>
        <mxCell id="YqBTJiR8Vr2jeuTM6Ofv-186" value="46" style="connectable=0;recursiveResize=0;strokeColor=inherit;fillColor=#A7C942;align=center;fontStyle=1;fontColor=#FFFFFF;html=1;" vertex="1" parent="YqBTJiR8Vr2jeuTM6Ofv-185">
          <mxGeometry width="40" height="20" as="geometry">
            <mxRectangle width="40" height="20" as="alternateBounds" />
          </mxGeometry>
        </mxCell>
        <mxCell id="YqBTJiR8Vr2jeuTM6Ofv-187" value="" style="shape=tableRow;horizontal=0;startSize=0;swimlaneHead=0;swimlaneBody=0;top=0;left=0;bottom=0;right=0;dropTarget=0;collapsible=0;recursiveResize=0;expand=0;fontStyle=1;strokeColor=inherit;fillColor=#EAF2D3;" vertex="1" parent="YqBTJiR8Vr2jeuTM6Ofv-184">
          <mxGeometry y="20" width="40" height="20" as="geometry" />
        </mxCell>
        <mxCell id="YqBTJiR8Vr2jeuTM6Ofv-188" value="data" style="connectable=0;recursiveResize=0;strokeColor=inherit;fillColor=inherit;whiteSpace=wrap;html=1;" vertex="1" parent="YqBTJiR8Vr2jeuTM6Ofv-187">
          <mxGeometry width="40" height="20" as="geometry">
            <mxRectangle width="40" height="20" as="alternateBounds" />
          </mxGeometry>
        </mxCell>
        <mxCell id="YqBTJiR8Vr2jeuTM6Ofv-189" style="edgeStyle=none;shape=connector;rounded=0;orthogonalLoop=1;jettySize=auto;html=1;exitX=0;exitY=1;exitDx=0;exitDy=0;entryX=1;entryY=0;entryDx=0;entryDy=0;labelBackgroundColor=default;strokeColor=#d79b00;align=center;verticalAlign=middle;fontFamily=Helvetica;fontSize=11;fontColor=default;endArrow=classic;fillColor=#ffe6cc;" edge="1" source="YqBTJiR8Vr2jeuTM6Ofv-191" target="YqBTJiR8Vr2jeuTM6Ofv-208" parent="1">
          <mxGeometry relative="1" as="geometry" />
        </mxCell>
        <mxCell id="YqBTJiR8Vr2jeuTM6Ofv-190" style="edgeStyle=none;shape=connector;rounded=0;orthogonalLoop=1;jettySize=auto;html=1;exitX=1;exitY=1;exitDx=0;exitDy=0;entryX=1;entryY=0;entryDx=0;entryDy=0;labelBackgroundColor=default;strokeColor=#d79b00;align=center;verticalAlign=middle;fontFamily=Helvetica;fontSize=11;fontColor=default;endArrow=classic;fillColor=#ffe6cc;" edge="1" source="YqBTJiR8Vr2jeuTM6Ofv-191" target="YqBTJiR8Vr2jeuTM6Ofv-218" parent="1">
          <mxGeometry relative="1" as="geometry" />
        </mxCell>
        <mxCell id="YqBTJiR8Vr2jeuTM6Ofv-191" value="Assets" style="childLayout=tableLayout;recursiveResize=0;strokeColor=#98bf21;fillColor=#A7C942;shadow=1;" vertex="1" parent="1">
          <mxGeometry x="400" y="1520" width="40" height="40" as="geometry" />
        </mxCell>
        <mxCell id="YqBTJiR8Vr2jeuTM6Ofv-192" style="shape=tableRow;horizontal=0;startSize=0;swimlaneHead=0;swimlaneBody=0;top=0;left=0;bottom=0;right=0;dropTarget=0;collapsible=0;recursiveResize=0;expand=0;fontStyle=0;strokeColor=inherit;fillColor=#ffffff;" vertex="1" parent="YqBTJiR8Vr2jeuTM6Ofv-191">
          <mxGeometry width="40" height="20" as="geometry" />
        </mxCell>
        <mxCell id="YqBTJiR8Vr2jeuTM6Ofv-193" value="350" style="connectable=0;recursiveResize=0;strokeColor=inherit;fillColor=#A7C942;align=center;fontStyle=1;fontColor=#FFFFFF;html=1;" vertex="1" parent="YqBTJiR8Vr2jeuTM6Ofv-192">
          <mxGeometry width="40" height="20" as="geometry">
            <mxRectangle width="40" height="20" as="alternateBounds" />
          </mxGeometry>
        </mxCell>
        <mxCell id="YqBTJiR8Vr2jeuTM6Ofv-194" value="" style="shape=tableRow;horizontal=0;startSize=0;swimlaneHead=0;swimlaneBody=0;top=0;left=0;bottom=0;right=0;dropTarget=0;collapsible=0;recursiveResize=0;expand=0;fontStyle=1;strokeColor=inherit;fillColor=#EAF2D3;" vertex="1" parent="YqBTJiR8Vr2jeuTM6Ofv-191">
          <mxGeometry y="20" width="40" height="20" as="geometry" />
        </mxCell>
        <mxCell id="YqBTJiR8Vr2jeuTM6Ofv-195" value="data" style="connectable=0;recursiveResize=0;strokeColor=inherit;fillColor=inherit;whiteSpace=wrap;html=1;" vertex="1" parent="YqBTJiR8Vr2jeuTM6Ofv-194">
          <mxGeometry width="40" height="20" as="geometry">
            <mxRectangle width="40" height="20" as="alternateBounds" />
          </mxGeometry>
        </mxCell>
        <mxCell id="YqBTJiR8Vr2jeuTM6Ofv-196" style="edgeStyle=none;shape=connector;rounded=0;orthogonalLoop=1;jettySize=auto;html=1;exitX=0;exitY=1;exitDx=0;exitDy=0;entryX=1;entryY=0;entryDx=0;entryDy=0;labelBackgroundColor=default;strokeColor=#d79b00;align=center;verticalAlign=middle;fontFamily=Helvetica;fontSize=11;fontColor=default;endArrow=classic;fillColor=#ffe6cc;" edge="1" source="YqBTJiR8Vr2jeuTM6Ofv-197" target="YqBTJiR8Vr2jeuTM6Ofv-258" parent="1">
          <mxGeometry relative="1" as="geometry" />
        </mxCell>
        <mxCell id="YqBTJiR8Vr2jeuTM6Ofv-197" value="Assets" style="childLayout=tableLayout;recursiveResize=0;strokeColor=#98bf21;fillColor=#A7C942;shadow=1;" vertex="1" parent="1">
          <mxGeometry x="360" y="1520" width="40" height="40" as="geometry" />
        </mxCell>
        <mxCell id="YqBTJiR8Vr2jeuTM6Ofv-198" style="shape=tableRow;horizontal=0;startSize=0;swimlaneHead=0;swimlaneBody=0;top=0;left=0;bottom=0;right=0;dropTarget=0;collapsible=0;recursiveResize=0;expand=0;fontStyle=0;strokeColor=inherit;fillColor=#ffffff;" vertex="1" parent="YqBTJiR8Vr2jeuTM6Ofv-197">
          <mxGeometry width="40" height="20" as="geometry" />
        </mxCell>
        <mxCell id="YqBTJiR8Vr2jeuTM6Ofv-199" value="320" style="connectable=0;recursiveResize=0;strokeColor=inherit;fillColor=#A7C942;align=center;fontStyle=1;fontColor=#FFFFFF;html=1;" vertex="1" parent="YqBTJiR8Vr2jeuTM6Ofv-198">
          <mxGeometry width="40" height="20" as="geometry">
            <mxRectangle width="40" height="20" as="alternateBounds" />
          </mxGeometry>
        </mxCell>
        <mxCell id="YqBTJiR8Vr2jeuTM6Ofv-200" value="" style="shape=tableRow;horizontal=0;startSize=0;swimlaneHead=0;swimlaneBody=0;top=0;left=0;bottom=0;right=0;dropTarget=0;collapsible=0;recursiveResize=0;expand=0;fontStyle=1;strokeColor=inherit;fillColor=#EAF2D3;" vertex="1" parent="YqBTJiR8Vr2jeuTM6Ofv-197">
          <mxGeometry y="20" width="40" height="20" as="geometry" />
        </mxCell>
        <mxCell id="YqBTJiR8Vr2jeuTM6Ofv-201" value="data" style="connectable=0;recursiveResize=0;strokeColor=inherit;fillColor=inherit;whiteSpace=wrap;html=1;" vertex="1" parent="YqBTJiR8Vr2jeuTM6Ofv-200">
          <mxGeometry width="40" height="20" as="geometry">
            <mxRectangle width="40" height="20" as="alternateBounds" />
          </mxGeometry>
        </mxCell>
        <mxCell id="YqBTJiR8Vr2jeuTM6Ofv-202" value="Assets" style="childLayout=tableLayout;recursiveResize=0;strokeColor=#98bf21;fillColor=#A7C942;shadow=1;" vertex="1" parent="1">
          <mxGeometry x="560" y="1600" width="40" height="40" as="geometry" />
        </mxCell>
        <mxCell id="YqBTJiR8Vr2jeuTM6Ofv-203" style="shape=tableRow;horizontal=0;startSize=0;swimlaneHead=0;swimlaneBody=0;top=0;left=0;bottom=0;right=0;dropTarget=0;collapsible=0;recursiveResize=0;expand=0;fontStyle=0;strokeColor=inherit;fillColor=#ffffff;" vertex="1" parent="YqBTJiR8Vr2jeuTM6Ofv-202">
          <mxGeometry width="40" height="20" as="geometry" />
        </mxCell>
        <mxCell id="YqBTJiR8Vr2jeuTM6Ofv-204" value="330" style="connectable=0;recursiveResize=0;strokeColor=inherit;fillColor=#A7C942;align=center;fontStyle=1;fontColor=#FFFFFF;html=1;" vertex="1" parent="YqBTJiR8Vr2jeuTM6Ofv-203">
          <mxGeometry width="40" height="20" as="geometry">
            <mxRectangle width="40" height="20" as="alternateBounds" />
          </mxGeometry>
        </mxCell>
        <mxCell id="YqBTJiR8Vr2jeuTM6Ofv-205" value="" style="shape=tableRow;horizontal=0;startSize=0;swimlaneHead=0;swimlaneBody=0;top=0;left=0;bottom=0;right=0;dropTarget=0;collapsible=0;recursiveResize=0;expand=0;fontStyle=1;strokeColor=inherit;fillColor=#EAF2D3;" vertex="1" parent="YqBTJiR8Vr2jeuTM6Ofv-202">
          <mxGeometry y="20" width="40" height="20" as="geometry" />
        </mxCell>
        <mxCell id="YqBTJiR8Vr2jeuTM6Ofv-206" value="data" style="connectable=0;recursiveResize=0;strokeColor=inherit;fillColor=inherit;whiteSpace=wrap;html=1;" vertex="1" parent="YqBTJiR8Vr2jeuTM6Ofv-205">
          <mxGeometry width="40" height="20" as="geometry">
            <mxRectangle width="40" height="20" as="alternateBounds" />
          </mxGeometry>
        </mxCell>
        <mxCell id="YqBTJiR8Vr2jeuTM6Ofv-207" value="Assets" style="childLayout=tableLayout;recursiveResize=0;strokeColor=#98bf21;fillColor=#A7C942;shadow=1;" vertex="1" parent="1">
          <mxGeometry x="520" y="1600" width="40" height="40" as="geometry" />
        </mxCell>
        <mxCell id="YqBTJiR8Vr2jeuTM6Ofv-208" style="shape=tableRow;horizontal=0;startSize=0;swimlaneHead=0;swimlaneBody=0;top=0;left=0;bottom=0;right=0;dropTarget=0;collapsible=0;recursiveResize=0;expand=0;fontStyle=0;strokeColor=inherit;fillColor=#ffffff;" vertex="1" parent="YqBTJiR8Vr2jeuTM6Ofv-207">
          <mxGeometry width="40" height="20" as="geometry" />
        </mxCell>
        <mxCell id="YqBTJiR8Vr2jeuTM6Ofv-209" value="325" style="connectable=0;recursiveResize=0;strokeColor=inherit;fillColor=#A7C942;align=center;fontStyle=1;fontColor=#FFFFFF;html=1;" vertex="1" parent="YqBTJiR8Vr2jeuTM6Ofv-208">
          <mxGeometry width="40" height="20" as="geometry">
            <mxRectangle width="40" height="20" as="alternateBounds" />
          </mxGeometry>
        </mxCell>
        <mxCell id="YqBTJiR8Vr2jeuTM6Ofv-210" value="" style="shape=tableRow;horizontal=0;startSize=0;swimlaneHead=0;swimlaneBody=0;top=0;left=0;bottom=0;right=0;dropTarget=0;collapsible=0;recursiveResize=0;expand=0;fontStyle=1;strokeColor=inherit;fillColor=#EAF2D3;" vertex="1" parent="YqBTJiR8Vr2jeuTM6Ofv-207">
          <mxGeometry y="20" width="40" height="20" as="geometry" />
        </mxCell>
        <mxCell id="YqBTJiR8Vr2jeuTM6Ofv-211" value="data" style="connectable=0;recursiveResize=0;strokeColor=inherit;fillColor=inherit;whiteSpace=wrap;html=1;" vertex="1" parent="YqBTJiR8Vr2jeuTM6Ofv-210">
          <mxGeometry width="40" height="20" as="geometry">
            <mxRectangle width="40" height="20" as="alternateBounds" />
          </mxGeometry>
        </mxCell>
        <mxCell id="YqBTJiR8Vr2jeuTM6Ofv-212" value="Assets" style="childLayout=tableLayout;recursiveResize=0;strokeColor=#98bf21;fillColor=#A7C942;shadow=1;" vertex="1" parent="1">
          <mxGeometry x="680" y="1600" width="40" height="40" as="geometry" />
        </mxCell>
        <mxCell id="YqBTJiR8Vr2jeuTM6Ofv-213" style="shape=tableRow;horizontal=0;startSize=0;swimlaneHead=0;swimlaneBody=0;top=0;left=0;bottom=0;right=0;dropTarget=0;collapsible=0;recursiveResize=0;expand=0;fontStyle=0;strokeColor=inherit;fillColor=#ffffff;" vertex="1" parent="YqBTJiR8Vr2jeuTM6Ofv-212">
          <mxGeometry width="40" height="20" as="geometry" />
        </mxCell>
        <mxCell id="YqBTJiR8Vr2jeuTM6Ofv-214" value="450" style="connectable=0;recursiveResize=0;strokeColor=inherit;fillColor=#A7C942;align=center;fontStyle=1;fontColor=#FFFFFF;html=1;" vertex="1" parent="YqBTJiR8Vr2jeuTM6Ofv-213">
          <mxGeometry width="40" height="20" as="geometry">
            <mxRectangle width="40" height="20" as="alternateBounds" />
          </mxGeometry>
        </mxCell>
        <mxCell id="YqBTJiR8Vr2jeuTM6Ofv-215" value="" style="shape=tableRow;horizontal=0;startSize=0;swimlaneHead=0;swimlaneBody=0;top=0;left=0;bottom=0;right=0;dropTarget=0;collapsible=0;recursiveResize=0;expand=0;fontStyle=1;strokeColor=inherit;fillColor=#EAF2D3;" vertex="1" parent="YqBTJiR8Vr2jeuTM6Ofv-212">
          <mxGeometry y="20" width="40" height="20" as="geometry" />
        </mxCell>
        <mxCell id="YqBTJiR8Vr2jeuTM6Ofv-216" value="data" style="connectable=0;recursiveResize=0;strokeColor=inherit;fillColor=inherit;whiteSpace=wrap;html=1;" vertex="1" parent="YqBTJiR8Vr2jeuTM6Ofv-215">
          <mxGeometry width="40" height="20" as="geometry">
            <mxRectangle width="40" height="20" as="alternateBounds" />
          </mxGeometry>
        </mxCell>
        <mxCell id="YqBTJiR8Vr2jeuTM6Ofv-217" value="Assets" style="childLayout=tableLayout;recursiveResize=0;strokeColor=#98bf21;fillColor=#A7C942;shadow=1;" vertex="1" parent="1">
          <mxGeometry x="640" y="1600" width="40" height="40" as="geometry" />
        </mxCell>
        <mxCell id="YqBTJiR8Vr2jeuTM6Ofv-218" style="shape=tableRow;horizontal=0;startSize=0;swimlaneHead=0;swimlaneBody=0;top=0;left=0;bottom=0;right=0;dropTarget=0;collapsible=0;recursiveResize=0;expand=0;fontStyle=0;strokeColor=inherit;fillColor=#ffffff;" vertex="1" parent="YqBTJiR8Vr2jeuTM6Ofv-217">
          <mxGeometry width="40" height="20" as="geometry" />
        </mxCell>
        <mxCell id="YqBTJiR8Vr2jeuTM6Ofv-219" value="400" style="connectable=0;recursiveResize=0;strokeColor=inherit;fillColor=#A7C942;align=center;fontStyle=1;fontColor=#FFFFFF;html=1;" vertex="1" parent="YqBTJiR8Vr2jeuTM6Ofv-218">
          <mxGeometry width="40" height="20" as="geometry">
            <mxRectangle width="40" height="20" as="alternateBounds" />
          </mxGeometry>
        </mxCell>
        <mxCell id="YqBTJiR8Vr2jeuTM6Ofv-220" value="" style="shape=tableRow;horizontal=0;startSize=0;swimlaneHead=0;swimlaneBody=0;top=0;left=0;bottom=0;right=0;dropTarget=0;collapsible=0;recursiveResize=0;expand=0;fontStyle=1;strokeColor=inherit;fillColor=#EAF2D3;" vertex="1" parent="YqBTJiR8Vr2jeuTM6Ofv-217">
          <mxGeometry y="20" width="40" height="20" as="geometry" />
        </mxCell>
        <mxCell id="YqBTJiR8Vr2jeuTM6Ofv-221" value="data" style="connectable=0;recursiveResize=0;strokeColor=inherit;fillColor=inherit;whiteSpace=wrap;html=1;" vertex="1" parent="YqBTJiR8Vr2jeuTM6Ofv-220">
          <mxGeometry width="40" height="20" as="geometry">
            <mxRectangle width="40" height="20" as="alternateBounds" />
          </mxGeometry>
        </mxCell>
        <mxCell id="YqBTJiR8Vr2jeuTM6Ofv-222" value="Assets" style="childLayout=tableLayout;recursiveResize=0;strokeColor=#98bf21;fillColor=#A7C942;shadow=1;" vertex="1" parent="1">
          <mxGeometry x="40" y="1600" width="40" height="40" as="geometry" />
        </mxCell>
        <mxCell id="YqBTJiR8Vr2jeuTM6Ofv-223" style="shape=tableRow;horizontal=0;startSize=0;swimlaneHead=0;swimlaneBody=0;top=0;left=0;bottom=0;right=0;dropTarget=0;collapsible=0;recursiveResize=0;expand=0;fontStyle=0;strokeColor=inherit;fillColor=#ffffff;" vertex="1" parent="YqBTJiR8Vr2jeuTM6Ofv-222">
          <mxGeometry width="40" height="20" as="geometry" />
        </mxCell>
        <mxCell id="YqBTJiR8Vr2jeuTM6Ofv-224" value="40" style="connectable=0;recursiveResize=0;strokeColor=inherit;fillColor=#A7C942;align=center;fontStyle=1;fontColor=#FFFFFF;html=1;" vertex="1" parent="YqBTJiR8Vr2jeuTM6Ofv-223">
          <mxGeometry width="40" height="20" as="geometry">
            <mxRectangle width="40" height="20" as="alternateBounds" />
          </mxGeometry>
        </mxCell>
        <mxCell id="YqBTJiR8Vr2jeuTM6Ofv-225" value="" style="shape=tableRow;horizontal=0;startSize=0;swimlaneHead=0;swimlaneBody=0;top=0;left=0;bottom=0;right=0;dropTarget=0;collapsible=0;recursiveResize=0;expand=0;fontStyle=1;strokeColor=inherit;fillColor=#EAF2D3;" vertex="1" parent="YqBTJiR8Vr2jeuTM6Ofv-222">
          <mxGeometry y="20" width="40" height="20" as="geometry" />
        </mxCell>
        <mxCell id="YqBTJiR8Vr2jeuTM6Ofv-226" value="data" style="connectable=0;recursiveResize=0;strokeColor=inherit;fillColor=inherit;whiteSpace=wrap;html=1;" vertex="1" parent="YqBTJiR8Vr2jeuTM6Ofv-225">
          <mxGeometry width="40" height="20" as="geometry">
            <mxRectangle width="40" height="20" as="alternateBounds" />
          </mxGeometry>
        </mxCell>
        <mxCell id="YqBTJiR8Vr2jeuTM6Ofv-227" value="Assets" style="childLayout=tableLayout;recursiveResize=0;strokeColor=#98bf21;fillColor=#A7C942;shadow=1;" vertex="1" parent="1">
          <mxGeometry y="1600" width="40" height="40" as="geometry" />
        </mxCell>
        <mxCell id="YqBTJiR8Vr2jeuTM6Ofv-228" style="shape=tableRow;horizontal=0;startSize=0;swimlaneHead=0;swimlaneBody=0;top=0;left=0;bottom=0;right=0;dropTarget=0;collapsible=0;recursiveResize=0;expand=0;fontStyle=0;strokeColor=inherit;fillColor=#ffffff;" vertex="1" parent="YqBTJiR8Vr2jeuTM6Ofv-227">
          <mxGeometry width="40" height="20" as="geometry" />
        </mxCell>
        <mxCell id="YqBTJiR8Vr2jeuTM6Ofv-229" value="30" style="connectable=0;recursiveResize=0;strokeColor=inherit;fillColor=#A7C942;align=center;fontStyle=1;fontColor=#FFFFFF;html=1;" vertex="1" parent="YqBTJiR8Vr2jeuTM6Ofv-228">
          <mxGeometry width="40" height="20" as="geometry">
            <mxRectangle width="40" height="20" as="alternateBounds" />
          </mxGeometry>
        </mxCell>
        <mxCell id="YqBTJiR8Vr2jeuTM6Ofv-230" value="" style="shape=tableRow;horizontal=0;startSize=0;swimlaneHead=0;swimlaneBody=0;top=0;left=0;bottom=0;right=0;dropTarget=0;collapsible=0;recursiveResize=0;expand=0;fontStyle=1;strokeColor=inherit;fillColor=#EAF2D3;" vertex="1" parent="YqBTJiR8Vr2jeuTM6Ofv-227">
          <mxGeometry y="20" width="40" height="20" as="geometry" />
        </mxCell>
        <mxCell id="YqBTJiR8Vr2jeuTM6Ofv-231" value="data" style="connectable=0;recursiveResize=0;strokeColor=inherit;fillColor=inherit;whiteSpace=wrap;html=1;" vertex="1" parent="YqBTJiR8Vr2jeuTM6Ofv-230">
          <mxGeometry width="40" height="20" as="geometry">
            <mxRectangle width="40" height="20" as="alternateBounds" />
          </mxGeometry>
        </mxCell>
        <mxCell id="YqBTJiR8Vr2jeuTM6Ofv-232" value="Assets" style="childLayout=tableLayout;recursiveResize=0;strokeColor=#98bf21;fillColor=#A7C942;shadow=1;" vertex="1" parent="1">
          <mxGeometry y="1520" width="40" height="40" as="geometry" />
        </mxCell>
        <mxCell id="YqBTJiR8Vr2jeuTM6Ofv-233" style="shape=tableRow;horizontal=0;startSize=0;swimlaneHead=0;swimlaneBody=0;top=0;left=0;bottom=0;right=0;dropTarget=0;collapsible=0;recursiveResize=0;expand=0;fontStyle=0;strokeColor=inherit;fillColor=#ffffff;" vertex="1" parent="YqBTJiR8Vr2jeuTM6Ofv-232">
          <mxGeometry width="40" height="20" as="geometry" />
        </mxCell>
        <mxCell id="YqBTJiR8Vr2jeuTM6Ofv-234" value="120" style="connectable=0;recursiveResize=0;strokeColor=inherit;fillColor=#A7C942;align=center;fontStyle=1;fontColor=#FFFFFF;html=1;" vertex="1" parent="YqBTJiR8Vr2jeuTM6Ofv-233">
          <mxGeometry width="40" height="20" as="geometry">
            <mxRectangle width="40" height="20" as="alternateBounds" />
          </mxGeometry>
        </mxCell>
        <mxCell id="YqBTJiR8Vr2jeuTM6Ofv-235" value="" style="shape=tableRow;horizontal=0;startSize=0;swimlaneHead=0;swimlaneBody=0;top=0;left=0;bottom=0;right=0;dropTarget=0;collapsible=0;recursiveResize=0;expand=0;fontStyle=1;strokeColor=inherit;fillColor=#EAF2D3;" vertex="1" parent="YqBTJiR8Vr2jeuTM6Ofv-232">
          <mxGeometry y="20" width="40" height="20" as="geometry" />
        </mxCell>
        <mxCell id="YqBTJiR8Vr2jeuTM6Ofv-236" value="data" style="connectable=0;recursiveResize=0;strokeColor=inherit;fillColor=inherit;whiteSpace=wrap;html=1;" vertex="1" parent="YqBTJiR8Vr2jeuTM6Ofv-235">
          <mxGeometry width="40" height="20" as="geometry">
            <mxRectangle width="40" height="20" as="alternateBounds" />
          </mxGeometry>
        </mxCell>
        <mxCell id="YqBTJiR8Vr2jeuTM6Ofv-237" value="Assets" style="childLayout=tableLayout;recursiveResize=0;strokeColor=#98bf21;fillColor=#A7C942;shadow=1;" vertex="1" parent="1">
          <mxGeometry x="160" y="1600" width="40" height="40" as="geometry" />
        </mxCell>
        <mxCell id="YqBTJiR8Vr2jeuTM6Ofv-238" style="shape=tableRow;horizontal=0;startSize=0;swimlaneHead=0;swimlaneBody=0;top=0;left=0;bottom=0;right=0;dropTarget=0;collapsible=0;recursiveResize=0;expand=0;fontStyle=0;strokeColor=inherit;fillColor=#ffffff;" vertex="1" parent="YqBTJiR8Vr2jeuTM6Ofv-237">
          <mxGeometry width="40" height="20" as="geometry" />
        </mxCell>
        <mxCell id="YqBTJiR8Vr2jeuTM6Ofv-239" value="70" style="connectable=0;recursiveResize=0;strokeColor=inherit;fillColor=#A7C942;align=center;fontStyle=1;fontColor=#FFFFFF;html=1;" vertex="1" parent="YqBTJiR8Vr2jeuTM6Ofv-238">
          <mxGeometry width="40" height="20" as="geometry">
            <mxRectangle width="40" height="20" as="alternateBounds" />
          </mxGeometry>
        </mxCell>
        <mxCell id="YqBTJiR8Vr2jeuTM6Ofv-240" value="" style="shape=tableRow;horizontal=0;startSize=0;swimlaneHead=0;swimlaneBody=0;top=0;left=0;bottom=0;right=0;dropTarget=0;collapsible=0;recursiveResize=0;expand=0;fontStyle=1;strokeColor=inherit;fillColor=#EAF2D3;" vertex="1" parent="YqBTJiR8Vr2jeuTM6Ofv-237">
          <mxGeometry y="20" width="40" height="20" as="geometry" />
        </mxCell>
        <mxCell id="YqBTJiR8Vr2jeuTM6Ofv-241" value="data" style="connectable=0;recursiveResize=0;strokeColor=inherit;fillColor=inherit;whiteSpace=wrap;html=1;" vertex="1" parent="YqBTJiR8Vr2jeuTM6Ofv-240">
          <mxGeometry width="40" height="20" as="geometry">
            <mxRectangle width="40" height="20" as="alternateBounds" />
          </mxGeometry>
        </mxCell>
        <mxCell id="YqBTJiR8Vr2jeuTM6Ofv-242" value="Assets" style="childLayout=tableLayout;recursiveResize=0;strokeColor=#98bf21;fillColor=#A7C942;shadow=1;" vertex="1" parent="1">
          <mxGeometry x="320" y="1600" width="40" height="40" as="geometry" />
        </mxCell>
        <mxCell id="YqBTJiR8Vr2jeuTM6Ofv-243" style="shape=tableRow;horizontal=0;startSize=0;swimlaneHead=0;swimlaneBody=0;top=0;left=0;bottom=0;right=0;dropTarget=0;collapsible=0;recursiveResize=0;expand=0;fontStyle=0;strokeColor=inherit;fillColor=#ffffff;" vertex="1" parent="YqBTJiR8Vr2jeuTM6Ofv-242">
          <mxGeometry width="40" height="20" as="geometry" />
        </mxCell>
        <mxCell id="YqBTJiR8Vr2jeuTM6Ofv-244" value="100" style="connectable=0;recursiveResize=0;strokeColor=inherit;fillColor=#A7C942;align=center;fontStyle=1;fontColor=#FFFFFF;html=1;" vertex="1" parent="YqBTJiR8Vr2jeuTM6Ofv-243">
          <mxGeometry width="40" height="20" as="geometry">
            <mxRectangle width="40" height="20" as="alternateBounds" />
          </mxGeometry>
        </mxCell>
        <mxCell id="YqBTJiR8Vr2jeuTM6Ofv-245" value="" style="shape=tableRow;horizontal=0;startSize=0;swimlaneHead=0;swimlaneBody=0;top=0;left=0;bottom=0;right=0;dropTarget=0;collapsible=0;recursiveResize=0;expand=0;fontStyle=1;strokeColor=inherit;fillColor=#EAF2D3;" vertex="1" parent="YqBTJiR8Vr2jeuTM6Ofv-242">
          <mxGeometry y="20" width="40" height="20" as="geometry" />
        </mxCell>
        <mxCell id="YqBTJiR8Vr2jeuTM6Ofv-246" value="data" style="connectable=0;recursiveResize=0;strokeColor=inherit;fillColor=inherit;whiteSpace=wrap;html=1;" vertex="1" parent="YqBTJiR8Vr2jeuTM6Ofv-245">
          <mxGeometry width="40" height="20" as="geometry">
            <mxRectangle width="40" height="20" as="alternateBounds" />
          </mxGeometry>
        </mxCell>
        <mxCell id="YqBTJiR8Vr2jeuTM6Ofv-247" value="Assets" style="childLayout=tableLayout;recursiveResize=0;strokeColor=#98bf21;fillColor=#A7C942;shadow=1;" vertex="1" parent="1">
          <mxGeometry x="280" y="1600" width="40" height="40" as="geometry" />
        </mxCell>
        <mxCell id="YqBTJiR8Vr2jeuTM6Ofv-248" style="shape=tableRow;horizontal=0;startSize=0;swimlaneHead=0;swimlaneBody=0;top=0;left=0;bottom=0;right=0;dropTarget=0;collapsible=0;recursiveResize=0;expand=0;fontStyle=0;strokeColor=inherit;fillColor=#ffffff;" vertex="1" parent="YqBTJiR8Vr2jeuTM6Ofv-247">
          <mxGeometry width="40" height="20" as="geometry" />
        </mxCell>
        <mxCell id="YqBTJiR8Vr2jeuTM6Ofv-249" value="90" style="connectable=0;recursiveResize=0;strokeColor=inherit;fillColor=#A7C942;align=center;fontStyle=1;fontColor=#FFFFFF;html=1;" vertex="1" parent="YqBTJiR8Vr2jeuTM6Ofv-248">
          <mxGeometry width="40" height="20" as="geometry">
            <mxRectangle width="40" height="20" as="alternateBounds" />
          </mxGeometry>
        </mxCell>
        <mxCell id="YqBTJiR8Vr2jeuTM6Ofv-250" value="" style="shape=tableRow;horizontal=0;startSize=0;swimlaneHead=0;swimlaneBody=0;top=0;left=0;bottom=0;right=0;dropTarget=0;collapsible=0;recursiveResize=0;expand=0;fontStyle=1;strokeColor=inherit;fillColor=#EAF2D3;" vertex="1" parent="YqBTJiR8Vr2jeuTM6Ofv-247">
          <mxGeometry y="20" width="40" height="20" as="geometry" />
        </mxCell>
        <mxCell id="YqBTJiR8Vr2jeuTM6Ofv-251" value="data" style="connectable=0;recursiveResize=0;strokeColor=inherit;fillColor=inherit;whiteSpace=wrap;html=1;" vertex="1" parent="YqBTJiR8Vr2jeuTM6Ofv-250">
          <mxGeometry width="40" height="20" as="geometry">
            <mxRectangle width="40" height="20" as="alternateBounds" />
          </mxGeometry>
        </mxCell>
        <mxCell id="YqBTJiR8Vr2jeuTM6Ofv-252" value="Assets" style="childLayout=tableLayout;recursiveResize=0;strokeColor=#98bf21;fillColor=#A7C942;shadow=1;" vertex="1" parent="1">
          <mxGeometry x="440" y="1600" width="40" height="40" as="geometry" />
        </mxCell>
        <mxCell id="YqBTJiR8Vr2jeuTM6Ofv-253" style="shape=tableRow;horizontal=0;startSize=0;swimlaneHead=0;swimlaneBody=0;top=0;left=0;bottom=0;right=0;dropTarget=0;collapsible=0;recursiveResize=0;expand=0;fontStyle=0;strokeColor=inherit;fillColor=#ffffff;" vertex="1" parent="YqBTJiR8Vr2jeuTM6Ofv-252">
          <mxGeometry width="40" height="20" as="geometry" />
        </mxCell>
        <mxCell id="YqBTJiR8Vr2jeuTM6Ofv-254" value="300" style="connectable=0;recursiveResize=0;strokeColor=inherit;fillColor=#A7C942;align=center;fontStyle=1;fontColor=#FFFFFF;html=1;" vertex="1" parent="YqBTJiR8Vr2jeuTM6Ofv-253">
          <mxGeometry width="40" height="20" as="geometry">
            <mxRectangle width="40" height="20" as="alternateBounds" />
          </mxGeometry>
        </mxCell>
        <mxCell id="YqBTJiR8Vr2jeuTM6Ofv-255" value="" style="shape=tableRow;horizontal=0;startSize=0;swimlaneHead=0;swimlaneBody=0;top=0;left=0;bottom=0;right=0;dropTarget=0;collapsible=0;recursiveResize=0;expand=0;fontStyle=1;strokeColor=inherit;fillColor=#EAF2D3;" vertex="1" parent="YqBTJiR8Vr2jeuTM6Ofv-252">
          <mxGeometry y="20" width="40" height="20" as="geometry" />
        </mxCell>
        <mxCell id="YqBTJiR8Vr2jeuTM6Ofv-256" value="data" style="connectable=0;recursiveResize=0;strokeColor=inherit;fillColor=inherit;whiteSpace=wrap;html=1;" vertex="1" parent="YqBTJiR8Vr2jeuTM6Ofv-255">
          <mxGeometry width="40" height="20" as="geometry">
            <mxRectangle width="40" height="20" as="alternateBounds" />
          </mxGeometry>
        </mxCell>
        <mxCell id="YqBTJiR8Vr2jeuTM6Ofv-257" value="Assets" style="childLayout=tableLayout;recursiveResize=0;strokeColor=#98bf21;fillColor=#A7C942;shadow=1;" vertex="1" parent="1">
          <mxGeometry x="400" y="1600" width="40" height="40" as="geometry" />
        </mxCell>
        <mxCell id="YqBTJiR8Vr2jeuTM6Ofv-258" style="shape=tableRow;horizontal=0;startSize=0;swimlaneHead=0;swimlaneBody=0;top=0;left=0;bottom=0;right=0;dropTarget=0;collapsible=0;recursiveResize=0;expand=0;fontStyle=0;strokeColor=inherit;fillColor=#ffffff;" vertex="1" parent="YqBTJiR8Vr2jeuTM6Ofv-257">
          <mxGeometry width="40" height="20" as="geometry" />
        </mxCell>
        <mxCell id="YqBTJiR8Vr2jeuTM6Ofv-259" value="200" style="connectable=0;recursiveResize=0;strokeColor=inherit;fillColor=#A7C942;align=center;fontStyle=1;fontColor=#FFFFFF;html=1;" vertex="1" parent="YqBTJiR8Vr2jeuTM6Ofv-258">
          <mxGeometry width="40" height="20" as="geometry">
            <mxRectangle width="40" height="20" as="alternateBounds" />
          </mxGeometry>
        </mxCell>
        <mxCell id="YqBTJiR8Vr2jeuTM6Ofv-260" value="" style="shape=tableRow;horizontal=0;startSize=0;swimlaneHead=0;swimlaneBody=0;top=0;left=0;bottom=0;right=0;dropTarget=0;collapsible=0;recursiveResize=0;expand=0;fontStyle=1;strokeColor=inherit;fillColor=#EAF2D3;" vertex="1" parent="YqBTJiR8Vr2jeuTM6Ofv-257">
          <mxGeometry y="20" width="40" height="20" as="geometry" />
        </mxCell>
        <mxCell id="YqBTJiR8Vr2jeuTM6Ofv-261" value="data" style="connectable=0;recursiveResize=0;strokeColor=inherit;fillColor=inherit;whiteSpace=wrap;html=1;" vertex="1" parent="YqBTJiR8Vr2jeuTM6Ofv-260">
          <mxGeometry width="40" height="20" as="geometry">
            <mxRectangle width="40" height="20" as="alternateBounds" />
          </mxGeometry>
        </mxCell>
        <mxCell id="YqBTJiR8Vr2jeuTM6Ofv-262" value="Assets" style="childLayout=tableLayout;recursiveResize=0;strokeColor=#98bf21;fillColor=#A7C942;shadow=1;" vertex="1" parent="1">
          <mxGeometry x="120" y="1600" width="40" height="40" as="geometry" />
        </mxCell>
        <mxCell id="YqBTJiR8Vr2jeuTM6Ofv-263" style="shape=tableRow;horizontal=0;startSize=0;swimlaneHead=0;swimlaneBody=0;top=0;left=0;bottom=0;right=0;dropTarget=0;collapsible=0;recursiveResize=0;expand=0;fontStyle=0;strokeColor=inherit;fillColor=#ffffff;" vertex="1" parent="YqBTJiR8Vr2jeuTM6Ofv-262">
          <mxGeometry width="40" height="20" as="geometry" />
        </mxCell>
        <mxCell id="YqBTJiR8Vr2jeuTM6Ofv-264" value="50" style="connectable=0;recursiveResize=0;strokeColor=inherit;fillColor=#A7C942;align=center;fontStyle=1;fontColor=#FFFFFF;html=1;" vertex="1" parent="YqBTJiR8Vr2jeuTM6Ofv-263">
          <mxGeometry width="40" height="20" as="geometry">
            <mxRectangle width="40" height="20" as="alternateBounds" />
          </mxGeometry>
        </mxCell>
        <mxCell id="YqBTJiR8Vr2jeuTM6Ofv-265" value="" style="shape=tableRow;horizontal=0;startSize=0;swimlaneHead=0;swimlaneBody=0;top=0;left=0;bottom=0;right=0;dropTarget=0;collapsible=0;recursiveResize=0;expand=0;fontStyle=1;strokeColor=inherit;fillColor=#EAF2D3;" vertex="1" parent="YqBTJiR8Vr2jeuTM6Ofv-262">
          <mxGeometry y="20" width="40" height="20" as="geometry" />
        </mxCell>
        <mxCell id="YqBTJiR8Vr2jeuTM6Ofv-266" value="data" style="connectable=0;recursiveResize=0;strokeColor=inherit;fillColor=inherit;whiteSpace=wrap;html=1;" vertex="1" parent="YqBTJiR8Vr2jeuTM6Ofv-265">
          <mxGeometry width="40" height="20" as="geometry">
            <mxRectangle width="40" height="20" as="alternateBounds" />
          </mxGeometry>
        </mxCell>
        <mxCell id="YqBTJiR8Vr2jeuTM6Ofv-267" style="rounded=0;orthogonalLoop=1;jettySize=auto;html=1;exitX=0;exitY=1;exitDx=0;exitDy=0;entryX=0;entryY=0;entryDx=0;entryDy=0;fillColor=#ffe6cc;strokeColor=#d79b00;" edge="1" source="YqBTJiR8Vr2jeuTM6Ofv-187" target="YqBTJiR8Vr2jeuTM6Ofv-223" parent="1">
          <mxGeometry relative="1" as="geometry" />
        </mxCell>
        <mxCell id="YqBTJiR8Vr2jeuTM6Ofv-666" style="edgeStyle=none;shape=connector;rounded=0;orthogonalLoop=1;jettySize=auto;html=1;exitX=0;exitY=1;exitDx=0;exitDy=0;entryX=0;entryY=0;entryDx=0;entryDy=0;labelBackgroundColor=default;strokeColor=#d79b00;align=center;verticalAlign=middle;fontFamily=Helvetica;fontSize=11;fontColor=default;endArrow=classic;fillColor=#ffe6cc;" edge="1" source="YqBTJiR8Vr2jeuTM6Ofv-668" target="YqBTJiR8Vr2jeuTM6Ofv-675" parent="1">
          <mxGeometry relative="1" as="geometry" />
        </mxCell>
        <mxCell id="YqBTJiR8Vr2jeuTM6Ofv-667" style="edgeStyle=none;shape=connector;rounded=0;orthogonalLoop=1;jettySize=auto;html=1;exitX=1;exitY=1;exitDx=0;exitDy=0;entryX=1;entryY=0;entryDx=0;entryDy=0;labelBackgroundColor=default;strokeColor=#d79b00;align=center;verticalAlign=middle;fontFamily=Helvetica;fontSize=11;fontColor=default;endArrow=classic;fillColor=#ffe6cc;" edge="1" source="YqBTJiR8Vr2jeuTM6Ofv-668" target="YqBTJiR8Vr2jeuTM6Ofv-694" parent="1">
          <mxGeometry relative="1" as="geometry" />
        </mxCell>
        <mxCell id="YqBTJiR8Vr2jeuTM6Ofv-668" value="Assets" style="childLayout=tableLayout;recursiveResize=0;strokeColor=#98bf21;fillColor=#A7C942;shadow=1;" vertex="1" parent="1">
          <mxGeometry x="320" y="1680" width="40" height="40" as="geometry" />
        </mxCell>
        <mxCell id="YqBTJiR8Vr2jeuTM6Ofv-669" style="shape=tableRow;horizontal=0;startSize=0;swimlaneHead=0;swimlaneBody=0;top=0;left=0;bottom=0;right=0;dropTarget=0;collapsible=0;recursiveResize=0;expand=0;fontStyle=0;strokeColor=inherit;fillColor=#ffffff;" vertex="1" parent="YqBTJiR8Vr2jeuTM6Ofv-668">
          <mxGeometry width="40" height="20" as="geometry" />
        </mxCell>
        <mxCell id="YqBTJiR8Vr2jeuTM6Ofv-670" value="150" style="connectable=0;recursiveResize=0;strokeColor=inherit;fillColor=#A7C942;align=center;fontStyle=1;fontColor=#FFFFFF;html=1;" vertex="1" parent="YqBTJiR8Vr2jeuTM6Ofv-669">
          <mxGeometry width="40" height="20" as="geometry">
            <mxRectangle width="40" height="20" as="alternateBounds" />
          </mxGeometry>
        </mxCell>
        <mxCell id="YqBTJiR8Vr2jeuTM6Ofv-671" value="" style="shape=tableRow;horizontal=0;startSize=0;swimlaneHead=0;swimlaneBody=0;top=0;left=0;bottom=0;right=0;dropTarget=0;collapsible=0;recursiveResize=0;expand=0;fontStyle=1;strokeColor=inherit;fillColor=#EAF2D3;" vertex="1" parent="YqBTJiR8Vr2jeuTM6Ofv-668">
          <mxGeometry y="20" width="40" height="20" as="geometry" />
        </mxCell>
        <mxCell id="YqBTJiR8Vr2jeuTM6Ofv-672" value="data" style="connectable=0;recursiveResize=0;strokeColor=inherit;fillColor=inherit;whiteSpace=wrap;html=1;" vertex="1" parent="YqBTJiR8Vr2jeuTM6Ofv-671">
          <mxGeometry width="40" height="20" as="geometry">
            <mxRectangle width="40" height="20" as="alternateBounds" />
          </mxGeometry>
        </mxCell>
        <mxCell id="YqBTJiR8Vr2jeuTM6Ofv-673" style="edgeStyle=none;shape=connector;rounded=0;orthogonalLoop=1;jettySize=auto;html=1;exitX=1;exitY=1;exitDx=0;exitDy=0;entryX=1;entryY=0;entryDx=0;entryDy=0;labelBackgroundColor=default;strokeColor=#d79b00;align=center;verticalAlign=middle;fontFamily=Helvetica;fontSize=11;fontColor=default;endArrow=classic;fillColor=#ffe6cc;" edge="1" source="YqBTJiR8Vr2jeuTM6Ofv-674" parent="1">
          <mxGeometry relative="1" as="geometry">
            <mxPoint x="320" y="1840" as="targetPoint" />
          </mxGeometry>
        </mxCell>
        <mxCell id="YqBTJiR8Vr2jeuTM6Ofv-674" value="Assets" style="childLayout=tableLayout;recursiveResize=0;strokeColor=#98bf21;fillColor=#A7C942;shadow=1;" vertex="1" parent="1">
          <mxGeometry x="280" y="1760" width="40" height="40" as="geometry" />
        </mxCell>
        <mxCell id="YqBTJiR8Vr2jeuTM6Ofv-675" style="shape=tableRow;horizontal=0;startSize=0;swimlaneHead=0;swimlaneBody=0;top=0;left=0;bottom=0;right=0;dropTarget=0;collapsible=0;recursiveResize=0;expand=0;fontStyle=0;strokeColor=inherit;fillColor=#ffffff;" vertex="1" parent="YqBTJiR8Vr2jeuTM6Ofv-674">
          <mxGeometry width="40" height="20" as="geometry" />
        </mxCell>
        <mxCell id="YqBTJiR8Vr2jeuTM6Ofv-676" value="80" style="connectable=0;recursiveResize=0;strokeColor=inherit;fillColor=#A7C942;align=center;fontStyle=1;fontColor=#FFFFFF;html=1;" vertex="1" parent="YqBTJiR8Vr2jeuTM6Ofv-675">
          <mxGeometry width="40" height="20" as="geometry">
            <mxRectangle width="40" height="20" as="alternateBounds" />
          </mxGeometry>
        </mxCell>
        <mxCell id="YqBTJiR8Vr2jeuTM6Ofv-677" value="" style="shape=tableRow;horizontal=0;startSize=0;swimlaneHead=0;swimlaneBody=0;top=0;left=0;bottom=0;right=0;dropTarget=0;collapsible=0;recursiveResize=0;expand=0;fontStyle=1;strokeColor=inherit;fillColor=#EAF2D3;" vertex="1" parent="YqBTJiR8Vr2jeuTM6Ofv-674">
          <mxGeometry y="20" width="40" height="20" as="geometry" />
        </mxCell>
        <mxCell id="YqBTJiR8Vr2jeuTM6Ofv-678" value="data" style="connectable=0;recursiveResize=0;strokeColor=inherit;fillColor=inherit;whiteSpace=wrap;html=1;" vertex="1" parent="YqBTJiR8Vr2jeuTM6Ofv-677">
          <mxGeometry width="40" height="20" as="geometry">
            <mxRectangle width="40" height="20" as="alternateBounds" />
          </mxGeometry>
        </mxCell>
        <mxCell id="YqBTJiR8Vr2jeuTM6Ofv-679" style="edgeStyle=none;shape=connector;rounded=0;orthogonalLoop=1;jettySize=auto;html=1;exitX=1;exitY=1;exitDx=0;exitDy=0;entryX=0.5;entryY=0;entryDx=0;entryDy=0;labelBackgroundColor=default;strokeColor=#d79b00;align=center;verticalAlign=middle;fontFamily=Helvetica;fontSize=11;fontColor=default;endArrow=classic;fillColor=#ffe6cc;" edge="1" source="YqBTJiR8Vr2jeuTM6Ofv-680" target="YqBTJiR8Vr2jeuTM6Ofv-734" parent="1">
          <mxGeometry relative="1" as="geometry" />
        </mxCell>
        <mxCell id="YqBTJiR8Vr2jeuTM6Ofv-680" value="Assets" style="childLayout=tableLayout;recursiveResize=0;strokeColor=#98bf21;fillColor=#A7C942;shadow=1;" vertex="1" parent="1">
          <mxGeometry x="240" y="1760" width="40" height="40" as="geometry" />
        </mxCell>
        <mxCell id="YqBTJiR8Vr2jeuTM6Ofv-681" style="shape=tableRow;horizontal=0;startSize=0;swimlaneHead=0;swimlaneBody=0;top=0;left=0;bottom=0;right=0;dropTarget=0;collapsible=0;recursiveResize=0;expand=0;fontStyle=0;strokeColor=inherit;fillColor=#ffffff;" vertex="1" parent="YqBTJiR8Vr2jeuTM6Ofv-680">
          <mxGeometry width="40" height="20" as="geometry" />
        </mxCell>
        <mxCell id="YqBTJiR8Vr2jeuTM6Ofv-682" value="46" style="connectable=0;recursiveResize=0;strokeColor=inherit;fillColor=#A7C942;align=center;fontStyle=1;fontColor=#FFFFFF;html=1;" vertex="1" parent="YqBTJiR8Vr2jeuTM6Ofv-681">
          <mxGeometry width="40" height="20" as="geometry">
            <mxRectangle width="40" height="20" as="alternateBounds" />
          </mxGeometry>
        </mxCell>
        <mxCell id="YqBTJiR8Vr2jeuTM6Ofv-683" value="" style="shape=tableRow;horizontal=0;startSize=0;swimlaneHead=0;swimlaneBody=0;top=0;left=0;bottom=0;right=0;dropTarget=0;collapsible=0;recursiveResize=0;expand=0;fontStyle=1;strokeColor=inherit;fillColor=#EAF2D3;" vertex="1" parent="YqBTJiR8Vr2jeuTM6Ofv-680">
          <mxGeometry y="20" width="40" height="20" as="geometry" />
        </mxCell>
        <mxCell id="YqBTJiR8Vr2jeuTM6Ofv-684" value="data" style="connectable=0;recursiveResize=0;strokeColor=inherit;fillColor=inherit;whiteSpace=wrap;html=1;" vertex="1" parent="YqBTJiR8Vr2jeuTM6Ofv-683">
          <mxGeometry width="40" height="20" as="geometry">
            <mxRectangle width="40" height="20" as="alternateBounds" />
          </mxGeometry>
        </mxCell>
        <mxCell id="YqBTJiR8Vr2jeuTM6Ofv-685" style="edgeStyle=none;shape=connector;rounded=0;orthogonalLoop=1;jettySize=auto;html=1;exitX=0;exitY=1;exitDx=0;exitDy=0;entryX=1;entryY=0;entryDx=0;entryDy=0;labelBackgroundColor=default;strokeColor=#d79b00;align=center;verticalAlign=middle;fontFamily=Helvetica;fontSize=11;fontColor=default;endArrow=classic;fillColor=#ffe6cc;" edge="1" source="YqBTJiR8Vr2jeuTM6Ofv-687" target="YqBTJiR8Vr2jeuTM6Ofv-704" parent="1">
          <mxGeometry relative="1" as="geometry" />
        </mxCell>
        <mxCell id="YqBTJiR8Vr2jeuTM6Ofv-686" style="edgeStyle=none;shape=connector;rounded=0;orthogonalLoop=1;jettySize=auto;html=1;exitX=1;exitY=1;exitDx=0;exitDy=0;entryX=1;entryY=0;entryDx=0;entryDy=0;labelBackgroundColor=default;strokeColor=#d79b00;align=center;verticalAlign=middle;fontFamily=Helvetica;fontSize=11;fontColor=default;endArrow=classic;fillColor=#ffe6cc;" edge="1" source="YqBTJiR8Vr2jeuTM6Ofv-687" target="YqBTJiR8Vr2jeuTM6Ofv-714" parent="1">
          <mxGeometry relative="1" as="geometry" />
        </mxCell>
        <mxCell id="YqBTJiR8Vr2jeuTM6Ofv-687" value="Assets" style="childLayout=tableLayout;recursiveResize=0;strokeColor=#98bf21;fillColor=#A7C942;shadow=1;" vertex="1" parent="1">
          <mxGeometry x="400" y="1760" width="40" height="40" as="geometry" />
        </mxCell>
        <mxCell id="YqBTJiR8Vr2jeuTM6Ofv-688" style="shape=tableRow;horizontal=0;startSize=0;swimlaneHead=0;swimlaneBody=0;top=0;left=0;bottom=0;right=0;dropTarget=0;collapsible=0;recursiveResize=0;expand=0;fontStyle=0;strokeColor=inherit;fillColor=#ffffff;" vertex="1" parent="YqBTJiR8Vr2jeuTM6Ofv-687">
          <mxGeometry width="40" height="20" as="geometry" />
        </mxCell>
        <mxCell id="YqBTJiR8Vr2jeuTM6Ofv-689" value="350" style="connectable=0;recursiveResize=0;strokeColor=inherit;fillColor=#A7C942;align=center;fontStyle=1;fontColor=#FFFFFF;html=1;" vertex="1" parent="YqBTJiR8Vr2jeuTM6Ofv-688">
          <mxGeometry width="40" height="20" as="geometry">
            <mxRectangle width="40" height="20" as="alternateBounds" />
          </mxGeometry>
        </mxCell>
        <mxCell id="YqBTJiR8Vr2jeuTM6Ofv-690" value="" style="shape=tableRow;horizontal=0;startSize=0;swimlaneHead=0;swimlaneBody=0;top=0;left=0;bottom=0;right=0;dropTarget=0;collapsible=0;recursiveResize=0;expand=0;fontStyle=1;strokeColor=inherit;fillColor=#EAF2D3;" vertex="1" parent="YqBTJiR8Vr2jeuTM6Ofv-687">
          <mxGeometry y="20" width="40" height="20" as="geometry" />
        </mxCell>
        <mxCell id="YqBTJiR8Vr2jeuTM6Ofv-691" value="data" style="connectable=0;recursiveResize=0;strokeColor=inherit;fillColor=inherit;whiteSpace=wrap;html=1;" vertex="1" parent="YqBTJiR8Vr2jeuTM6Ofv-690">
          <mxGeometry width="40" height="20" as="geometry">
            <mxRectangle width="40" height="20" as="alternateBounds" />
          </mxGeometry>
        </mxCell>
        <mxCell id="YqBTJiR8Vr2jeuTM6Ofv-692" style="edgeStyle=none;shape=connector;rounded=0;orthogonalLoop=1;jettySize=auto;html=1;exitX=0;exitY=1;exitDx=0;exitDy=0;entryX=1;entryY=0;entryDx=0;entryDy=0;labelBackgroundColor=default;strokeColor=#d79b00;align=center;verticalAlign=middle;fontFamily=Helvetica;fontSize=11;fontColor=default;endArrow=classic;fillColor=#ffe6cc;" edge="1" source="YqBTJiR8Vr2jeuTM6Ofv-693" target="YqBTJiR8Vr2jeuTM6Ofv-754" parent="1">
          <mxGeometry relative="1" as="geometry" />
        </mxCell>
        <mxCell id="YqBTJiR8Vr2jeuTM6Ofv-693" value="Assets" style="childLayout=tableLayout;recursiveResize=0;strokeColor=#98bf21;fillColor=#A7C942;shadow=1;" vertex="1" parent="1">
          <mxGeometry x="360" y="1760" width="40" height="40" as="geometry" />
        </mxCell>
        <mxCell id="YqBTJiR8Vr2jeuTM6Ofv-694" style="shape=tableRow;horizontal=0;startSize=0;swimlaneHead=0;swimlaneBody=0;top=0;left=0;bottom=0;right=0;dropTarget=0;collapsible=0;recursiveResize=0;expand=0;fontStyle=0;strokeColor=inherit;fillColor=#ffffff;" vertex="1" parent="YqBTJiR8Vr2jeuTM6Ofv-693">
          <mxGeometry width="40" height="20" as="geometry" />
        </mxCell>
        <mxCell id="YqBTJiR8Vr2jeuTM6Ofv-695" value="320" style="connectable=0;recursiveResize=0;strokeColor=inherit;fillColor=#A7C942;align=center;fontStyle=1;fontColor=#FFFFFF;html=1;" vertex="1" parent="YqBTJiR8Vr2jeuTM6Ofv-694">
          <mxGeometry width="40" height="20" as="geometry">
            <mxRectangle width="40" height="20" as="alternateBounds" />
          </mxGeometry>
        </mxCell>
        <mxCell id="YqBTJiR8Vr2jeuTM6Ofv-696" value="" style="shape=tableRow;horizontal=0;startSize=0;swimlaneHead=0;swimlaneBody=0;top=0;left=0;bottom=0;right=0;dropTarget=0;collapsible=0;recursiveResize=0;expand=0;fontStyle=1;strokeColor=inherit;fillColor=#EAF2D3;" vertex="1" parent="YqBTJiR8Vr2jeuTM6Ofv-693">
          <mxGeometry y="20" width="40" height="20" as="geometry" />
        </mxCell>
        <mxCell id="YqBTJiR8Vr2jeuTM6Ofv-697" value="data" style="connectable=0;recursiveResize=0;strokeColor=inherit;fillColor=inherit;whiteSpace=wrap;html=1;" vertex="1" parent="YqBTJiR8Vr2jeuTM6Ofv-696">
          <mxGeometry width="40" height="20" as="geometry">
            <mxRectangle width="40" height="20" as="alternateBounds" />
          </mxGeometry>
        </mxCell>
        <mxCell id="YqBTJiR8Vr2jeuTM6Ofv-698" value="Assets" style="childLayout=tableLayout;recursiveResize=0;strokeColor=#98bf21;fillColor=#A7C942;shadow=1;" vertex="1" parent="1">
          <mxGeometry x="560" y="1840" width="40" height="40" as="geometry" />
        </mxCell>
        <mxCell id="YqBTJiR8Vr2jeuTM6Ofv-699" style="shape=tableRow;horizontal=0;startSize=0;swimlaneHead=0;swimlaneBody=0;top=0;left=0;bottom=0;right=0;dropTarget=0;collapsible=0;recursiveResize=0;expand=0;fontStyle=0;strokeColor=inherit;fillColor=#ffffff;" vertex="1" parent="YqBTJiR8Vr2jeuTM6Ofv-698">
          <mxGeometry width="40" height="20" as="geometry" />
        </mxCell>
        <mxCell id="YqBTJiR8Vr2jeuTM6Ofv-700" value="330" style="connectable=0;recursiveResize=0;strokeColor=inherit;fillColor=#A7C942;align=center;fontStyle=1;fontColor=#FFFFFF;html=1;" vertex="1" parent="YqBTJiR8Vr2jeuTM6Ofv-699">
          <mxGeometry width="40" height="20" as="geometry">
            <mxRectangle width="40" height="20" as="alternateBounds" />
          </mxGeometry>
        </mxCell>
        <mxCell id="YqBTJiR8Vr2jeuTM6Ofv-701" value="" style="shape=tableRow;horizontal=0;startSize=0;swimlaneHead=0;swimlaneBody=0;top=0;left=0;bottom=0;right=0;dropTarget=0;collapsible=0;recursiveResize=0;expand=0;fontStyle=1;strokeColor=inherit;fillColor=#EAF2D3;" vertex="1" parent="YqBTJiR8Vr2jeuTM6Ofv-698">
          <mxGeometry y="20" width="40" height="20" as="geometry" />
        </mxCell>
        <mxCell id="YqBTJiR8Vr2jeuTM6Ofv-702" value="data" style="connectable=0;recursiveResize=0;strokeColor=inherit;fillColor=inherit;whiteSpace=wrap;html=1;" vertex="1" parent="YqBTJiR8Vr2jeuTM6Ofv-701">
          <mxGeometry width="40" height="20" as="geometry">
            <mxRectangle width="40" height="20" as="alternateBounds" />
          </mxGeometry>
        </mxCell>
        <mxCell id="YqBTJiR8Vr2jeuTM6Ofv-703" value="Assets" style="childLayout=tableLayout;recursiveResize=0;strokeColor=#98bf21;fillColor=#A7C942;shadow=1;" vertex="1" parent="1">
          <mxGeometry x="520" y="1840" width="40" height="40" as="geometry" />
        </mxCell>
        <mxCell id="YqBTJiR8Vr2jeuTM6Ofv-704" style="shape=tableRow;horizontal=0;startSize=0;swimlaneHead=0;swimlaneBody=0;top=0;left=0;bottom=0;right=0;dropTarget=0;collapsible=0;recursiveResize=0;expand=0;fontStyle=0;strokeColor=inherit;fillColor=#ffffff;" vertex="1" parent="YqBTJiR8Vr2jeuTM6Ofv-703">
          <mxGeometry width="40" height="20" as="geometry" />
        </mxCell>
        <mxCell id="YqBTJiR8Vr2jeuTM6Ofv-705" value="325" style="connectable=0;recursiveResize=0;strokeColor=inherit;fillColor=#A7C942;align=center;fontStyle=1;fontColor=#FFFFFF;html=1;" vertex="1" parent="YqBTJiR8Vr2jeuTM6Ofv-704">
          <mxGeometry width="40" height="20" as="geometry">
            <mxRectangle width="40" height="20" as="alternateBounds" />
          </mxGeometry>
        </mxCell>
        <mxCell id="YqBTJiR8Vr2jeuTM6Ofv-706" value="" style="shape=tableRow;horizontal=0;startSize=0;swimlaneHead=0;swimlaneBody=0;top=0;left=0;bottom=0;right=0;dropTarget=0;collapsible=0;recursiveResize=0;expand=0;fontStyle=1;strokeColor=inherit;fillColor=#EAF2D3;" vertex="1" parent="YqBTJiR8Vr2jeuTM6Ofv-703">
          <mxGeometry y="20" width="40" height="20" as="geometry" />
        </mxCell>
        <mxCell id="YqBTJiR8Vr2jeuTM6Ofv-707" value="data" style="connectable=0;recursiveResize=0;strokeColor=inherit;fillColor=inherit;whiteSpace=wrap;html=1;" vertex="1" parent="YqBTJiR8Vr2jeuTM6Ofv-706">
          <mxGeometry width="40" height="20" as="geometry">
            <mxRectangle width="40" height="20" as="alternateBounds" />
          </mxGeometry>
        </mxCell>
        <mxCell id="YqBTJiR8Vr2jeuTM6Ofv-708" value="Assets" style="childLayout=tableLayout;recursiveResize=0;strokeColor=#98bf21;fillColor=#A7C942;shadow=1;" vertex="1" parent="1">
          <mxGeometry x="680" y="1840" width="40" height="40" as="geometry" />
        </mxCell>
        <mxCell id="YqBTJiR8Vr2jeuTM6Ofv-709" style="shape=tableRow;horizontal=0;startSize=0;swimlaneHead=0;swimlaneBody=0;top=0;left=0;bottom=0;right=0;dropTarget=0;collapsible=0;recursiveResize=0;expand=0;fontStyle=0;strokeColor=inherit;fillColor=#ffffff;" vertex="1" parent="YqBTJiR8Vr2jeuTM6Ofv-708">
          <mxGeometry width="40" height="20" as="geometry" />
        </mxCell>
        <mxCell id="YqBTJiR8Vr2jeuTM6Ofv-710" value="450" style="connectable=0;recursiveResize=0;strokeColor=inherit;fillColor=#A7C942;align=center;fontStyle=1;fontColor=#FFFFFF;html=1;" vertex="1" parent="YqBTJiR8Vr2jeuTM6Ofv-709">
          <mxGeometry width="40" height="20" as="geometry">
            <mxRectangle width="40" height="20" as="alternateBounds" />
          </mxGeometry>
        </mxCell>
        <mxCell id="YqBTJiR8Vr2jeuTM6Ofv-711" value="" style="shape=tableRow;horizontal=0;startSize=0;swimlaneHead=0;swimlaneBody=0;top=0;left=0;bottom=0;right=0;dropTarget=0;collapsible=0;recursiveResize=0;expand=0;fontStyle=1;strokeColor=inherit;fillColor=#EAF2D3;" vertex="1" parent="YqBTJiR8Vr2jeuTM6Ofv-708">
          <mxGeometry y="20" width="40" height="20" as="geometry" />
        </mxCell>
        <mxCell id="YqBTJiR8Vr2jeuTM6Ofv-712" value="data" style="connectable=0;recursiveResize=0;strokeColor=inherit;fillColor=inherit;whiteSpace=wrap;html=1;" vertex="1" parent="YqBTJiR8Vr2jeuTM6Ofv-711">
          <mxGeometry width="40" height="20" as="geometry">
            <mxRectangle width="40" height="20" as="alternateBounds" />
          </mxGeometry>
        </mxCell>
        <mxCell id="YqBTJiR8Vr2jeuTM6Ofv-713" value="Assets" style="childLayout=tableLayout;recursiveResize=0;strokeColor=#98bf21;fillColor=#A7C942;shadow=1;" vertex="1" parent="1">
          <mxGeometry x="640" y="1840" width="40" height="40" as="geometry" />
        </mxCell>
        <mxCell id="YqBTJiR8Vr2jeuTM6Ofv-714" style="shape=tableRow;horizontal=0;startSize=0;swimlaneHead=0;swimlaneBody=0;top=0;left=0;bottom=0;right=0;dropTarget=0;collapsible=0;recursiveResize=0;expand=0;fontStyle=0;strokeColor=inherit;fillColor=#ffffff;" vertex="1" parent="YqBTJiR8Vr2jeuTM6Ofv-713">
          <mxGeometry width="40" height="20" as="geometry" />
        </mxCell>
        <mxCell id="YqBTJiR8Vr2jeuTM6Ofv-715" value="400" style="connectable=0;recursiveResize=0;strokeColor=inherit;fillColor=#A7C942;align=center;fontStyle=1;fontColor=#FFFFFF;html=1;" vertex="1" parent="YqBTJiR8Vr2jeuTM6Ofv-714">
          <mxGeometry width="40" height="20" as="geometry">
            <mxRectangle width="40" height="20" as="alternateBounds" />
          </mxGeometry>
        </mxCell>
        <mxCell id="YqBTJiR8Vr2jeuTM6Ofv-716" value="" style="shape=tableRow;horizontal=0;startSize=0;swimlaneHead=0;swimlaneBody=0;top=0;left=0;bottom=0;right=0;dropTarget=0;collapsible=0;recursiveResize=0;expand=0;fontStyle=1;strokeColor=inherit;fillColor=#EAF2D3;" vertex="1" parent="YqBTJiR8Vr2jeuTM6Ofv-713">
          <mxGeometry y="20" width="40" height="20" as="geometry" />
        </mxCell>
        <mxCell id="YqBTJiR8Vr2jeuTM6Ofv-717" value="data" style="connectable=0;recursiveResize=0;strokeColor=inherit;fillColor=inherit;whiteSpace=wrap;html=1;" vertex="1" parent="YqBTJiR8Vr2jeuTM6Ofv-716">
          <mxGeometry width="40" height="20" as="geometry">
            <mxRectangle width="40" height="20" as="alternateBounds" />
          </mxGeometry>
        </mxCell>
        <mxCell id="YqBTJiR8Vr2jeuTM6Ofv-718" value="Assets" style="childLayout=tableLayout;recursiveResize=0;strokeColor=#98bf21;fillColor=#A7C942;shadow=1;" vertex="1" parent="1">
          <mxGeometry x="40" y="1840" width="40" height="40" as="geometry" />
        </mxCell>
        <mxCell id="YqBTJiR8Vr2jeuTM6Ofv-719" style="shape=tableRow;horizontal=0;startSize=0;swimlaneHead=0;swimlaneBody=0;top=0;left=0;bottom=0;right=0;dropTarget=0;collapsible=0;recursiveResize=0;expand=0;fontStyle=0;strokeColor=inherit;fillColor=#ffffff;" vertex="1" parent="YqBTJiR8Vr2jeuTM6Ofv-718">
          <mxGeometry width="40" height="20" as="geometry" />
        </mxCell>
        <mxCell id="YqBTJiR8Vr2jeuTM6Ofv-720" value="40" style="connectable=0;recursiveResize=0;strokeColor=inherit;fillColor=#A7C942;align=center;fontStyle=1;fontColor=#FFFFFF;html=1;" vertex="1" parent="YqBTJiR8Vr2jeuTM6Ofv-719">
          <mxGeometry width="40" height="20" as="geometry">
            <mxRectangle width="40" height="20" as="alternateBounds" />
          </mxGeometry>
        </mxCell>
        <mxCell id="YqBTJiR8Vr2jeuTM6Ofv-721" value="" style="shape=tableRow;horizontal=0;startSize=0;swimlaneHead=0;swimlaneBody=0;top=0;left=0;bottom=0;right=0;dropTarget=0;collapsible=0;recursiveResize=0;expand=0;fontStyle=1;strokeColor=inherit;fillColor=#EAF2D3;" vertex="1" parent="YqBTJiR8Vr2jeuTM6Ofv-718">
          <mxGeometry y="20" width="40" height="20" as="geometry" />
        </mxCell>
        <mxCell id="YqBTJiR8Vr2jeuTM6Ofv-722" value="data" style="connectable=0;recursiveResize=0;strokeColor=inherit;fillColor=inherit;whiteSpace=wrap;html=1;" vertex="1" parent="YqBTJiR8Vr2jeuTM6Ofv-721">
          <mxGeometry width="40" height="20" as="geometry">
            <mxRectangle width="40" height="20" as="alternateBounds" />
          </mxGeometry>
        </mxCell>
        <mxCell id="YqBTJiR8Vr2jeuTM6Ofv-723" value="Assets" style="childLayout=tableLayout;recursiveResize=0;strokeColor=#98bf21;fillColor=#A7C942;shadow=1;" vertex="1" parent="1">
          <mxGeometry y="1840" width="40" height="40" as="geometry" />
        </mxCell>
        <mxCell id="YqBTJiR8Vr2jeuTM6Ofv-724" style="shape=tableRow;horizontal=0;startSize=0;swimlaneHead=0;swimlaneBody=0;top=0;left=0;bottom=0;right=0;dropTarget=0;collapsible=0;recursiveResize=0;expand=0;fontStyle=0;strokeColor=inherit;fillColor=#ffffff;" vertex="1" parent="YqBTJiR8Vr2jeuTM6Ofv-723">
          <mxGeometry width="40" height="20" as="geometry" />
        </mxCell>
        <mxCell id="YqBTJiR8Vr2jeuTM6Ofv-725" value="30" style="connectable=0;recursiveResize=0;strokeColor=inherit;fillColor=#A7C942;align=center;fontStyle=1;fontColor=#FFFFFF;html=1;" vertex="1" parent="YqBTJiR8Vr2jeuTM6Ofv-724">
          <mxGeometry width="40" height="20" as="geometry">
            <mxRectangle width="40" height="20" as="alternateBounds" />
          </mxGeometry>
        </mxCell>
        <mxCell id="YqBTJiR8Vr2jeuTM6Ofv-726" value="" style="shape=tableRow;horizontal=0;startSize=0;swimlaneHead=0;swimlaneBody=0;top=0;left=0;bottom=0;right=0;dropTarget=0;collapsible=0;recursiveResize=0;expand=0;fontStyle=1;strokeColor=inherit;fillColor=#EAF2D3;" vertex="1" parent="YqBTJiR8Vr2jeuTM6Ofv-723">
          <mxGeometry y="20" width="40" height="20" as="geometry" />
        </mxCell>
        <mxCell id="YqBTJiR8Vr2jeuTM6Ofv-727" value="data" style="connectable=0;recursiveResize=0;strokeColor=inherit;fillColor=inherit;whiteSpace=wrap;html=1;" vertex="1" parent="YqBTJiR8Vr2jeuTM6Ofv-726">
          <mxGeometry width="40" height="20" as="geometry">
            <mxRectangle width="40" height="20" as="alternateBounds" />
          </mxGeometry>
        </mxCell>
        <mxCell id="YqBTJiR8Vr2jeuTM6Ofv-728" value="Assets" style="childLayout=tableLayout;recursiveResize=0;strokeColor=#98bf21;fillColor=#A7C942;shadow=1;" vertex="1" parent="1">
          <mxGeometry y="1760" width="40" height="40" as="geometry" />
        </mxCell>
        <mxCell id="YqBTJiR8Vr2jeuTM6Ofv-729" style="shape=tableRow;horizontal=0;startSize=0;swimlaneHead=0;swimlaneBody=0;top=0;left=0;bottom=0;right=0;dropTarget=0;collapsible=0;recursiveResize=0;expand=0;fontStyle=0;strokeColor=inherit;fillColor=#ffffff;" vertex="1" parent="YqBTJiR8Vr2jeuTM6Ofv-728">
          <mxGeometry width="40" height="20" as="geometry" />
        </mxCell>
        <mxCell id="YqBTJiR8Vr2jeuTM6Ofv-730" value="90" style="connectable=0;recursiveResize=0;strokeColor=inherit;fillColor=#A7C942;align=center;fontStyle=1;fontColor=#FFFFFF;html=1;" vertex="1" parent="YqBTJiR8Vr2jeuTM6Ofv-729">
          <mxGeometry width="40" height="20" as="geometry">
            <mxRectangle width="40" height="20" as="alternateBounds" />
          </mxGeometry>
        </mxCell>
        <mxCell id="YqBTJiR8Vr2jeuTM6Ofv-731" value="" style="shape=tableRow;horizontal=0;startSize=0;swimlaneHead=0;swimlaneBody=0;top=0;left=0;bottom=0;right=0;dropTarget=0;collapsible=0;recursiveResize=0;expand=0;fontStyle=1;strokeColor=inherit;fillColor=#EAF2D3;" vertex="1" parent="YqBTJiR8Vr2jeuTM6Ofv-728">
          <mxGeometry y="20" width="40" height="20" as="geometry" />
        </mxCell>
        <mxCell id="YqBTJiR8Vr2jeuTM6Ofv-732" value="data" style="connectable=0;recursiveResize=0;strokeColor=inherit;fillColor=inherit;whiteSpace=wrap;html=1;" vertex="1" parent="YqBTJiR8Vr2jeuTM6Ofv-731">
          <mxGeometry width="40" height="20" as="geometry">
            <mxRectangle width="40" height="20" as="alternateBounds" />
          </mxGeometry>
        </mxCell>
        <mxCell id="YqBTJiR8Vr2jeuTM6Ofv-733" value="Assets" style="childLayout=tableLayout;recursiveResize=0;strokeColor=#98bf21;fillColor=#A7C942;shadow=1;" vertex="1" parent="1">
          <mxGeometry x="160" y="1840" width="40" height="40" as="geometry" />
        </mxCell>
        <mxCell id="YqBTJiR8Vr2jeuTM6Ofv-734" style="shape=tableRow;horizontal=0;startSize=0;swimlaneHead=0;swimlaneBody=0;top=0;left=0;bottom=0;right=0;dropTarget=0;collapsible=0;recursiveResize=0;expand=0;fontStyle=0;strokeColor=inherit;fillColor=#ffffff;" vertex="1" parent="YqBTJiR8Vr2jeuTM6Ofv-733">
          <mxGeometry width="40" height="20" as="geometry" />
        </mxCell>
        <mxCell id="YqBTJiR8Vr2jeuTM6Ofv-735" value="70" style="connectable=0;recursiveResize=0;strokeColor=inherit;fillColor=#A7C942;align=center;fontStyle=1;fontColor=#FFFFFF;html=1;" vertex="1" parent="YqBTJiR8Vr2jeuTM6Ofv-734">
          <mxGeometry width="40" height="20" as="geometry">
            <mxRectangle width="40" height="20" as="alternateBounds" />
          </mxGeometry>
        </mxCell>
        <mxCell id="YqBTJiR8Vr2jeuTM6Ofv-736" value="" style="shape=tableRow;horizontal=0;startSize=0;swimlaneHead=0;swimlaneBody=0;top=0;left=0;bottom=0;right=0;dropTarget=0;collapsible=0;recursiveResize=0;expand=0;fontStyle=1;strokeColor=inherit;fillColor=#EAF2D3;" vertex="1" parent="YqBTJiR8Vr2jeuTM6Ofv-733">
          <mxGeometry y="20" width="40" height="20" as="geometry" />
        </mxCell>
        <mxCell id="YqBTJiR8Vr2jeuTM6Ofv-737" value="data" style="connectable=0;recursiveResize=0;strokeColor=inherit;fillColor=inherit;whiteSpace=wrap;html=1;" vertex="1" parent="YqBTJiR8Vr2jeuTM6Ofv-736">
          <mxGeometry width="40" height="20" as="geometry">
            <mxRectangle width="40" height="20" as="alternateBounds" />
          </mxGeometry>
        </mxCell>
        <mxCell id="YqBTJiR8Vr2jeuTM6Ofv-738" value="Assets" style="childLayout=tableLayout;recursiveResize=0;strokeColor=#98bf21;fillColor=#A7C942;shadow=1;" vertex="1" parent="1">
          <mxGeometry x="320" y="1840" width="40" height="40" as="geometry" />
        </mxCell>
        <mxCell id="YqBTJiR8Vr2jeuTM6Ofv-739" style="shape=tableRow;horizontal=0;startSize=0;swimlaneHead=0;swimlaneBody=0;top=0;left=0;bottom=0;right=0;dropTarget=0;collapsible=0;recursiveResize=0;expand=0;fontStyle=0;strokeColor=inherit;fillColor=#ffffff;" vertex="1" parent="YqBTJiR8Vr2jeuTM6Ofv-738">
          <mxGeometry width="40" height="20" as="geometry" />
        </mxCell>
        <mxCell id="YqBTJiR8Vr2jeuTM6Ofv-740" value="100" style="connectable=0;recursiveResize=0;strokeColor=inherit;fillColor=#A7C942;align=center;fontStyle=1;fontColor=#FFFFFF;html=1;" vertex="1" parent="YqBTJiR8Vr2jeuTM6Ofv-739">
          <mxGeometry width="40" height="20" as="geometry">
            <mxRectangle width="40" height="20" as="alternateBounds" />
          </mxGeometry>
        </mxCell>
        <mxCell id="YqBTJiR8Vr2jeuTM6Ofv-741" value="" style="shape=tableRow;horizontal=0;startSize=0;swimlaneHead=0;swimlaneBody=0;top=0;left=0;bottom=0;right=0;dropTarget=0;collapsible=0;recursiveResize=0;expand=0;fontStyle=1;strokeColor=inherit;fillColor=#EAF2D3;" vertex="1" parent="YqBTJiR8Vr2jeuTM6Ofv-738">
          <mxGeometry y="20" width="40" height="20" as="geometry" />
        </mxCell>
        <mxCell id="YqBTJiR8Vr2jeuTM6Ofv-742" value="data" style="connectable=0;recursiveResize=0;strokeColor=inherit;fillColor=inherit;whiteSpace=wrap;html=1;" vertex="1" parent="YqBTJiR8Vr2jeuTM6Ofv-741">
          <mxGeometry width="40" height="20" as="geometry">
            <mxRectangle width="40" height="20" as="alternateBounds" />
          </mxGeometry>
        </mxCell>
        <mxCell id="YqBTJiR8Vr2jeuTM6Ofv-748" value="Assets" style="childLayout=tableLayout;recursiveResize=0;strokeColor=#98bf21;fillColor=#A7C942;shadow=1;" vertex="1" parent="1">
          <mxGeometry x="440" y="1840" width="40" height="40" as="geometry" />
        </mxCell>
        <mxCell id="YqBTJiR8Vr2jeuTM6Ofv-749" style="shape=tableRow;horizontal=0;startSize=0;swimlaneHead=0;swimlaneBody=0;top=0;left=0;bottom=0;right=0;dropTarget=0;collapsible=0;recursiveResize=0;expand=0;fontStyle=0;strokeColor=inherit;fillColor=#ffffff;" vertex="1" parent="YqBTJiR8Vr2jeuTM6Ofv-748">
          <mxGeometry width="40" height="20" as="geometry" />
        </mxCell>
        <mxCell id="YqBTJiR8Vr2jeuTM6Ofv-750" value="300" style="connectable=0;recursiveResize=0;strokeColor=inherit;fillColor=#A7C942;align=center;fontStyle=1;fontColor=#FFFFFF;html=1;" vertex="1" parent="YqBTJiR8Vr2jeuTM6Ofv-749">
          <mxGeometry width="40" height="20" as="geometry">
            <mxRectangle width="40" height="20" as="alternateBounds" />
          </mxGeometry>
        </mxCell>
        <mxCell id="YqBTJiR8Vr2jeuTM6Ofv-751" value="" style="shape=tableRow;horizontal=0;startSize=0;swimlaneHead=0;swimlaneBody=0;top=0;left=0;bottom=0;right=0;dropTarget=0;collapsible=0;recursiveResize=0;expand=0;fontStyle=1;strokeColor=inherit;fillColor=#EAF2D3;" vertex="1" parent="YqBTJiR8Vr2jeuTM6Ofv-748">
          <mxGeometry y="20" width="40" height="20" as="geometry" />
        </mxCell>
        <mxCell id="YqBTJiR8Vr2jeuTM6Ofv-752" value="data" style="connectable=0;recursiveResize=0;strokeColor=inherit;fillColor=inherit;whiteSpace=wrap;html=1;" vertex="1" parent="YqBTJiR8Vr2jeuTM6Ofv-751">
          <mxGeometry width="40" height="20" as="geometry">
            <mxRectangle width="40" height="20" as="alternateBounds" />
          </mxGeometry>
        </mxCell>
        <mxCell id="YqBTJiR8Vr2jeuTM6Ofv-753" value="Assets" style="childLayout=tableLayout;recursiveResize=0;strokeColor=#98bf21;fillColor=#A7C942;shadow=1;" vertex="1" parent="1">
          <mxGeometry x="400" y="1840" width="40" height="40" as="geometry" />
        </mxCell>
        <mxCell id="YqBTJiR8Vr2jeuTM6Ofv-754" style="shape=tableRow;horizontal=0;startSize=0;swimlaneHead=0;swimlaneBody=0;top=0;left=0;bottom=0;right=0;dropTarget=0;collapsible=0;recursiveResize=0;expand=0;fontStyle=0;strokeColor=inherit;fillColor=#ffffff;" vertex="1" parent="YqBTJiR8Vr2jeuTM6Ofv-753">
          <mxGeometry width="40" height="20" as="geometry" />
        </mxCell>
        <mxCell id="YqBTJiR8Vr2jeuTM6Ofv-755" value="200" style="connectable=0;recursiveResize=0;strokeColor=inherit;fillColor=#A7C942;align=center;fontStyle=1;fontColor=#FFFFFF;html=1;" vertex="1" parent="YqBTJiR8Vr2jeuTM6Ofv-754">
          <mxGeometry width="40" height="20" as="geometry">
            <mxRectangle width="40" height="20" as="alternateBounds" />
          </mxGeometry>
        </mxCell>
        <mxCell id="YqBTJiR8Vr2jeuTM6Ofv-756" value="" style="shape=tableRow;horizontal=0;startSize=0;swimlaneHead=0;swimlaneBody=0;top=0;left=0;bottom=0;right=0;dropTarget=0;collapsible=0;recursiveResize=0;expand=0;fontStyle=1;strokeColor=inherit;fillColor=#EAF2D3;" vertex="1" parent="YqBTJiR8Vr2jeuTM6Ofv-753">
          <mxGeometry y="20" width="40" height="20" as="geometry" />
        </mxCell>
        <mxCell id="YqBTJiR8Vr2jeuTM6Ofv-757" value="data" style="connectable=0;recursiveResize=0;strokeColor=inherit;fillColor=inherit;whiteSpace=wrap;html=1;" vertex="1" parent="YqBTJiR8Vr2jeuTM6Ofv-756">
          <mxGeometry width="40" height="20" as="geometry">
            <mxRectangle width="40" height="20" as="alternateBounds" />
          </mxGeometry>
        </mxCell>
        <mxCell id="YqBTJiR8Vr2jeuTM6Ofv-758" value="Assets" style="childLayout=tableLayout;recursiveResize=0;strokeColor=#98bf21;fillColor=#A7C942;shadow=1;" vertex="1" parent="1">
          <mxGeometry x="120" y="1840" width="40" height="40" as="geometry" />
        </mxCell>
        <mxCell id="YqBTJiR8Vr2jeuTM6Ofv-759" style="shape=tableRow;horizontal=0;startSize=0;swimlaneHead=0;swimlaneBody=0;top=0;left=0;bottom=0;right=0;dropTarget=0;collapsible=0;recursiveResize=0;expand=0;fontStyle=0;strokeColor=inherit;fillColor=#ffffff;" vertex="1" parent="YqBTJiR8Vr2jeuTM6Ofv-758">
          <mxGeometry width="40" height="20" as="geometry" />
        </mxCell>
        <mxCell id="YqBTJiR8Vr2jeuTM6Ofv-760" value="50" style="connectable=0;recursiveResize=0;strokeColor=inherit;fillColor=#A7C942;align=center;fontStyle=1;fontColor=#FFFFFF;html=1;" vertex="1" parent="YqBTJiR8Vr2jeuTM6Ofv-759">
          <mxGeometry width="40" height="20" as="geometry">
            <mxRectangle width="40" height="20" as="alternateBounds" />
          </mxGeometry>
        </mxCell>
        <mxCell id="YqBTJiR8Vr2jeuTM6Ofv-761" value="" style="shape=tableRow;horizontal=0;startSize=0;swimlaneHead=0;swimlaneBody=0;top=0;left=0;bottom=0;right=0;dropTarget=0;collapsible=0;recursiveResize=0;expand=0;fontStyle=1;strokeColor=inherit;fillColor=#EAF2D3;" vertex="1" parent="YqBTJiR8Vr2jeuTM6Ofv-758">
          <mxGeometry y="20" width="40" height="20" as="geometry" />
        </mxCell>
        <mxCell id="YqBTJiR8Vr2jeuTM6Ofv-762" value="data" style="connectable=0;recursiveResize=0;strokeColor=inherit;fillColor=inherit;whiteSpace=wrap;html=1;" vertex="1" parent="YqBTJiR8Vr2jeuTM6Ofv-761">
          <mxGeometry width="40" height="20" as="geometry">
            <mxRectangle width="40" height="20" as="alternateBounds" />
          </mxGeometry>
        </mxCell>
        <mxCell id="YqBTJiR8Vr2jeuTM6Ofv-763" style="rounded=0;orthogonalLoop=1;jettySize=auto;html=1;exitX=0;exitY=1;exitDx=0;exitDy=0;entryX=0;entryY=0;entryDx=0;entryDy=0;fillColor=#ffe6cc;strokeColor=#d79b00;" edge="1" source="YqBTJiR8Vr2jeuTM6Ofv-683" target="YqBTJiR8Vr2jeuTM6Ofv-719" parent="1">
          <mxGeometry relative="1" as="geometry" />
        </mxCell>
        <mxCell id="YqBTJiR8Vr2jeuTM6Ofv-765" style="edgeStyle=none;shape=connector;rounded=0;orthogonalLoop=1;jettySize=auto;html=1;exitX=1;exitY=1;exitDx=0;exitDy=0;entryX=1;entryY=0;entryDx=0;entryDy=0;labelBackgroundColor=default;strokeColor=#d79b00;align=center;verticalAlign=middle;fontFamily=Helvetica;fontSize=11;fontColor=default;endArrow=classic;fillColor=#ffe6cc;" edge="1" source="YqBTJiR8Vr2jeuTM6Ofv-766" target="YqBTJiR8Vr2jeuTM6Ofv-792" parent="1">
          <mxGeometry relative="1" as="geometry" />
        </mxCell>
        <mxCell id="YqBTJiR8Vr2jeuTM6Ofv-766" value="Assets" style="childLayout=tableLayout;recursiveResize=0;strokeColor=#98bf21;fillColor=#A7C942;shadow=1;" vertex="1" parent="1">
          <mxGeometry x="320" y="1920" width="40" height="40" as="geometry" />
        </mxCell>
        <mxCell id="YqBTJiR8Vr2jeuTM6Ofv-767" style="shape=tableRow;horizontal=0;startSize=0;swimlaneHead=0;swimlaneBody=0;top=0;left=0;bottom=0;right=0;dropTarget=0;collapsible=0;recursiveResize=0;expand=0;fontStyle=0;strokeColor=inherit;fillColor=#ffffff;" vertex="1" parent="YqBTJiR8Vr2jeuTM6Ofv-766">
          <mxGeometry width="40" height="20" as="geometry" />
        </mxCell>
        <mxCell id="YqBTJiR8Vr2jeuTM6Ofv-768" value="150" style="connectable=0;recursiveResize=0;strokeColor=inherit;fillColor=#A7C942;align=center;fontStyle=1;fontColor=#FFFFFF;html=1;" vertex="1" parent="YqBTJiR8Vr2jeuTM6Ofv-767">
          <mxGeometry width="40" height="20" as="geometry">
            <mxRectangle width="40" height="20" as="alternateBounds" />
          </mxGeometry>
        </mxCell>
        <mxCell id="YqBTJiR8Vr2jeuTM6Ofv-769" value="" style="shape=tableRow;horizontal=0;startSize=0;swimlaneHead=0;swimlaneBody=0;top=0;left=0;bottom=0;right=0;dropTarget=0;collapsible=0;recursiveResize=0;expand=0;fontStyle=1;strokeColor=inherit;fillColor=#EAF2D3;" vertex="1" parent="YqBTJiR8Vr2jeuTM6Ofv-766">
          <mxGeometry y="20" width="40" height="20" as="geometry" />
        </mxCell>
        <mxCell id="YqBTJiR8Vr2jeuTM6Ofv-770" value="data" style="connectable=0;recursiveResize=0;strokeColor=inherit;fillColor=inherit;whiteSpace=wrap;html=1;" vertex="1" parent="YqBTJiR8Vr2jeuTM6Ofv-769">
          <mxGeometry width="40" height="20" as="geometry">
            <mxRectangle width="40" height="20" as="alternateBounds" />
          </mxGeometry>
        </mxCell>
        <mxCell id="YqBTJiR8Vr2jeuTM6Ofv-857" style="edgeStyle=none;shape=connector;rounded=0;orthogonalLoop=1;jettySize=auto;html=1;exitX=1;exitY=1;exitDx=0;exitDy=0;entryX=1;entryY=0;entryDx=0;entryDy=0;labelBackgroundColor=default;strokeColor=#d79b00;align=center;verticalAlign=middle;fontFamily=Helvetica;fontSize=11;fontColor=default;endArrow=classic;fillColor=#ffe6cc;" edge="1" parent="1" source="YqBTJiR8Vr2jeuTM6Ofv-778" target="YqBTJiR8Vr2jeuTM6Ofv-832">
          <mxGeometry relative="1" as="geometry" />
        </mxCell>
        <mxCell id="YqBTJiR8Vr2jeuTM6Ofv-778" value="Assets" style="childLayout=tableLayout;recursiveResize=0;strokeColor=#98bf21;fillColor=#A7C942;shadow=1;" vertex="1" parent="1">
          <mxGeometry x="240" y="2000" width="40" height="40" as="geometry" />
        </mxCell>
        <mxCell id="YqBTJiR8Vr2jeuTM6Ofv-779" style="shape=tableRow;horizontal=0;startSize=0;swimlaneHead=0;swimlaneBody=0;top=0;left=0;bottom=0;right=0;dropTarget=0;collapsible=0;recursiveResize=0;expand=0;fontStyle=0;strokeColor=inherit;fillColor=#ffffff;" vertex="1" parent="YqBTJiR8Vr2jeuTM6Ofv-778">
          <mxGeometry width="40" height="20" as="geometry" />
        </mxCell>
        <mxCell id="YqBTJiR8Vr2jeuTM6Ofv-780" value="46" style="connectable=0;recursiveResize=0;strokeColor=inherit;fillColor=#A7C942;align=center;fontStyle=1;fontColor=#FFFFFF;html=1;" vertex="1" parent="YqBTJiR8Vr2jeuTM6Ofv-779">
          <mxGeometry width="40" height="20" as="geometry">
            <mxRectangle width="40" height="20" as="alternateBounds" />
          </mxGeometry>
        </mxCell>
        <mxCell id="YqBTJiR8Vr2jeuTM6Ofv-781" value="" style="shape=tableRow;horizontal=0;startSize=0;swimlaneHead=0;swimlaneBody=0;top=0;left=0;bottom=0;right=0;dropTarget=0;collapsible=0;recursiveResize=0;expand=0;fontStyle=1;strokeColor=inherit;fillColor=#EAF2D3;" vertex="1" parent="YqBTJiR8Vr2jeuTM6Ofv-778">
          <mxGeometry y="20" width="40" height="20" as="geometry" />
        </mxCell>
        <mxCell id="YqBTJiR8Vr2jeuTM6Ofv-782" value="data" style="connectable=0;recursiveResize=0;strokeColor=inherit;fillColor=inherit;whiteSpace=wrap;html=1;" vertex="1" parent="YqBTJiR8Vr2jeuTM6Ofv-781">
          <mxGeometry width="40" height="20" as="geometry">
            <mxRectangle width="40" height="20" as="alternateBounds" />
          </mxGeometry>
        </mxCell>
        <mxCell id="YqBTJiR8Vr2jeuTM6Ofv-783" style="edgeStyle=none;shape=connector;rounded=0;orthogonalLoop=1;jettySize=auto;html=1;exitX=0;exitY=1;exitDx=0;exitDy=0;entryX=1;entryY=0;entryDx=0;entryDy=0;labelBackgroundColor=default;strokeColor=#d79b00;align=center;verticalAlign=middle;fontFamily=Helvetica;fontSize=11;fontColor=default;endArrow=classic;fillColor=#ffe6cc;" edge="1" source="YqBTJiR8Vr2jeuTM6Ofv-785" target="YqBTJiR8Vr2jeuTM6Ofv-802" parent="1">
          <mxGeometry relative="1" as="geometry" />
        </mxCell>
        <mxCell id="YqBTJiR8Vr2jeuTM6Ofv-784" style="edgeStyle=none;shape=connector;rounded=0;orthogonalLoop=1;jettySize=auto;html=1;exitX=1;exitY=1;exitDx=0;exitDy=0;entryX=1;entryY=0;entryDx=0;entryDy=0;labelBackgroundColor=default;strokeColor=#d79b00;align=center;verticalAlign=middle;fontFamily=Helvetica;fontSize=11;fontColor=default;endArrow=classic;fillColor=#ffe6cc;" edge="1" source="YqBTJiR8Vr2jeuTM6Ofv-785" target="YqBTJiR8Vr2jeuTM6Ofv-812" parent="1">
          <mxGeometry relative="1" as="geometry" />
        </mxCell>
        <mxCell id="YqBTJiR8Vr2jeuTM6Ofv-785" value="Assets" style="childLayout=tableLayout;recursiveResize=0;strokeColor=#98bf21;fillColor=#A7C942;shadow=1;" vertex="1" parent="1">
          <mxGeometry x="400" y="2000" width="40" height="40" as="geometry" />
        </mxCell>
        <mxCell id="YqBTJiR8Vr2jeuTM6Ofv-786" style="shape=tableRow;horizontal=0;startSize=0;swimlaneHead=0;swimlaneBody=0;top=0;left=0;bottom=0;right=0;dropTarget=0;collapsible=0;recursiveResize=0;expand=0;fontStyle=0;strokeColor=inherit;fillColor=#ffffff;" vertex="1" parent="YqBTJiR8Vr2jeuTM6Ofv-785">
          <mxGeometry width="40" height="20" as="geometry" />
        </mxCell>
        <mxCell id="YqBTJiR8Vr2jeuTM6Ofv-787" value="350" style="connectable=0;recursiveResize=0;strokeColor=inherit;fillColor=#A7C942;align=center;fontStyle=1;fontColor=#FFFFFF;html=1;" vertex="1" parent="YqBTJiR8Vr2jeuTM6Ofv-786">
          <mxGeometry width="40" height="20" as="geometry">
            <mxRectangle width="40" height="20" as="alternateBounds" />
          </mxGeometry>
        </mxCell>
        <mxCell id="YqBTJiR8Vr2jeuTM6Ofv-788" value="" style="shape=tableRow;horizontal=0;startSize=0;swimlaneHead=0;swimlaneBody=0;top=0;left=0;bottom=0;right=0;dropTarget=0;collapsible=0;recursiveResize=0;expand=0;fontStyle=1;strokeColor=inherit;fillColor=#EAF2D3;" vertex="1" parent="YqBTJiR8Vr2jeuTM6Ofv-785">
          <mxGeometry y="20" width="40" height="20" as="geometry" />
        </mxCell>
        <mxCell id="YqBTJiR8Vr2jeuTM6Ofv-789" value="data" style="connectable=0;recursiveResize=0;strokeColor=inherit;fillColor=inherit;whiteSpace=wrap;html=1;" vertex="1" parent="YqBTJiR8Vr2jeuTM6Ofv-788">
          <mxGeometry width="40" height="20" as="geometry">
            <mxRectangle width="40" height="20" as="alternateBounds" />
          </mxGeometry>
        </mxCell>
        <mxCell id="YqBTJiR8Vr2jeuTM6Ofv-790" style="edgeStyle=none;shape=connector;rounded=0;orthogonalLoop=1;jettySize=auto;html=1;exitX=0;exitY=1;exitDx=0;exitDy=0;entryX=1;entryY=0;entryDx=0;entryDy=0;labelBackgroundColor=default;strokeColor=#d79b00;align=center;verticalAlign=middle;fontFamily=Helvetica;fontSize=11;fontColor=default;endArrow=classic;fillColor=#ffe6cc;" edge="1" source="YqBTJiR8Vr2jeuTM6Ofv-791" target="YqBTJiR8Vr2jeuTM6Ofv-847" parent="1">
          <mxGeometry relative="1" as="geometry" />
        </mxCell>
        <mxCell id="YqBTJiR8Vr2jeuTM6Ofv-791" value="Assets" style="childLayout=tableLayout;recursiveResize=0;strokeColor=#98bf21;fillColor=#A7C942;shadow=1;" vertex="1" parent="1">
          <mxGeometry x="360" y="2000" width="40" height="40" as="geometry" />
        </mxCell>
        <mxCell id="YqBTJiR8Vr2jeuTM6Ofv-792" style="shape=tableRow;horizontal=0;startSize=0;swimlaneHead=0;swimlaneBody=0;top=0;left=0;bottom=0;right=0;dropTarget=0;collapsible=0;recursiveResize=0;expand=0;fontStyle=0;strokeColor=inherit;fillColor=#ffffff;" vertex="1" parent="YqBTJiR8Vr2jeuTM6Ofv-791">
          <mxGeometry width="40" height="20" as="geometry" />
        </mxCell>
        <mxCell id="YqBTJiR8Vr2jeuTM6Ofv-793" value="320" style="connectable=0;recursiveResize=0;strokeColor=inherit;fillColor=#A7C942;align=center;fontStyle=1;fontColor=#FFFFFF;html=1;" vertex="1" parent="YqBTJiR8Vr2jeuTM6Ofv-792">
          <mxGeometry width="40" height="20" as="geometry">
            <mxRectangle width="40" height="20" as="alternateBounds" />
          </mxGeometry>
        </mxCell>
        <mxCell id="YqBTJiR8Vr2jeuTM6Ofv-794" value="" style="shape=tableRow;horizontal=0;startSize=0;swimlaneHead=0;swimlaneBody=0;top=0;left=0;bottom=0;right=0;dropTarget=0;collapsible=0;recursiveResize=0;expand=0;fontStyle=1;strokeColor=inherit;fillColor=#EAF2D3;" vertex="1" parent="YqBTJiR8Vr2jeuTM6Ofv-791">
          <mxGeometry y="20" width="40" height="20" as="geometry" />
        </mxCell>
        <mxCell id="YqBTJiR8Vr2jeuTM6Ofv-795" value="data" style="connectable=0;recursiveResize=0;strokeColor=inherit;fillColor=inherit;whiteSpace=wrap;html=1;" vertex="1" parent="YqBTJiR8Vr2jeuTM6Ofv-794">
          <mxGeometry width="40" height="20" as="geometry">
            <mxRectangle width="40" height="20" as="alternateBounds" />
          </mxGeometry>
        </mxCell>
        <mxCell id="YqBTJiR8Vr2jeuTM6Ofv-796" value="Assets" style="childLayout=tableLayout;recursiveResize=0;strokeColor=#98bf21;fillColor=#A7C942;shadow=1;" vertex="1" parent="1">
          <mxGeometry x="560" y="2080" width="40" height="40" as="geometry" />
        </mxCell>
        <mxCell id="YqBTJiR8Vr2jeuTM6Ofv-797" style="shape=tableRow;horizontal=0;startSize=0;swimlaneHead=0;swimlaneBody=0;top=0;left=0;bottom=0;right=0;dropTarget=0;collapsible=0;recursiveResize=0;expand=0;fontStyle=0;strokeColor=inherit;fillColor=#ffffff;" vertex="1" parent="YqBTJiR8Vr2jeuTM6Ofv-796">
          <mxGeometry width="40" height="20" as="geometry" />
        </mxCell>
        <mxCell id="YqBTJiR8Vr2jeuTM6Ofv-798" value="330" style="connectable=0;recursiveResize=0;strokeColor=inherit;fillColor=#A7C942;align=center;fontStyle=1;fontColor=#FFFFFF;html=1;" vertex="1" parent="YqBTJiR8Vr2jeuTM6Ofv-797">
          <mxGeometry width="40" height="20" as="geometry">
            <mxRectangle width="40" height="20" as="alternateBounds" />
          </mxGeometry>
        </mxCell>
        <mxCell id="YqBTJiR8Vr2jeuTM6Ofv-799" value="" style="shape=tableRow;horizontal=0;startSize=0;swimlaneHead=0;swimlaneBody=0;top=0;left=0;bottom=0;right=0;dropTarget=0;collapsible=0;recursiveResize=0;expand=0;fontStyle=1;strokeColor=inherit;fillColor=#EAF2D3;" vertex="1" parent="YqBTJiR8Vr2jeuTM6Ofv-796">
          <mxGeometry y="20" width="40" height="20" as="geometry" />
        </mxCell>
        <mxCell id="YqBTJiR8Vr2jeuTM6Ofv-800" value="data" style="connectable=0;recursiveResize=0;strokeColor=inherit;fillColor=inherit;whiteSpace=wrap;html=1;" vertex="1" parent="YqBTJiR8Vr2jeuTM6Ofv-799">
          <mxGeometry width="40" height="20" as="geometry">
            <mxRectangle width="40" height="20" as="alternateBounds" />
          </mxGeometry>
        </mxCell>
        <mxCell id="YqBTJiR8Vr2jeuTM6Ofv-801" value="Assets" style="childLayout=tableLayout;recursiveResize=0;strokeColor=#98bf21;fillColor=#A7C942;shadow=1;" vertex="1" parent="1">
          <mxGeometry x="520" y="2080" width="40" height="40" as="geometry" />
        </mxCell>
        <mxCell id="YqBTJiR8Vr2jeuTM6Ofv-802" style="shape=tableRow;horizontal=0;startSize=0;swimlaneHead=0;swimlaneBody=0;top=0;left=0;bottom=0;right=0;dropTarget=0;collapsible=0;recursiveResize=0;expand=0;fontStyle=0;strokeColor=inherit;fillColor=#ffffff;" vertex="1" parent="YqBTJiR8Vr2jeuTM6Ofv-801">
          <mxGeometry width="40" height="20" as="geometry" />
        </mxCell>
        <mxCell id="YqBTJiR8Vr2jeuTM6Ofv-803" value="325" style="connectable=0;recursiveResize=0;strokeColor=inherit;fillColor=#A7C942;align=center;fontStyle=1;fontColor=#FFFFFF;html=1;" vertex="1" parent="YqBTJiR8Vr2jeuTM6Ofv-802">
          <mxGeometry width="40" height="20" as="geometry">
            <mxRectangle width="40" height="20" as="alternateBounds" />
          </mxGeometry>
        </mxCell>
        <mxCell id="YqBTJiR8Vr2jeuTM6Ofv-804" value="" style="shape=tableRow;horizontal=0;startSize=0;swimlaneHead=0;swimlaneBody=0;top=0;left=0;bottom=0;right=0;dropTarget=0;collapsible=0;recursiveResize=0;expand=0;fontStyle=1;strokeColor=inherit;fillColor=#EAF2D3;" vertex="1" parent="YqBTJiR8Vr2jeuTM6Ofv-801">
          <mxGeometry y="20" width="40" height="20" as="geometry" />
        </mxCell>
        <mxCell id="YqBTJiR8Vr2jeuTM6Ofv-805" value="data" style="connectable=0;recursiveResize=0;strokeColor=inherit;fillColor=inherit;whiteSpace=wrap;html=1;" vertex="1" parent="YqBTJiR8Vr2jeuTM6Ofv-804">
          <mxGeometry width="40" height="20" as="geometry">
            <mxRectangle width="40" height="20" as="alternateBounds" />
          </mxGeometry>
        </mxCell>
        <mxCell id="YqBTJiR8Vr2jeuTM6Ofv-806" value="Assets" style="childLayout=tableLayout;recursiveResize=0;strokeColor=#98bf21;fillColor=#A7C942;shadow=1;" vertex="1" parent="1">
          <mxGeometry x="680" y="2080" width="40" height="40" as="geometry" />
        </mxCell>
        <mxCell id="YqBTJiR8Vr2jeuTM6Ofv-807" style="shape=tableRow;horizontal=0;startSize=0;swimlaneHead=0;swimlaneBody=0;top=0;left=0;bottom=0;right=0;dropTarget=0;collapsible=0;recursiveResize=0;expand=0;fontStyle=0;strokeColor=inherit;fillColor=#ffffff;" vertex="1" parent="YqBTJiR8Vr2jeuTM6Ofv-806">
          <mxGeometry width="40" height="20" as="geometry" />
        </mxCell>
        <mxCell id="YqBTJiR8Vr2jeuTM6Ofv-808" value="450" style="connectable=0;recursiveResize=0;strokeColor=inherit;fillColor=#A7C942;align=center;fontStyle=1;fontColor=#FFFFFF;html=1;" vertex="1" parent="YqBTJiR8Vr2jeuTM6Ofv-807">
          <mxGeometry width="40" height="20" as="geometry">
            <mxRectangle width="40" height="20" as="alternateBounds" />
          </mxGeometry>
        </mxCell>
        <mxCell id="YqBTJiR8Vr2jeuTM6Ofv-809" value="" style="shape=tableRow;horizontal=0;startSize=0;swimlaneHead=0;swimlaneBody=0;top=0;left=0;bottom=0;right=0;dropTarget=0;collapsible=0;recursiveResize=0;expand=0;fontStyle=1;strokeColor=inherit;fillColor=#EAF2D3;" vertex="1" parent="YqBTJiR8Vr2jeuTM6Ofv-806">
          <mxGeometry y="20" width="40" height="20" as="geometry" />
        </mxCell>
        <mxCell id="YqBTJiR8Vr2jeuTM6Ofv-810" value="data" style="connectable=0;recursiveResize=0;strokeColor=inherit;fillColor=inherit;whiteSpace=wrap;html=1;" vertex="1" parent="YqBTJiR8Vr2jeuTM6Ofv-809">
          <mxGeometry width="40" height="20" as="geometry">
            <mxRectangle width="40" height="20" as="alternateBounds" />
          </mxGeometry>
        </mxCell>
        <mxCell id="YqBTJiR8Vr2jeuTM6Ofv-811" value="Assets" style="childLayout=tableLayout;recursiveResize=0;strokeColor=#98bf21;fillColor=#A7C942;shadow=1;" vertex="1" parent="1">
          <mxGeometry x="640" y="2080" width="40" height="40" as="geometry" />
        </mxCell>
        <mxCell id="YqBTJiR8Vr2jeuTM6Ofv-812" style="shape=tableRow;horizontal=0;startSize=0;swimlaneHead=0;swimlaneBody=0;top=0;left=0;bottom=0;right=0;dropTarget=0;collapsible=0;recursiveResize=0;expand=0;fontStyle=0;strokeColor=inherit;fillColor=#ffffff;" vertex="1" parent="YqBTJiR8Vr2jeuTM6Ofv-811">
          <mxGeometry width="40" height="20" as="geometry" />
        </mxCell>
        <mxCell id="YqBTJiR8Vr2jeuTM6Ofv-813" value="400" style="connectable=0;recursiveResize=0;strokeColor=inherit;fillColor=#A7C942;align=center;fontStyle=1;fontColor=#FFFFFF;html=1;" vertex="1" parent="YqBTJiR8Vr2jeuTM6Ofv-812">
          <mxGeometry width="40" height="20" as="geometry">
            <mxRectangle width="40" height="20" as="alternateBounds" />
          </mxGeometry>
        </mxCell>
        <mxCell id="YqBTJiR8Vr2jeuTM6Ofv-814" value="" style="shape=tableRow;horizontal=0;startSize=0;swimlaneHead=0;swimlaneBody=0;top=0;left=0;bottom=0;right=0;dropTarget=0;collapsible=0;recursiveResize=0;expand=0;fontStyle=1;strokeColor=inherit;fillColor=#EAF2D3;" vertex="1" parent="YqBTJiR8Vr2jeuTM6Ofv-811">
          <mxGeometry y="20" width="40" height="20" as="geometry" />
        </mxCell>
        <mxCell id="YqBTJiR8Vr2jeuTM6Ofv-815" value="data" style="connectable=0;recursiveResize=0;strokeColor=inherit;fillColor=inherit;whiteSpace=wrap;html=1;" vertex="1" parent="YqBTJiR8Vr2jeuTM6Ofv-814">
          <mxGeometry width="40" height="20" as="geometry">
            <mxRectangle width="40" height="20" as="alternateBounds" />
          </mxGeometry>
        </mxCell>
        <mxCell id="YqBTJiR8Vr2jeuTM6Ofv-816" value="Assets" style="childLayout=tableLayout;recursiveResize=0;strokeColor=#98bf21;fillColor=#A7C942;shadow=1;" vertex="1" parent="1">
          <mxGeometry x="40" y="2080" width="40" height="40" as="geometry" />
        </mxCell>
        <mxCell id="YqBTJiR8Vr2jeuTM6Ofv-817" style="shape=tableRow;horizontal=0;startSize=0;swimlaneHead=0;swimlaneBody=0;top=0;left=0;bottom=0;right=0;dropTarget=0;collapsible=0;recursiveResize=0;expand=0;fontStyle=0;strokeColor=inherit;fillColor=#ffffff;" vertex="1" parent="YqBTJiR8Vr2jeuTM6Ofv-816">
          <mxGeometry width="40" height="20" as="geometry" />
        </mxCell>
        <mxCell id="YqBTJiR8Vr2jeuTM6Ofv-818" value="40" style="connectable=0;recursiveResize=0;strokeColor=inherit;fillColor=#A7C942;align=center;fontStyle=1;fontColor=#FFFFFF;html=1;" vertex="1" parent="YqBTJiR8Vr2jeuTM6Ofv-817">
          <mxGeometry width="40" height="20" as="geometry">
            <mxRectangle width="40" height="20" as="alternateBounds" />
          </mxGeometry>
        </mxCell>
        <mxCell id="YqBTJiR8Vr2jeuTM6Ofv-819" value="" style="shape=tableRow;horizontal=0;startSize=0;swimlaneHead=0;swimlaneBody=0;top=0;left=0;bottom=0;right=0;dropTarget=0;collapsible=0;recursiveResize=0;expand=0;fontStyle=1;strokeColor=inherit;fillColor=#EAF2D3;" vertex="1" parent="YqBTJiR8Vr2jeuTM6Ofv-816">
          <mxGeometry y="20" width="40" height="20" as="geometry" />
        </mxCell>
        <mxCell id="YqBTJiR8Vr2jeuTM6Ofv-820" value="data" style="connectable=0;recursiveResize=0;strokeColor=inherit;fillColor=inherit;whiteSpace=wrap;html=1;" vertex="1" parent="YqBTJiR8Vr2jeuTM6Ofv-819">
          <mxGeometry width="40" height="20" as="geometry">
            <mxRectangle width="40" height="20" as="alternateBounds" />
          </mxGeometry>
        </mxCell>
        <mxCell id="YqBTJiR8Vr2jeuTM6Ofv-821" value="Assets" style="childLayout=tableLayout;recursiveResize=0;strokeColor=#98bf21;fillColor=#A7C942;shadow=1;" vertex="1" parent="1">
          <mxGeometry y="2080" width="40" height="40" as="geometry" />
        </mxCell>
        <mxCell id="YqBTJiR8Vr2jeuTM6Ofv-822" style="shape=tableRow;horizontal=0;startSize=0;swimlaneHead=0;swimlaneBody=0;top=0;left=0;bottom=0;right=0;dropTarget=0;collapsible=0;recursiveResize=0;expand=0;fontStyle=0;strokeColor=inherit;fillColor=#ffffff;" vertex="1" parent="YqBTJiR8Vr2jeuTM6Ofv-821">
          <mxGeometry width="40" height="20" as="geometry" />
        </mxCell>
        <mxCell id="YqBTJiR8Vr2jeuTM6Ofv-823" value="30" style="connectable=0;recursiveResize=0;strokeColor=inherit;fillColor=#A7C942;align=center;fontStyle=1;fontColor=#FFFFFF;html=1;" vertex="1" parent="YqBTJiR8Vr2jeuTM6Ofv-822">
          <mxGeometry width="40" height="20" as="geometry">
            <mxRectangle width="40" height="20" as="alternateBounds" />
          </mxGeometry>
        </mxCell>
        <mxCell id="YqBTJiR8Vr2jeuTM6Ofv-824" value="" style="shape=tableRow;horizontal=0;startSize=0;swimlaneHead=0;swimlaneBody=0;top=0;left=0;bottom=0;right=0;dropTarget=0;collapsible=0;recursiveResize=0;expand=0;fontStyle=1;strokeColor=inherit;fillColor=#EAF2D3;" vertex="1" parent="YqBTJiR8Vr2jeuTM6Ofv-821">
          <mxGeometry y="20" width="40" height="20" as="geometry" />
        </mxCell>
        <mxCell id="YqBTJiR8Vr2jeuTM6Ofv-825" value="data" style="connectable=0;recursiveResize=0;strokeColor=inherit;fillColor=inherit;whiteSpace=wrap;html=1;" vertex="1" parent="YqBTJiR8Vr2jeuTM6Ofv-824">
          <mxGeometry width="40" height="20" as="geometry">
            <mxRectangle width="40" height="20" as="alternateBounds" />
          </mxGeometry>
        </mxCell>
        <mxCell id="YqBTJiR8Vr2jeuTM6Ofv-826" value="Assets" style="childLayout=tableLayout;recursiveResize=0;strokeColor=#98bf21;fillColor=#A7C942;shadow=1;" vertex="1" parent="1">
          <mxGeometry y="2000" width="40" height="40" as="geometry" />
        </mxCell>
        <mxCell id="YqBTJiR8Vr2jeuTM6Ofv-827" style="shape=tableRow;horizontal=0;startSize=0;swimlaneHead=0;swimlaneBody=0;top=0;left=0;bottom=0;right=0;dropTarget=0;collapsible=0;recursiveResize=0;expand=0;fontStyle=0;strokeColor=inherit;fillColor=#ffffff;" vertex="1" parent="YqBTJiR8Vr2jeuTM6Ofv-826">
          <mxGeometry width="40" height="20" as="geometry" />
        </mxCell>
        <mxCell id="YqBTJiR8Vr2jeuTM6Ofv-828" value="90" style="connectable=0;recursiveResize=0;strokeColor=inherit;fillColor=#A7C942;align=center;fontStyle=1;fontColor=#FFFFFF;html=1;" vertex="1" parent="YqBTJiR8Vr2jeuTM6Ofv-827">
          <mxGeometry width="40" height="20" as="geometry">
            <mxRectangle width="40" height="20" as="alternateBounds" />
          </mxGeometry>
        </mxCell>
        <mxCell id="YqBTJiR8Vr2jeuTM6Ofv-829" value="" style="shape=tableRow;horizontal=0;startSize=0;swimlaneHead=0;swimlaneBody=0;top=0;left=0;bottom=0;right=0;dropTarget=0;collapsible=0;recursiveResize=0;expand=0;fontStyle=1;strokeColor=inherit;fillColor=#EAF2D3;" vertex="1" parent="YqBTJiR8Vr2jeuTM6Ofv-826">
          <mxGeometry y="20" width="40" height="20" as="geometry" />
        </mxCell>
        <mxCell id="YqBTJiR8Vr2jeuTM6Ofv-830" value="data" style="connectable=0;recursiveResize=0;strokeColor=inherit;fillColor=inherit;whiteSpace=wrap;html=1;" vertex="1" parent="YqBTJiR8Vr2jeuTM6Ofv-829">
          <mxGeometry width="40" height="20" as="geometry">
            <mxRectangle width="40" height="20" as="alternateBounds" />
          </mxGeometry>
        </mxCell>
        <mxCell id="YqBTJiR8Vr2jeuTM6Ofv-831" value="Assets" style="childLayout=tableLayout;recursiveResize=0;strokeColor=#98bf21;fillColor=#A7C942;shadow=1;" vertex="1" parent="1">
          <mxGeometry x="240" y="2080" width="40" height="40" as="geometry" />
        </mxCell>
        <mxCell id="YqBTJiR8Vr2jeuTM6Ofv-832" style="shape=tableRow;horizontal=0;startSize=0;swimlaneHead=0;swimlaneBody=0;top=0;left=0;bottom=0;right=0;dropTarget=0;collapsible=0;recursiveResize=0;expand=0;fontStyle=0;strokeColor=inherit;fillColor=#ffffff;" vertex="1" parent="YqBTJiR8Vr2jeuTM6Ofv-831">
          <mxGeometry width="40" height="20" as="geometry" />
        </mxCell>
        <mxCell id="YqBTJiR8Vr2jeuTM6Ofv-833" value="70" style="connectable=0;recursiveResize=0;strokeColor=inherit;fillColor=#A7C942;align=center;fontStyle=1;fontColor=#FFFFFF;html=1;" vertex="1" parent="YqBTJiR8Vr2jeuTM6Ofv-832">
          <mxGeometry width="40" height="20" as="geometry">
            <mxRectangle width="40" height="20" as="alternateBounds" />
          </mxGeometry>
        </mxCell>
        <mxCell id="YqBTJiR8Vr2jeuTM6Ofv-834" value="" style="shape=tableRow;horizontal=0;startSize=0;swimlaneHead=0;swimlaneBody=0;top=0;left=0;bottom=0;right=0;dropTarget=0;collapsible=0;recursiveResize=0;expand=0;fontStyle=1;strokeColor=inherit;fillColor=#EAF2D3;" vertex="1" parent="YqBTJiR8Vr2jeuTM6Ofv-831">
          <mxGeometry y="20" width="40" height="20" as="geometry" />
        </mxCell>
        <mxCell id="YqBTJiR8Vr2jeuTM6Ofv-835" value="data" style="connectable=0;recursiveResize=0;strokeColor=inherit;fillColor=inherit;whiteSpace=wrap;html=1;" vertex="1" parent="YqBTJiR8Vr2jeuTM6Ofv-834">
          <mxGeometry width="40" height="20" as="geometry">
            <mxRectangle width="40" height="20" as="alternateBounds" />
          </mxGeometry>
        </mxCell>
        <mxCell id="YqBTJiR8Vr2jeuTM6Ofv-836" value="Assets" style="childLayout=tableLayout;recursiveResize=0;strokeColor=#98bf21;fillColor=#A7C942;shadow=1;" vertex="1" parent="1">
          <mxGeometry x="320" y="2080" width="40" height="40" as="geometry" />
        </mxCell>
        <mxCell id="YqBTJiR8Vr2jeuTM6Ofv-837" style="shape=tableRow;horizontal=0;startSize=0;swimlaneHead=0;swimlaneBody=0;top=0;left=0;bottom=0;right=0;dropTarget=0;collapsible=0;recursiveResize=0;expand=0;fontStyle=0;strokeColor=inherit;fillColor=#ffffff;" vertex="1" parent="YqBTJiR8Vr2jeuTM6Ofv-836">
          <mxGeometry width="40" height="20" as="geometry" />
        </mxCell>
        <mxCell id="YqBTJiR8Vr2jeuTM6Ofv-838" value="100" style="connectable=0;recursiveResize=0;strokeColor=inherit;fillColor=#A7C942;align=center;fontStyle=1;fontColor=#FFFFFF;html=1;" vertex="1" parent="YqBTJiR8Vr2jeuTM6Ofv-837">
          <mxGeometry width="40" height="20" as="geometry">
            <mxRectangle width="40" height="20" as="alternateBounds" />
          </mxGeometry>
        </mxCell>
        <mxCell id="YqBTJiR8Vr2jeuTM6Ofv-839" value="" style="shape=tableRow;horizontal=0;startSize=0;swimlaneHead=0;swimlaneBody=0;top=0;left=0;bottom=0;right=0;dropTarget=0;collapsible=0;recursiveResize=0;expand=0;fontStyle=1;strokeColor=inherit;fillColor=#EAF2D3;" vertex="1" parent="YqBTJiR8Vr2jeuTM6Ofv-836">
          <mxGeometry y="20" width="40" height="20" as="geometry" />
        </mxCell>
        <mxCell id="YqBTJiR8Vr2jeuTM6Ofv-840" value="data" style="connectable=0;recursiveResize=0;strokeColor=inherit;fillColor=inherit;whiteSpace=wrap;html=1;" vertex="1" parent="YqBTJiR8Vr2jeuTM6Ofv-839">
          <mxGeometry width="40" height="20" as="geometry">
            <mxRectangle width="40" height="20" as="alternateBounds" />
          </mxGeometry>
        </mxCell>
        <mxCell id="YqBTJiR8Vr2jeuTM6Ofv-841" value="Assets" style="childLayout=tableLayout;recursiveResize=0;strokeColor=#98bf21;fillColor=#A7C942;shadow=1;" vertex="1" parent="1">
          <mxGeometry x="440" y="2080" width="40" height="40" as="geometry" />
        </mxCell>
        <mxCell id="YqBTJiR8Vr2jeuTM6Ofv-842" style="shape=tableRow;horizontal=0;startSize=0;swimlaneHead=0;swimlaneBody=0;top=0;left=0;bottom=0;right=0;dropTarget=0;collapsible=0;recursiveResize=0;expand=0;fontStyle=0;strokeColor=inherit;fillColor=#ffffff;" vertex="1" parent="YqBTJiR8Vr2jeuTM6Ofv-841">
          <mxGeometry width="40" height="20" as="geometry" />
        </mxCell>
        <mxCell id="YqBTJiR8Vr2jeuTM6Ofv-843" value="300" style="connectable=0;recursiveResize=0;strokeColor=inherit;fillColor=#A7C942;align=center;fontStyle=1;fontColor=#FFFFFF;html=1;" vertex="1" parent="YqBTJiR8Vr2jeuTM6Ofv-842">
          <mxGeometry width="40" height="20" as="geometry">
            <mxRectangle width="40" height="20" as="alternateBounds" />
          </mxGeometry>
        </mxCell>
        <mxCell id="YqBTJiR8Vr2jeuTM6Ofv-844" value="" style="shape=tableRow;horizontal=0;startSize=0;swimlaneHead=0;swimlaneBody=0;top=0;left=0;bottom=0;right=0;dropTarget=0;collapsible=0;recursiveResize=0;expand=0;fontStyle=1;strokeColor=inherit;fillColor=#EAF2D3;" vertex="1" parent="YqBTJiR8Vr2jeuTM6Ofv-841">
          <mxGeometry y="20" width="40" height="20" as="geometry" />
        </mxCell>
        <mxCell id="YqBTJiR8Vr2jeuTM6Ofv-845" value="data" style="connectable=0;recursiveResize=0;strokeColor=inherit;fillColor=inherit;whiteSpace=wrap;html=1;" vertex="1" parent="YqBTJiR8Vr2jeuTM6Ofv-844">
          <mxGeometry width="40" height="20" as="geometry">
            <mxRectangle width="40" height="20" as="alternateBounds" />
          </mxGeometry>
        </mxCell>
        <mxCell id="YqBTJiR8Vr2jeuTM6Ofv-846" value="Assets" style="childLayout=tableLayout;recursiveResize=0;strokeColor=#98bf21;fillColor=#A7C942;shadow=1;" vertex="1" parent="1">
          <mxGeometry x="400" y="2080" width="40" height="40" as="geometry" />
        </mxCell>
        <mxCell id="YqBTJiR8Vr2jeuTM6Ofv-847" style="shape=tableRow;horizontal=0;startSize=0;swimlaneHead=0;swimlaneBody=0;top=0;left=0;bottom=0;right=0;dropTarget=0;collapsible=0;recursiveResize=0;expand=0;fontStyle=0;strokeColor=inherit;fillColor=#ffffff;" vertex="1" parent="YqBTJiR8Vr2jeuTM6Ofv-846">
          <mxGeometry width="40" height="20" as="geometry" />
        </mxCell>
        <mxCell id="YqBTJiR8Vr2jeuTM6Ofv-848" value="200" style="connectable=0;recursiveResize=0;strokeColor=inherit;fillColor=#A7C942;align=center;fontStyle=1;fontColor=#FFFFFF;html=1;" vertex="1" parent="YqBTJiR8Vr2jeuTM6Ofv-847">
          <mxGeometry width="40" height="20" as="geometry">
            <mxRectangle width="40" height="20" as="alternateBounds" />
          </mxGeometry>
        </mxCell>
        <mxCell id="YqBTJiR8Vr2jeuTM6Ofv-849" value="" style="shape=tableRow;horizontal=0;startSize=0;swimlaneHead=0;swimlaneBody=0;top=0;left=0;bottom=0;right=0;dropTarget=0;collapsible=0;recursiveResize=0;expand=0;fontStyle=1;strokeColor=inherit;fillColor=#EAF2D3;" vertex="1" parent="YqBTJiR8Vr2jeuTM6Ofv-846">
          <mxGeometry y="20" width="40" height="20" as="geometry" />
        </mxCell>
        <mxCell id="YqBTJiR8Vr2jeuTM6Ofv-850" value="data" style="connectable=0;recursiveResize=0;strokeColor=inherit;fillColor=inherit;whiteSpace=wrap;html=1;" vertex="1" parent="YqBTJiR8Vr2jeuTM6Ofv-849">
          <mxGeometry width="40" height="20" as="geometry">
            <mxRectangle width="40" height="20" as="alternateBounds" />
          </mxGeometry>
        </mxCell>
        <mxCell id="YqBTJiR8Vr2jeuTM6Ofv-851" value="Assets" style="childLayout=tableLayout;recursiveResize=0;strokeColor=#98bf21;fillColor=#A7C942;shadow=1;" vertex="1" parent="1">
          <mxGeometry x="200" y="2080" width="40" height="40" as="geometry" />
        </mxCell>
        <mxCell id="YqBTJiR8Vr2jeuTM6Ofv-852" style="shape=tableRow;horizontal=0;startSize=0;swimlaneHead=0;swimlaneBody=0;top=0;left=0;bottom=0;right=0;dropTarget=0;collapsible=0;recursiveResize=0;expand=0;fontStyle=0;strokeColor=inherit;fillColor=#ffffff;" vertex="1" parent="YqBTJiR8Vr2jeuTM6Ofv-851">
          <mxGeometry width="40" height="20" as="geometry" />
        </mxCell>
        <mxCell id="YqBTJiR8Vr2jeuTM6Ofv-853" value="50" style="connectable=0;recursiveResize=0;strokeColor=inherit;fillColor=#A7C942;align=center;fontStyle=1;fontColor=#FFFFFF;html=1;" vertex="1" parent="YqBTJiR8Vr2jeuTM6Ofv-852">
          <mxGeometry width="40" height="20" as="geometry">
            <mxRectangle width="40" height="20" as="alternateBounds" />
          </mxGeometry>
        </mxCell>
        <mxCell id="YqBTJiR8Vr2jeuTM6Ofv-854" value="" style="shape=tableRow;horizontal=0;startSize=0;swimlaneHead=0;swimlaneBody=0;top=0;left=0;bottom=0;right=0;dropTarget=0;collapsible=0;recursiveResize=0;expand=0;fontStyle=1;strokeColor=inherit;fillColor=#EAF2D3;" vertex="1" parent="YqBTJiR8Vr2jeuTM6Ofv-851">
          <mxGeometry y="20" width="40" height="20" as="geometry" />
        </mxCell>
        <mxCell id="YqBTJiR8Vr2jeuTM6Ofv-855" value="data" style="connectable=0;recursiveResize=0;strokeColor=inherit;fillColor=inherit;whiteSpace=wrap;html=1;" vertex="1" parent="YqBTJiR8Vr2jeuTM6Ofv-854">
          <mxGeometry width="40" height="20" as="geometry">
            <mxRectangle width="40" height="20" as="alternateBounds" />
          </mxGeometry>
        </mxCell>
        <mxCell id="YqBTJiR8Vr2jeuTM6Ofv-856" style="rounded=0;orthogonalLoop=1;jettySize=auto;html=1;exitX=0;exitY=1;exitDx=0;exitDy=0;entryX=0;entryY=0;entryDx=0;entryDy=0;fillColor=#ffe6cc;strokeColor=#d79b00;" edge="1" source="YqBTJiR8Vr2jeuTM6Ofv-781" target="YqBTJiR8Vr2jeuTM6Ofv-817" parent="1">
          <mxGeometry relative="1" as="geometry" />
        </mxCell>
        <mxCell id="YqBTJiR8Vr2jeuTM6Ofv-772" value="Assets" style="childLayout=tableLayout;recursiveResize=0;strokeColor=#98bf21;fillColor=#A7C942;shadow=1;" vertex="1" parent="1">
          <mxGeometry x="280" y="2080" width="40" height="40" as="geometry" />
        </mxCell>
        <mxCell id="YqBTJiR8Vr2jeuTM6Ofv-773" style="shape=tableRow;horizontal=0;startSize=0;swimlaneHead=0;swimlaneBody=0;top=0;left=0;bottom=0;right=0;dropTarget=0;collapsible=0;recursiveResize=0;expand=0;fontStyle=0;strokeColor=inherit;fillColor=#ffffff;" vertex="1" parent="YqBTJiR8Vr2jeuTM6Ofv-772">
          <mxGeometry width="40" height="20" as="geometry" />
        </mxCell>
        <mxCell id="YqBTJiR8Vr2jeuTM6Ofv-774" value="80" style="connectable=0;recursiveResize=0;strokeColor=inherit;fillColor=#A7C942;align=center;fontStyle=1;fontColor=#FFFFFF;html=1;" vertex="1" parent="YqBTJiR8Vr2jeuTM6Ofv-773">
          <mxGeometry width="40" height="20" as="geometry">
            <mxRectangle width="40" height="20" as="alternateBounds" />
          </mxGeometry>
        </mxCell>
        <mxCell id="YqBTJiR8Vr2jeuTM6Ofv-775" value="" style="shape=tableRow;horizontal=0;startSize=0;swimlaneHead=0;swimlaneBody=0;top=0;left=0;bottom=0;right=0;dropTarget=0;collapsible=0;recursiveResize=0;expand=0;fontStyle=1;strokeColor=inherit;fillColor=#EAF2D3;" vertex="1" parent="YqBTJiR8Vr2jeuTM6Ofv-772">
          <mxGeometry y="20" width="40" height="20" as="geometry" />
        </mxCell>
        <mxCell id="YqBTJiR8Vr2jeuTM6Ofv-776" value="data" style="connectable=0;recursiveResize=0;strokeColor=inherit;fillColor=inherit;whiteSpace=wrap;html=1;" vertex="1" parent="YqBTJiR8Vr2jeuTM6Ofv-775">
          <mxGeometry width="40" height="20" as="geometry">
            <mxRectangle width="40" height="20" as="alternateBounds" />
          </mxGeometry>
        </mxCell>
        <mxCell id="YqBTJiR8Vr2jeuTM6Ofv-858" style="edgeStyle=none;shape=connector;rounded=0;orthogonalLoop=1;jettySize=auto;html=1;exitX=0;exitY=1;exitDx=0;exitDy=0;entryX=0.5;entryY=0;entryDx=0;entryDy=0;labelBackgroundColor=default;strokeColor=#d79b00;align=center;verticalAlign=middle;fontFamily=Helvetica;fontSize=11;fontColor=default;endArrow=classic;fillColor=#ffe6cc;" edge="1" parent="1" source="YqBTJiR8Vr2jeuTM6Ofv-769" target="YqBTJiR8Vr2jeuTM6Ofv-779">
          <mxGeometry relative="1" as="geometry" />
        </mxCell>
        <mxCell id="YqBTJiR8Vr2jeuTM6Ofv-860" value="Assets" style="childLayout=tableLayout;recursiveResize=0;strokeColor=#98bf21;fillColor=#A7C942;shadow=1;" vertex="1" parent="1">
          <mxGeometry x="240" y="2160" width="40" height="40" as="geometry" />
        </mxCell>
        <mxCell id="YqBTJiR8Vr2jeuTM6Ofv-861" style="shape=tableRow;horizontal=0;startSize=0;swimlaneHead=0;swimlaneBody=0;top=0;left=0;bottom=0;right=0;dropTarget=0;collapsible=0;recursiveResize=0;expand=0;fontStyle=0;strokeColor=inherit;fillColor=#ffffff;" vertex="1" parent="YqBTJiR8Vr2jeuTM6Ofv-860">
          <mxGeometry width="40" height="20" as="geometry" />
        </mxCell>
        <mxCell id="YqBTJiR8Vr2jeuTM6Ofv-862" value="150" style="connectable=0;recursiveResize=0;strokeColor=inherit;fillColor=#A7C942;align=center;fontStyle=1;fontColor=#FFFFFF;html=1;" vertex="1" parent="YqBTJiR8Vr2jeuTM6Ofv-861">
          <mxGeometry width="40" height="20" as="geometry">
            <mxRectangle width="40" height="20" as="alternateBounds" />
          </mxGeometry>
        </mxCell>
        <mxCell id="YqBTJiR8Vr2jeuTM6Ofv-863" value="" style="shape=tableRow;horizontal=0;startSize=0;swimlaneHead=0;swimlaneBody=0;top=0;left=0;bottom=0;right=0;dropTarget=0;collapsible=0;recursiveResize=0;expand=0;fontStyle=1;strokeColor=inherit;fillColor=#EAF2D3;" vertex="1" parent="YqBTJiR8Vr2jeuTM6Ofv-860">
          <mxGeometry y="20" width="40" height="20" as="geometry" />
        </mxCell>
        <mxCell id="YqBTJiR8Vr2jeuTM6Ofv-864" value="data" style="connectable=0;recursiveResize=0;strokeColor=inherit;fillColor=inherit;whiteSpace=wrap;html=1;" vertex="1" parent="YqBTJiR8Vr2jeuTM6Ofv-863">
          <mxGeometry width="40" height="20" as="geometry">
            <mxRectangle width="40" height="20" as="alternateBounds" />
          </mxGeometry>
        </mxCell>
        <mxCell id="YqBTJiR8Vr2jeuTM6Ofv-865" style="edgeStyle=none;shape=connector;rounded=0;orthogonalLoop=1;jettySize=auto;html=1;exitX=1;exitY=1;exitDx=0;exitDy=0;entryX=1;entryY=0;entryDx=0;entryDy=0;labelBackgroundColor=default;strokeColor=#d79b00;align=center;verticalAlign=middle;fontFamily=Helvetica;fontSize=11;fontColor=default;endArrow=classic;fillColor=#ffe6cc;" edge="1" source="YqBTJiR8Vr2jeuTM6Ofv-866" target="YqBTJiR8Vr2jeuTM6Ofv-920" parent="1">
          <mxGeometry relative="1" as="geometry" />
        </mxCell>
        <mxCell id="YqBTJiR8Vr2jeuTM6Ofv-866" value="Assets" style="childLayout=tableLayout;recursiveResize=0;strokeColor=#98bf21;fillColor=#A7C942;shadow=1;" vertex="1" parent="1">
          <mxGeometry x="200" y="2160" width="40" height="40" as="geometry" />
        </mxCell>
        <mxCell id="YqBTJiR8Vr2jeuTM6Ofv-867" style="shape=tableRow;horizontal=0;startSize=0;swimlaneHead=0;swimlaneBody=0;top=0;left=0;bottom=0;right=0;dropTarget=0;collapsible=0;recursiveResize=0;expand=0;fontStyle=0;strokeColor=inherit;fillColor=#ffffff;" vertex="1" parent="YqBTJiR8Vr2jeuTM6Ofv-866">
          <mxGeometry width="40" height="20" as="geometry" />
        </mxCell>
        <mxCell id="YqBTJiR8Vr2jeuTM6Ofv-868" value="46" style="connectable=0;recursiveResize=0;strokeColor=inherit;fillColor=#A7C942;align=center;fontStyle=1;fontColor=#FFFFFF;html=1;" vertex="1" parent="YqBTJiR8Vr2jeuTM6Ofv-867">
          <mxGeometry width="40" height="20" as="geometry">
            <mxRectangle width="40" height="20" as="alternateBounds" />
          </mxGeometry>
        </mxCell>
        <mxCell id="YqBTJiR8Vr2jeuTM6Ofv-869" value="" style="shape=tableRow;horizontal=0;startSize=0;swimlaneHead=0;swimlaneBody=0;top=0;left=0;bottom=0;right=0;dropTarget=0;collapsible=0;recursiveResize=0;expand=0;fontStyle=1;strokeColor=inherit;fillColor=#EAF2D3;" vertex="1" parent="YqBTJiR8Vr2jeuTM6Ofv-866">
          <mxGeometry y="20" width="40" height="20" as="geometry" />
        </mxCell>
        <mxCell id="YqBTJiR8Vr2jeuTM6Ofv-870" value="data" style="connectable=0;recursiveResize=0;strokeColor=inherit;fillColor=inherit;whiteSpace=wrap;html=1;" vertex="1" parent="YqBTJiR8Vr2jeuTM6Ofv-869">
          <mxGeometry width="40" height="20" as="geometry">
            <mxRectangle width="40" height="20" as="alternateBounds" />
          </mxGeometry>
        </mxCell>
        <mxCell id="YqBTJiR8Vr2jeuTM6Ofv-871" style="edgeStyle=none;shape=connector;rounded=0;orthogonalLoop=1;jettySize=auto;html=1;exitX=0;exitY=1;exitDx=0;exitDy=0;entryX=1;entryY=0;entryDx=0;entryDy=0;labelBackgroundColor=default;strokeColor=#d79b00;align=center;verticalAlign=middle;fontFamily=Helvetica;fontSize=11;fontColor=default;endArrow=classic;fillColor=#ffe6cc;" edge="1" source="YqBTJiR8Vr2jeuTM6Ofv-873" target="YqBTJiR8Vr2jeuTM6Ofv-890" parent="1">
          <mxGeometry relative="1" as="geometry" />
        </mxCell>
        <mxCell id="YqBTJiR8Vr2jeuTM6Ofv-872" style="edgeStyle=none;shape=connector;rounded=0;orthogonalLoop=1;jettySize=auto;html=1;exitX=1;exitY=1;exitDx=0;exitDy=0;entryX=1;entryY=0;entryDx=0;entryDy=0;labelBackgroundColor=default;strokeColor=#d79b00;align=center;verticalAlign=middle;fontFamily=Helvetica;fontSize=11;fontColor=default;endArrow=classic;fillColor=#ffe6cc;" edge="1" source="YqBTJiR8Vr2jeuTM6Ofv-873" target="YqBTJiR8Vr2jeuTM6Ofv-900" parent="1">
          <mxGeometry relative="1" as="geometry" />
        </mxCell>
        <mxCell id="YqBTJiR8Vr2jeuTM6Ofv-873" value="Assets" style="childLayout=tableLayout;recursiveResize=0;strokeColor=#98bf21;fillColor=#A7C942;shadow=1;" vertex="1" parent="1">
          <mxGeometry x="320" y="2160" width="40" height="40" as="geometry" />
        </mxCell>
        <mxCell id="YqBTJiR8Vr2jeuTM6Ofv-874" style="shape=tableRow;horizontal=0;startSize=0;swimlaneHead=0;swimlaneBody=0;top=0;left=0;bottom=0;right=0;dropTarget=0;collapsible=0;recursiveResize=0;expand=0;fontStyle=0;strokeColor=inherit;fillColor=#ffffff;" vertex="1" parent="YqBTJiR8Vr2jeuTM6Ofv-873">
          <mxGeometry width="40" height="20" as="geometry" />
        </mxCell>
        <mxCell id="YqBTJiR8Vr2jeuTM6Ofv-875" value="350" style="connectable=0;recursiveResize=0;strokeColor=inherit;fillColor=#A7C942;align=center;fontStyle=1;fontColor=#FFFFFF;html=1;" vertex="1" parent="YqBTJiR8Vr2jeuTM6Ofv-874">
          <mxGeometry width="40" height="20" as="geometry">
            <mxRectangle width="40" height="20" as="alternateBounds" />
          </mxGeometry>
        </mxCell>
        <mxCell id="YqBTJiR8Vr2jeuTM6Ofv-876" value="" style="shape=tableRow;horizontal=0;startSize=0;swimlaneHead=0;swimlaneBody=0;top=0;left=0;bottom=0;right=0;dropTarget=0;collapsible=0;recursiveResize=0;expand=0;fontStyle=1;strokeColor=inherit;fillColor=#EAF2D3;" vertex="1" parent="YqBTJiR8Vr2jeuTM6Ofv-873">
          <mxGeometry y="20" width="40" height="20" as="geometry" />
        </mxCell>
        <mxCell id="YqBTJiR8Vr2jeuTM6Ofv-877" value="data" style="connectable=0;recursiveResize=0;strokeColor=inherit;fillColor=inherit;whiteSpace=wrap;html=1;" vertex="1" parent="YqBTJiR8Vr2jeuTM6Ofv-876">
          <mxGeometry width="40" height="20" as="geometry">
            <mxRectangle width="40" height="20" as="alternateBounds" />
          </mxGeometry>
        </mxCell>
        <mxCell id="YqBTJiR8Vr2jeuTM6Ofv-878" style="edgeStyle=none;shape=connector;rounded=0;orthogonalLoop=1;jettySize=auto;html=1;exitX=0;exitY=1;exitDx=0;exitDy=0;entryX=1;entryY=0;entryDx=0;entryDy=0;labelBackgroundColor=default;strokeColor=#d79b00;align=center;verticalAlign=middle;fontFamily=Helvetica;fontSize=11;fontColor=default;endArrow=classic;fillColor=#ffe6cc;" edge="1" source="YqBTJiR8Vr2jeuTM6Ofv-879" target="YqBTJiR8Vr2jeuTM6Ofv-935" parent="1">
          <mxGeometry relative="1" as="geometry" />
        </mxCell>
        <mxCell id="YqBTJiR8Vr2jeuTM6Ofv-879" value="Assets" style="childLayout=tableLayout;recursiveResize=0;strokeColor=#98bf21;fillColor=#A7C942;shadow=1;" vertex="1" parent="1">
          <mxGeometry x="280" y="2160" width="40" height="40" as="geometry" />
        </mxCell>
        <mxCell id="YqBTJiR8Vr2jeuTM6Ofv-880" style="shape=tableRow;horizontal=0;startSize=0;swimlaneHead=0;swimlaneBody=0;top=0;left=0;bottom=0;right=0;dropTarget=0;collapsible=0;recursiveResize=0;expand=0;fontStyle=0;strokeColor=inherit;fillColor=#ffffff;" vertex="1" parent="YqBTJiR8Vr2jeuTM6Ofv-879">
          <mxGeometry width="40" height="20" as="geometry" />
        </mxCell>
        <mxCell id="YqBTJiR8Vr2jeuTM6Ofv-881" value="320" style="connectable=0;recursiveResize=0;strokeColor=inherit;fillColor=#A7C942;align=center;fontStyle=1;fontColor=#FFFFFF;html=1;" vertex="1" parent="YqBTJiR8Vr2jeuTM6Ofv-880">
          <mxGeometry width="40" height="20" as="geometry">
            <mxRectangle width="40" height="20" as="alternateBounds" />
          </mxGeometry>
        </mxCell>
        <mxCell id="YqBTJiR8Vr2jeuTM6Ofv-882" value="" style="shape=tableRow;horizontal=0;startSize=0;swimlaneHead=0;swimlaneBody=0;top=0;left=0;bottom=0;right=0;dropTarget=0;collapsible=0;recursiveResize=0;expand=0;fontStyle=1;strokeColor=inherit;fillColor=#EAF2D3;" vertex="1" parent="YqBTJiR8Vr2jeuTM6Ofv-879">
          <mxGeometry y="20" width="40" height="20" as="geometry" />
        </mxCell>
        <mxCell id="YqBTJiR8Vr2jeuTM6Ofv-883" value="data" style="connectable=0;recursiveResize=0;strokeColor=inherit;fillColor=inherit;whiteSpace=wrap;html=1;" vertex="1" parent="YqBTJiR8Vr2jeuTM6Ofv-882">
          <mxGeometry width="40" height="20" as="geometry">
            <mxRectangle width="40" height="20" as="alternateBounds" />
          </mxGeometry>
        </mxCell>
        <mxCell id="YqBTJiR8Vr2jeuTM6Ofv-884" value="Assets" style="childLayout=tableLayout;recursiveResize=0;strokeColor=#98bf21;fillColor=#A7C942;shadow=1;" vertex="1" parent="1">
          <mxGeometry x="480" y="2240" width="40" height="40" as="geometry" />
        </mxCell>
        <mxCell id="YqBTJiR8Vr2jeuTM6Ofv-885" style="shape=tableRow;horizontal=0;startSize=0;swimlaneHead=0;swimlaneBody=0;top=0;left=0;bottom=0;right=0;dropTarget=0;collapsible=0;recursiveResize=0;expand=0;fontStyle=0;strokeColor=inherit;fillColor=#ffffff;" vertex="1" parent="YqBTJiR8Vr2jeuTM6Ofv-884">
          <mxGeometry width="40" height="20" as="geometry" />
        </mxCell>
        <mxCell id="YqBTJiR8Vr2jeuTM6Ofv-886" value="330" style="connectable=0;recursiveResize=0;strokeColor=inherit;fillColor=#A7C942;align=center;fontStyle=1;fontColor=#FFFFFF;html=1;" vertex="1" parent="YqBTJiR8Vr2jeuTM6Ofv-885">
          <mxGeometry width="40" height="20" as="geometry">
            <mxRectangle width="40" height="20" as="alternateBounds" />
          </mxGeometry>
        </mxCell>
        <mxCell id="YqBTJiR8Vr2jeuTM6Ofv-887" value="" style="shape=tableRow;horizontal=0;startSize=0;swimlaneHead=0;swimlaneBody=0;top=0;left=0;bottom=0;right=0;dropTarget=0;collapsible=0;recursiveResize=0;expand=0;fontStyle=1;strokeColor=inherit;fillColor=#EAF2D3;" vertex="1" parent="YqBTJiR8Vr2jeuTM6Ofv-884">
          <mxGeometry y="20" width="40" height="20" as="geometry" />
        </mxCell>
        <mxCell id="YqBTJiR8Vr2jeuTM6Ofv-888" value="data" style="connectable=0;recursiveResize=0;strokeColor=inherit;fillColor=inherit;whiteSpace=wrap;html=1;" vertex="1" parent="YqBTJiR8Vr2jeuTM6Ofv-887">
          <mxGeometry width="40" height="20" as="geometry">
            <mxRectangle width="40" height="20" as="alternateBounds" />
          </mxGeometry>
        </mxCell>
        <mxCell id="YqBTJiR8Vr2jeuTM6Ofv-889" value="Assets" style="childLayout=tableLayout;recursiveResize=0;strokeColor=#98bf21;fillColor=#A7C942;shadow=1;" vertex="1" parent="1">
          <mxGeometry x="440" y="2240" width="40" height="40" as="geometry" />
        </mxCell>
        <mxCell id="YqBTJiR8Vr2jeuTM6Ofv-890" style="shape=tableRow;horizontal=0;startSize=0;swimlaneHead=0;swimlaneBody=0;top=0;left=0;bottom=0;right=0;dropTarget=0;collapsible=0;recursiveResize=0;expand=0;fontStyle=0;strokeColor=inherit;fillColor=#ffffff;" vertex="1" parent="YqBTJiR8Vr2jeuTM6Ofv-889">
          <mxGeometry width="40" height="20" as="geometry" />
        </mxCell>
        <mxCell id="YqBTJiR8Vr2jeuTM6Ofv-891" value="325" style="connectable=0;recursiveResize=0;strokeColor=inherit;fillColor=#A7C942;align=center;fontStyle=1;fontColor=#FFFFFF;html=1;" vertex="1" parent="YqBTJiR8Vr2jeuTM6Ofv-890">
          <mxGeometry width="40" height="20" as="geometry">
            <mxRectangle width="40" height="20" as="alternateBounds" />
          </mxGeometry>
        </mxCell>
        <mxCell id="YqBTJiR8Vr2jeuTM6Ofv-892" value="" style="shape=tableRow;horizontal=0;startSize=0;swimlaneHead=0;swimlaneBody=0;top=0;left=0;bottom=0;right=0;dropTarget=0;collapsible=0;recursiveResize=0;expand=0;fontStyle=1;strokeColor=inherit;fillColor=#EAF2D3;" vertex="1" parent="YqBTJiR8Vr2jeuTM6Ofv-889">
          <mxGeometry y="20" width="40" height="20" as="geometry" />
        </mxCell>
        <mxCell id="YqBTJiR8Vr2jeuTM6Ofv-893" value="data" style="connectable=0;recursiveResize=0;strokeColor=inherit;fillColor=inherit;whiteSpace=wrap;html=1;" vertex="1" parent="YqBTJiR8Vr2jeuTM6Ofv-892">
          <mxGeometry width="40" height="20" as="geometry">
            <mxRectangle width="40" height="20" as="alternateBounds" />
          </mxGeometry>
        </mxCell>
        <mxCell id="YqBTJiR8Vr2jeuTM6Ofv-894" value="Assets" style="childLayout=tableLayout;recursiveResize=0;strokeColor=#98bf21;fillColor=#A7C942;shadow=1;" vertex="1" parent="1">
          <mxGeometry x="600" y="2240" width="40" height="40" as="geometry" />
        </mxCell>
        <mxCell id="YqBTJiR8Vr2jeuTM6Ofv-895" style="shape=tableRow;horizontal=0;startSize=0;swimlaneHead=0;swimlaneBody=0;top=0;left=0;bottom=0;right=0;dropTarget=0;collapsible=0;recursiveResize=0;expand=0;fontStyle=0;strokeColor=inherit;fillColor=#ffffff;" vertex="1" parent="YqBTJiR8Vr2jeuTM6Ofv-894">
          <mxGeometry width="40" height="20" as="geometry" />
        </mxCell>
        <mxCell id="YqBTJiR8Vr2jeuTM6Ofv-896" value="450" style="connectable=0;recursiveResize=0;strokeColor=inherit;fillColor=#A7C942;align=center;fontStyle=1;fontColor=#FFFFFF;html=1;" vertex="1" parent="YqBTJiR8Vr2jeuTM6Ofv-895">
          <mxGeometry width="40" height="20" as="geometry">
            <mxRectangle width="40" height="20" as="alternateBounds" />
          </mxGeometry>
        </mxCell>
        <mxCell id="YqBTJiR8Vr2jeuTM6Ofv-897" value="" style="shape=tableRow;horizontal=0;startSize=0;swimlaneHead=0;swimlaneBody=0;top=0;left=0;bottom=0;right=0;dropTarget=0;collapsible=0;recursiveResize=0;expand=0;fontStyle=1;strokeColor=inherit;fillColor=#EAF2D3;" vertex="1" parent="YqBTJiR8Vr2jeuTM6Ofv-894">
          <mxGeometry y="20" width="40" height="20" as="geometry" />
        </mxCell>
        <mxCell id="YqBTJiR8Vr2jeuTM6Ofv-898" value="data" style="connectable=0;recursiveResize=0;strokeColor=inherit;fillColor=inherit;whiteSpace=wrap;html=1;" vertex="1" parent="YqBTJiR8Vr2jeuTM6Ofv-897">
          <mxGeometry width="40" height="20" as="geometry">
            <mxRectangle width="40" height="20" as="alternateBounds" />
          </mxGeometry>
        </mxCell>
        <mxCell id="YqBTJiR8Vr2jeuTM6Ofv-899" value="Assets" style="childLayout=tableLayout;recursiveResize=0;strokeColor=#98bf21;fillColor=#A7C942;shadow=1;" vertex="1" parent="1">
          <mxGeometry x="560" y="2240" width="40" height="40" as="geometry" />
        </mxCell>
        <mxCell id="YqBTJiR8Vr2jeuTM6Ofv-900" style="shape=tableRow;horizontal=0;startSize=0;swimlaneHead=0;swimlaneBody=0;top=0;left=0;bottom=0;right=0;dropTarget=0;collapsible=0;recursiveResize=0;expand=0;fontStyle=0;strokeColor=inherit;fillColor=#ffffff;" vertex="1" parent="YqBTJiR8Vr2jeuTM6Ofv-899">
          <mxGeometry width="40" height="20" as="geometry" />
        </mxCell>
        <mxCell id="YqBTJiR8Vr2jeuTM6Ofv-901" value="400" style="connectable=0;recursiveResize=0;strokeColor=inherit;fillColor=#A7C942;align=center;fontStyle=1;fontColor=#FFFFFF;html=1;" vertex="1" parent="YqBTJiR8Vr2jeuTM6Ofv-900">
          <mxGeometry width="40" height="20" as="geometry">
            <mxRectangle width="40" height="20" as="alternateBounds" />
          </mxGeometry>
        </mxCell>
        <mxCell id="YqBTJiR8Vr2jeuTM6Ofv-902" value="" style="shape=tableRow;horizontal=0;startSize=0;swimlaneHead=0;swimlaneBody=0;top=0;left=0;bottom=0;right=0;dropTarget=0;collapsible=0;recursiveResize=0;expand=0;fontStyle=1;strokeColor=inherit;fillColor=#EAF2D3;" vertex="1" parent="YqBTJiR8Vr2jeuTM6Ofv-899">
          <mxGeometry y="20" width="40" height="20" as="geometry" />
        </mxCell>
        <mxCell id="YqBTJiR8Vr2jeuTM6Ofv-903" value="data" style="connectable=0;recursiveResize=0;strokeColor=inherit;fillColor=inherit;whiteSpace=wrap;html=1;" vertex="1" parent="YqBTJiR8Vr2jeuTM6Ofv-902">
          <mxGeometry width="40" height="20" as="geometry">
            <mxRectangle width="40" height="20" as="alternateBounds" />
          </mxGeometry>
        </mxCell>
        <mxCell id="YqBTJiR8Vr2jeuTM6Ofv-904" value="Assets" style="childLayout=tableLayout;recursiveResize=0;strokeColor=#98bf21;fillColor=#A7C942;shadow=1;" vertex="1" parent="1">
          <mxGeometry x="40" y="2240" width="40" height="40" as="geometry" />
        </mxCell>
        <mxCell id="YqBTJiR8Vr2jeuTM6Ofv-905" style="shape=tableRow;horizontal=0;startSize=0;swimlaneHead=0;swimlaneBody=0;top=0;left=0;bottom=0;right=0;dropTarget=0;collapsible=0;recursiveResize=0;expand=0;fontStyle=0;strokeColor=inherit;fillColor=#ffffff;" vertex="1" parent="YqBTJiR8Vr2jeuTM6Ofv-904">
          <mxGeometry width="40" height="20" as="geometry" />
        </mxCell>
        <mxCell id="YqBTJiR8Vr2jeuTM6Ofv-906" value="40" style="connectable=0;recursiveResize=0;strokeColor=inherit;fillColor=#A7C942;align=center;fontStyle=1;fontColor=#FFFFFF;html=1;" vertex="1" parent="YqBTJiR8Vr2jeuTM6Ofv-905">
          <mxGeometry width="40" height="20" as="geometry">
            <mxRectangle width="40" height="20" as="alternateBounds" />
          </mxGeometry>
        </mxCell>
        <mxCell id="YqBTJiR8Vr2jeuTM6Ofv-907" value="" style="shape=tableRow;horizontal=0;startSize=0;swimlaneHead=0;swimlaneBody=0;top=0;left=0;bottom=0;right=0;dropTarget=0;collapsible=0;recursiveResize=0;expand=0;fontStyle=1;strokeColor=inherit;fillColor=#EAF2D3;" vertex="1" parent="YqBTJiR8Vr2jeuTM6Ofv-904">
          <mxGeometry y="20" width="40" height="20" as="geometry" />
        </mxCell>
        <mxCell id="YqBTJiR8Vr2jeuTM6Ofv-908" value="data" style="connectable=0;recursiveResize=0;strokeColor=inherit;fillColor=inherit;whiteSpace=wrap;html=1;" vertex="1" parent="YqBTJiR8Vr2jeuTM6Ofv-907">
          <mxGeometry width="40" height="20" as="geometry">
            <mxRectangle width="40" height="20" as="alternateBounds" />
          </mxGeometry>
        </mxCell>
        <mxCell id="YqBTJiR8Vr2jeuTM6Ofv-909" value="Assets" style="childLayout=tableLayout;recursiveResize=0;strokeColor=#98bf21;fillColor=#A7C942;shadow=1;" vertex="1" parent="1">
          <mxGeometry y="2240" width="40" height="40" as="geometry" />
        </mxCell>
        <mxCell id="YqBTJiR8Vr2jeuTM6Ofv-910" style="shape=tableRow;horizontal=0;startSize=0;swimlaneHead=0;swimlaneBody=0;top=0;left=0;bottom=0;right=0;dropTarget=0;collapsible=0;recursiveResize=0;expand=0;fontStyle=0;strokeColor=inherit;fillColor=#ffffff;" vertex="1" parent="YqBTJiR8Vr2jeuTM6Ofv-909">
          <mxGeometry width="40" height="20" as="geometry" />
        </mxCell>
        <mxCell id="YqBTJiR8Vr2jeuTM6Ofv-911" value="30" style="connectable=0;recursiveResize=0;strokeColor=inherit;fillColor=#A7C942;align=center;fontStyle=1;fontColor=#FFFFFF;html=1;" vertex="1" parent="YqBTJiR8Vr2jeuTM6Ofv-910">
          <mxGeometry width="40" height="20" as="geometry">
            <mxRectangle width="40" height="20" as="alternateBounds" />
          </mxGeometry>
        </mxCell>
        <mxCell id="YqBTJiR8Vr2jeuTM6Ofv-912" value="" style="shape=tableRow;horizontal=0;startSize=0;swimlaneHead=0;swimlaneBody=0;top=0;left=0;bottom=0;right=0;dropTarget=0;collapsible=0;recursiveResize=0;expand=0;fontStyle=1;strokeColor=inherit;fillColor=#EAF2D3;" vertex="1" parent="YqBTJiR8Vr2jeuTM6Ofv-909">
          <mxGeometry y="20" width="40" height="20" as="geometry" />
        </mxCell>
        <mxCell id="YqBTJiR8Vr2jeuTM6Ofv-913" value="data" style="connectable=0;recursiveResize=0;strokeColor=inherit;fillColor=inherit;whiteSpace=wrap;html=1;" vertex="1" parent="YqBTJiR8Vr2jeuTM6Ofv-912">
          <mxGeometry width="40" height="20" as="geometry">
            <mxRectangle width="40" height="20" as="alternateBounds" />
          </mxGeometry>
        </mxCell>
        <mxCell id="YqBTJiR8Vr2jeuTM6Ofv-914" value="Assets" style="childLayout=tableLayout;recursiveResize=0;strokeColor=#98bf21;fillColor=#A7C942;shadow=1;" vertex="1" parent="1">
          <mxGeometry y="2160" width="40" height="40" as="geometry" />
        </mxCell>
        <mxCell id="YqBTJiR8Vr2jeuTM6Ofv-915" style="shape=tableRow;horizontal=0;startSize=0;swimlaneHead=0;swimlaneBody=0;top=0;left=0;bottom=0;right=0;dropTarget=0;collapsible=0;recursiveResize=0;expand=0;fontStyle=0;strokeColor=inherit;fillColor=#ffffff;" vertex="1" parent="YqBTJiR8Vr2jeuTM6Ofv-914">
          <mxGeometry width="40" height="20" as="geometry" />
        </mxCell>
        <mxCell id="YqBTJiR8Vr2jeuTM6Ofv-916" value="90" style="connectable=0;recursiveResize=0;strokeColor=inherit;fillColor=#A7C942;align=center;fontStyle=1;fontColor=#FFFFFF;html=1;" vertex="1" parent="YqBTJiR8Vr2jeuTM6Ofv-915">
          <mxGeometry width="40" height="20" as="geometry">
            <mxRectangle width="40" height="20" as="alternateBounds" />
          </mxGeometry>
        </mxCell>
        <mxCell id="YqBTJiR8Vr2jeuTM6Ofv-917" value="" style="shape=tableRow;horizontal=0;startSize=0;swimlaneHead=0;swimlaneBody=0;top=0;left=0;bottom=0;right=0;dropTarget=0;collapsible=0;recursiveResize=0;expand=0;fontStyle=1;strokeColor=inherit;fillColor=#EAF2D3;" vertex="1" parent="YqBTJiR8Vr2jeuTM6Ofv-914">
          <mxGeometry y="20" width="40" height="20" as="geometry" />
        </mxCell>
        <mxCell id="YqBTJiR8Vr2jeuTM6Ofv-918" value="data" style="connectable=0;recursiveResize=0;strokeColor=inherit;fillColor=inherit;whiteSpace=wrap;html=1;" vertex="1" parent="YqBTJiR8Vr2jeuTM6Ofv-917">
          <mxGeometry width="40" height="20" as="geometry">
            <mxRectangle width="40" height="20" as="alternateBounds" />
          </mxGeometry>
        </mxCell>
        <mxCell id="YqBTJiR8Vr2jeuTM6Ofv-919" value="Assets" style="childLayout=tableLayout;recursiveResize=0;strokeColor=#98bf21;fillColor=#A7C942;shadow=1;" vertex="1" parent="1">
          <mxGeometry x="160" y="2240" width="40" height="40" as="geometry" />
        </mxCell>
        <mxCell id="YqBTJiR8Vr2jeuTM6Ofv-920" style="shape=tableRow;horizontal=0;startSize=0;swimlaneHead=0;swimlaneBody=0;top=0;left=0;bottom=0;right=0;dropTarget=0;collapsible=0;recursiveResize=0;expand=0;fontStyle=0;strokeColor=inherit;fillColor=#ffffff;" vertex="1" parent="YqBTJiR8Vr2jeuTM6Ofv-919">
          <mxGeometry width="40" height="20" as="geometry" />
        </mxCell>
        <mxCell id="YqBTJiR8Vr2jeuTM6Ofv-921" value="70" style="connectable=0;recursiveResize=0;strokeColor=inherit;fillColor=#A7C942;align=center;fontStyle=1;fontColor=#FFFFFF;html=1;" vertex="1" parent="YqBTJiR8Vr2jeuTM6Ofv-920">
          <mxGeometry width="40" height="20" as="geometry">
            <mxRectangle width="40" height="20" as="alternateBounds" />
          </mxGeometry>
        </mxCell>
        <mxCell id="YqBTJiR8Vr2jeuTM6Ofv-922" value="" style="shape=tableRow;horizontal=0;startSize=0;swimlaneHead=0;swimlaneBody=0;top=0;left=0;bottom=0;right=0;dropTarget=0;collapsible=0;recursiveResize=0;expand=0;fontStyle=1;strokeColor=inherit;fillColor=#EAF2D3;" vertex="1" parent="YqBTJiR8Vr2jeuTM6Ofv-919">
          <mxGeometry y="20" width="40" height="20" as="geometry" />
        </mxCell>
        <mxCell id="YqBTJiR8Vr2jeuTM6Ofv-923" value="data" style="connectable=0;recursiveResize=0;strokeColor=inherit;fillColor=inherit;whiteSpace=wrap;html=1;" vertex="1" parent="YqBTJiR8Vr2jeuTM6Ofv-922">
          <mxGeometry width="40" height="20" as="geometry">
            <mxRectangle width="40" height="20" as="alternateBounds" />
          </mxGeometry>
        </mxCell>
        <mxCell id="YqBTJiR8Vr2jeuTM6Ofv-924" value="Assets" style="childLayout=tableLayout;recursiveResize=0;strokeColor=#98bf21;fillColor=#A7C942;shadow=1;" vertex="1" parent="1">
          <mxGeometry x="240" y="2240" width="40" height="40" as="geometry" />
        </mxCell>
        <mxCell id="YqBTJiR8Vr2jeuTM6Ofv-925" style="shape=tableRow;horizontal=0;startSize=0;swimlaneHead=0;swimlaneBody=0;top=0;left=0;bottom=0;right=0;dropTarget=0;collapsible=0;recursiveResize=0;expand=0;fontStyle=0;strokeColor=inherit;fillColor=#ffffff;" vertex="1" parent="YqBTJiR8Vr2jeuTM6Ofv-924">
          <mxGeometry width="40" height="20" as="geometry" />
        </mxCell>
        <mxCell id="YqBTJiR8Vr2jeuTM6Ofv-926" value="100" style="connectable=0;recursiveResize=0;strokeColor=inherit;fillColor=#A7C942;align=center;fontStyle=1;fontColor=#FFFFFF;html=1;" vertex="1" parent="YqBTJiR8Vr2jeuTM6Ofv-925">
          <mxGeometry width="40" height="20" as="geometry">
            <mxRectangle width="40" height="20" as="alternateBounds" />
          </mxGeometry>
        </mxCell>
        <mxCell id="YqBTJiR8Vr2jeuTM6Ofv-927" value="" style="shape=tableRow;horizontal=0;startSize=0;swimlaneHead=0;swimlaneBody=0;top=0;left=0;bottom=0;right=0;dropTarget=0;collapsible=0;recursiveResize=0;expand=0;fontStyle=1;strokeColor=inherit;fillColor=#EAF2D3;" vertex="1" parent="YqBTJiR8Vr2jeuTM6Ofv-924">
          <mxGeometry y="20" width="40" height="20" as="geometry" />
        </mxCell>
        <mxCell id="YqBTJiR8Vr2jeuTM6Ofv-928" value="data" style="connectable=0;recursiveResize=0;strokeColor=inherit;fillColor=inherit;whiteSpace=wrap;html=1;" vertex="1" parent="YqBTJiR8Vr2jeuTM6Ofv-927">
          <mxGeometry width="40" height="20" as="geometry">
            <mxRectangle width="40" height="20" as="alternateBounds" />
          </mxGeometry>
        </mxCell>
        <mxCell id="YqBTJiR8Vr2jeuTM6Ofv-929" value="Assets" style="childLayout=tableLayout;recursiveResize=0;strokeColor=#98bf21;fillColor=#A7C942;shadow=1;" vertex="1" parent="1">
          <mxGeometry x="360" y="2240" width="40" height="40" as="geometry" />
        </mxCell>
        <mxCell id="YqBTJiR8Vr2jeuTM6Ofv-930" style="shape=tableRow;horizontal=0;startSize=0;swimlaneHead=0;swimlaneBody=0;top=0;left=0;bottom=0;right=0;dropTarget=0;collapsible=0;recursiveResize=0;expand=0;fontStyle=0;strokeColor=inherit;fillColor=#ffffff;" vertex="1" parent="YqBTJiR8Vr2jeuTM6Ofv-929">
          <mxGeometry width="40" height="20" as="geometry" />
        </mxCell>
        <mxCell id="YqBTJiR8Vr2jeuTM6Ofv-931" value="300" style="connectable=0;recursiveResize=0;strokeColor=inherit;fillColor=#A7C942;align=center;fontStyle=1;fontColor=#FFFFFF;html=1;" vertex="1" parent="YqBTJiR8Vr2jeuTM6Ofv-930">
          <mxGeometry width="40" height="20" as="geometry">
            <mxRectangle width="40" height="20" as="alternateBounds" />
          </mxGeometry>
        </mxCell>
        <mxCell id="YqBTJiR8Vr2jeuTM6Ofv-932" value="" style="shape=tableRow;horizontal=0;startSize=0;swimlaneHead=0;swimlaneBody=0;top=0;left=0;bottom=0;right=0;dropTarget=0;collapsible=0;recursiveResize=0;expand=0;fontStyle=1;strokeColor=inherit;fillColor=#EAF2D3;" vertex="1" parent="YqBTJiR8Vr2jeuTM6Ofv-929">
          <mxGeometry y="20" width="40" height="20" as="geometry" />
        </mxCell>
        <mxCell id="YqBTJiR8Vr2jeuTM6Ofv-933" value="data" style="connectable=0;recursiveResize=0;strokeColor=inherit;fillColor=inherit;whiteSpace=wrap;html=1;" vertex="1" parent="YqBTJiR8Vr2jeuTM6Ofv-932">
          <mxGeometry width="40" height="20" as="geometry">
            <mxRectangle width="40" height="20" as="alternateBounds" />
          </mxGeometry>
        </mxCell>
        <mxCell id="YqBTJiR8Vr2jeuTM6Ofv-934" value="Assets" style="childLayout=tableLayout;recursiveResize=0;strokeColor=#98bf21;fillColor=#A7C942;shadow=1;" vertex="1" parent="1">
          <mxGeometry x="320" y="2240" width="40" height="40" as="geometry" />
        </mxCell>
        <mxCell id="YqBTJiR8Vr2jeuTM6Ofv-935" style="shape=tableRow;horizontal=0;startSize=0;swimlaneHead=0;swimlaneBody=0;top=0;left=0;bottom=0;right=0;dropTarget=0;collapsible=0;recursiveResize=0;expand=0;fontStyle=0;strokeColor=inherit;fillColor=#ffffff;" vertex="1" parent="YqBTJiR8Vr2jeuTM6Ofv-934">
          <mxGeometry width="40" height="20" as="geometry" />
        </mxCell>
        <mxCell id="YqBTJiR8Vr2jeuTM6Ofv-936" value="200" style="connectable=0;recursiveResize=0;strokeColor=inherit;fillColor=#A7C942;align=center;fontStyle=1;fontColor=#FFFFFF;html=1;" vertex="1" parent="YqBTJiR8Vr2jeuTM6Ofv-935">
          <mxGeometry width="40" height="20" as="geometry">
            <mxRectangle width="40" height="20" as="alternateBounds" />
          </mxGeometry>
        </mxCell>
        <mxCell id="YqBTJiR8Vr2jeuTM6Ofv-937" value="" style="shape=tableRow;horizontal=0;startSize=0;swimlaneHead=0;swimlaneBody=0;top=0;left=0;bottom=0;right=0;dropTarget=0;collapsible=0;recursiveResize=0;expand=0;fontStyle=1;strokeColor=inherit;fillColor=#EAF2D3;" vertex="1" parent="YqBTJiR8Vr2jeuTM6Ofv-934">
          <mxGeometry y="20" width="40" height="20" as="geometry" />
        </mxCell>
        <mxCell id="YqBTJiR8Vr2jeuTM6Ofv-938" value="data" style="connectable=0;recursiveResize=0;strokeColor=inherit;fillColor=inherit;whiteSpace=wrap;html=1;" vertex="1" parent="YqBTJiR8Vr2jeuTM6Ofv-937">
          <mxGeometry width="40" height="20" as="geometry">
            <mxRectangle width="40" height="20" as="alternateBounds" />
          </mxGeometry>
        </mxCell>
        <mxCell id="YqBTJiR8Vr2jeuTM6Ofv-939" value="Assets" style="childLayout=tableLayout;recursiveResize=0;strokeColor=#98bf21;fillColor=#A7C942;shadow=1;" vertex="1" parent="1">
          <mxGeometry x="120" y="2240" width="40" height="40" as="geometry" />
        </mxCell>
        <mxCell id="YqBTJiR8Vr2jeuTM6Ofv-940" style="shape=tableRow;horizontal=0;startSize=0;swimlaneHead=0;swimlaneBody=0;top=0;left=0;bottom=0;right=0;dropTarget=0;collapsible=0;recursiveResize=0;expand=0;fontStyle=0;strokeColor=inherit;fillColor=#ffffff;" vertex="1" parent="YqBTJiR8Vr2jeuTM6Ofv-939">
          <mxGeometry width="40" height="20" as="geometry" />
        </mxCell>
        <mxCell id="YqBTJiR8Vr2jeuTM6Ofv-941" value="50" style="connectable=0;recursiveResize=0;strokeColor=inherit;fillColor=#A7C942;align=center;fontStyle=1;fontColor=#FFFFFF;html=1;" vertex="1" parent="YqBTJiR8Vr2jeuTM6Ofv-940">
          <mxGeometry width="40" height="20" as="geometry">
            <mxRectangle width="40" height="20" as="alternateBounds" />
          </mxGeometry>
        </mxCell>
        <mxCell id="YqBTJiR8Vr2jeuTM6Ofv-942" value="" style="shape=tableRow;horizontal=0;startSize=0;swimlaneHead=0;swimlaneBody=0;top=0;left=0;bottom=0;right=0;dropTarget=0;collapsible=0;recursiveResize=0;expand=0;fontStyle=1;strokeColor=inherit;fillColor=#EAF2D3;" vertex="1" parent="YqBTJiR8Vr2jeuTM6Ofv-939">
          <mxGeometry y="20" width="40" height="20" as="geometry" />
        </mxCell>
        <mxCell id="YqBTJiR8Vr2jeuTM6Ofv-943" value="data" style="connectable=0;recursiveResize=0;strokeColor=inherit;fillColor=inherit;whiteSpace=wrap;html=1;" vertex="1" parent="YqBTJiR8Vr2jeuTM6Ofv-942">
          <mxGeometry width="40" height="20" as="geometry">
            <mxRectangle width="40" height="20" as="alternateBounds" />
          </mxGeometry>
        </mxCell>
        <mxCell id="YqBTJiR8Vr2jeuTM6Ofv-944" style="rounded=0;orthogonalLoop=1;jettySize=auto;html=1;exitX=0;exitY=1;exitDx=0;exitDy=0;entryX=0;entryY=0;entryDx=0;entryDy=0;fillColor=#ffe6cc;strokeColor=#d79b00;" edge="1" source="YqBTJiR8Vr2jeuTM6Ofv-869" target="YqBTJiR8Vr2jeuTM6Ofv-905" parent="1">
          <mxGeometry relative="1" as="geometry" />
        </mxCell>
        <mxCell id="YqBTJiR8Vr2jeuTM6Ofv-945" value="Assets" style="childLayout=tableLayout;recursiveResize=0;strokeColor=#98bf21;fillColor=#A7C942;shadow=1;" vertex="1" parent="1">
          <mxGeometry x="200" y="2240" width="40" height="40" as="geometry" />
        </mxCell>
        <mxCell id="YqBTJiR8Vr2jeuTM6Ofv-946" style="shape=tableRow;horizontal=0;startSize=0;swimlaneHead=0;swimlaneBody=0;top=0;left=0;bottom=0;right=0;dropTarget=0;collapsible=0;recursiveResize=0;expand=0;fontStyle=0;strokeColor=inherit;fillColor=#ffffff;" vertex="1" parent="YqBTJiR8Vr2jeuTM6Ofv-945">
          <mxGeometry width="40" height="20" as="geometry" />
        </mxCell>
        <mxCell id="YqBTJiR8Vr2jeuTM6Ofv-947" value="80" style="connectable=0;recursiveResize=0;strokeColor=inherit;fillColor=#A7C942;align=center;fontStyle=1;fontColor=#FFFFFF;html=1;" vertex="1" parent="YqBTJiR8Vr2jeuTM6Ofv-946">
          <mxGeometry width="40" height="20" as="geometry">
            <mxRectangle width="40" height="20" as="alternateBounds" />
          </mxGeometry>
        </mxCell>
        <mxCell id="YqBTJiR8Vr2jeuTM6Ofv-948" value="" style="shape=tableRow;horizontal=0;startSize=0;swimlaneHead=0;swimlaneBody=0;top=0;left=0;bottom=0;right=0;dropTarget=0;collapsible=0;recursiveResize=0;expand=0;fontStyle=1;strokeColor=inherit;fillColor=#EAF2D3;" vertex="1" parent="YqBTJiR8Vr2jeuTM6Ofv-945">
          <mxGeometry y="20" width="40" height="20" as="geometry" />
        </mxCell>
        <mxCell id="YqBTJiR8Vr2jeuTM6Ofv-949" value="data" style="connectable=0;recursiveResize=0;strokeColor=inherit;fillColor=inherit;whiteSpace=wrap;html=1;" vertex="1" parent="YqBTJiR8Vr2jeuTM6Ofv-948">
          <mxGeometry width="40" height="20" as="geometry">
            <mxRectangle width="40" height="20" as="alternateBounds" />
          </mxGeometry>
        </mxCell>
      </root>
    </mxGraphModel>
  </diagram>
</mxfile>
